<?xml version="1.0" encoding="UTF-8" standalone="no"?>
<svg
   xmlns:dc="http://purl.org/dc/elements/1.1/"
   xmlns:cc="http://creativecommons.org/ns#"
   xmlns:rdf="http://www.w3.org/1999/02/22-rdf-syntax-ns#"
   xmlns:svg="http://www.w3.org/2000/svg"
   xmlns="http://www.w3.org/2000/svg"
   id="svg5082"
   version="1.1"
   height="3956.2754"
   width="7182.1025">
  <metadata
     id="metadata5086">
    <rdf:RDF>
      <cc:Work
         rdf:about="">
        <dc:format>image/svg+xml</dc:format>
        <dc:type
           rdf:resource="http://purl.org/dc/dcmitype/StillImage" />
        <dc:title></dc:title>
      </cc:Work>
    </rdf:RDF>
  </metadata>
  <desc
     id="desc4658">G:\PLATFORMIO\shms\jembatan-kudus-2019\dfx\kudus_R2010.dxf - scale = 1.000000, origin = (0.000000, 0.000000), method = manual</desc>
  <defs
     id="defs4676">
    <marker
       style="overflow:visible"
       refY="0"
       refX="0"
       orient="auto"
       id="DistanceX">
      <path
         id="path4660"
         style="stroke:#000000;stroke-width:0.5"
         d="M 3,-3 -3,3 M 0,-5 V 5" />
    </marker>
    <pattern
       y="0"
       x="0"
       width="8"
       patternUnits="userSpaceOnUse"
       id="Hatch"
       height="8">
      <path
         id="path4663"
         stroke-width="0.25"
         stroke="#000000"
         linecap="square"
         d="M8 4 l-4,4" />
      <path
         id="path4665"
         stroke-width="0.25"
         stroke="#000000"
         linecap="square"
         d="M6 2 l-4,4" />
      <path
         id="path4667"
         stroke-width="0.25"
         stroke="#000000"
         linecap="square"
         d="M4 0 l-4,4" />
    </pattern>
    <symbol
       id="*Model_Space" />
    <symbol
       id="*Paper_Space" />
    <symbol
       id="*Paper_Space0" />
    <symbol
       id="A$C714B15C1">
      <path
         id="path4673"
         style="fill:none;stroke:#0000ff"
         d="m 40.560751,1122.5197 a 40.560751,40.560751 0 1 0 -81.121502,0 40.560751,40.560751 0 1 0 81.121502,0 z" />
    </symbol>
  </defs>
  <g
     transform="translate(0.5,-1122.0197)"
     id="g4678" />
  <g
     transform="translate(0.5,-1122.0197)"
     id="g4716">
    <path
       id="path4680"
       style="fill:none;stroke:#ff0000;stroke-width:5;stroke-miterlimit:4;stroke-dasharray:none"
       d="m 680.31496,2386.548 v 79.2222" />
    <path
       id="path4682"
       style="fill:none;stroke:#ff0000;stroke-width:5;stroke-miterlimit:4;stroke-dasharray:none"
       d="m 1020.4724,2376.3433 v 92.8883" />
    <path
       id="path4684"
       style="fill:none;stroke:#ff0000;stroke-width:5;stroke-miterlimit:4;stroke-dasharray:none"
       d="m 1474.0157,2362.737 v 117.6066" />
    <path
       id="path4686"
       style="fill:none;stroke:#ff0000;stroke-width:5;stroke-miterlimit:4;stroke-dasharray:none"
       d="m 1927.5591,2349.1307 v 149.7642" />
    <path
       id="path4688"
       style="fill:none;stroke:#ff0000;stroke-width:5;stroke-miterlimit:4;stroke-dasharray:none"
       d="m 2381.1024,2336.4571 v 132.5304" />
    <path
       id="path4690"
       style="fill:none;stroke:#ff0000;stroke-width:5;stroke-miterlimit:4;stroke-dasharray:none"
       d="m 2834.6457,2327.6286 v 97.6994" />
    <path
       id="path4692"
       style="fill:none;stroke:#ff0000;stroke-width:5;stroke-miterlimit:4;stroke-dasharray:none"
       d="m 3288.189,2322.87 v 79.0259" />
    <path
       id="path4694"
       style="fill:none;stroke:#ff0000;stroke-width:5;stroke-miterlimit:4;stroke-dasharray:none"
       d="m 3892.9134,2322.87 v 79.0192" />
    <path
       id="path4696"
       style="fill:none;stroke:#ff0000;stroke-width:5;stroke-miterlimit:4;stroke-dasharray:none"
       d="M 4346.4567,2327.6286 V 2425.3" />
    <path
       id="path4698"
       style="fill:none;stroke:#ff0000;stroke-width:5;stroke-miterlimit:4;stroke-dasharray:none"
       d="m 4800,2336.458 v 132.4621" />
    <path
       id="path4700"
       style="fill:none;stroke:#ff0000;stroke-width:5;stroke-miterlimit:4;stroke-dasharray:none"
       d="m 5253.5433,2349.1307 v 149.8014" />
    <path
       id="path4702"
       style="fill:none;stroke:#ff0000;stroke-width:5;stroke-miterlimit:4;stroke-dasharray:none"
       d="m 5707.0866,2362.737 v 117.6289" />
    <path
       id="path4704"
       style="fill:none;stroke:#ff0000;stroke-width:5;stroke-miterlimit:4;stroke-dasharray:none"
       d="m 6160.6299,2376.3433 v 92.8945" />
    <path
       id="path4706"
       style="fill:none;stroke:#ff0000;stroke-width:5;stroke-miterlimit:4;stroke-dasharray:none"
       d="m 6500.7874,2386.548 v 79.2231" />
    <path
       id="path4708"
       style="fill:none;stroke:#ff0000;stroke-width:5;stroke-miterlimit:4;stroke-dasharray:none"
       d="m 6818.4945,2389.9538 h -204.1796 l -113.4331,-3.403 -18.7087,-0.5612 -132.2835,-3.9685 -132.2834,-3.9685 -56.8819,-1.7065 -75.4016,-2.262 -132.2835,-3.9685 -132.2834,-3.9686 -113.5748,-3.4072 -150.9921,-4.5298 -132.2835,-3.9685 -132.2835,-3.9685 -37.9842,-1.1395 -94.2992,-2.829 -28.5355,-0.856 -28.1634,-0.8449 -28.5354,-0.8383 -28.1743,-0.8276 -132.3088,-3.6502 -113.1968,-2.8199 -151.4194,-3.4263 -132.3081,-2.6048 -132.3082,-2.2592 -37.9842,-0.5495 -94.3245,-1.3643 -132.3082,-1.5593 -132.3081,-1.2138 -94.6772,-0.6213 -37.631,-0.2469 -132.3081,-0.5227 -132.3088,-0.1772 -132.3081,0.1773 -132.3082,0.5227 -37.9842,0.2493 -94.3239,0.619 -132.3081,1.2139 -132.3088,1.5594 -94.6772,1.3694 -37.6309,0.5443 -132.3082,2.2594 -132.3081,2.6048 -132.3081,2.9504 -18.7087,0.466 -113.6001,2.8299 -132.3003,3.6501 -28.5354,0.8382 -28.1634,0.8273 -28.5354,0.8561 -28.1575,0.8447 -94.6772,2.8403 -37.6063,1.1282 -132.2834,3.9685 -132.2835,3.9685 -151.3701,4.5411 -113.1968,3.3959 -132.2835,3.9686 -132.2834,3.9685 -75.7796,2.2733 -56.50391,1.6952 -132.28347,3.9685 -132.28346,3.9685 -19.08661,0.5726 -113.05522,3.3916 H 362.49169 v 75.5906 h 204.43744 a 27863.826,27863.826 0 0 1 113.38583,0.2258 27814.108,27814.108 0 0 1 340.15744,3.4614 27969.27,27969.27 0 0 1 453.5433,11.112 28173.597,28173.597 0 0 1 453.5434,18.5513 27529.033,27529.033 0 0 1 122.8346,6.3269 h 56.6929 a 9886.8485,9886.8485 0 0 1 274.0158,-36.2343 10185.313,10185.313 0 0 1 453.5433,-43.6595 10235.277,10235.277 0 0 1 453.5433,-23.4321 10254.841,10254.841 0 0 1 302.3622,-4.4586 10285.71,10285.71 0 0 1 302.3622,4.4519 10306.005,10306.005 0 0 1 453.5433,23.4108 10378.399,10378.399 0 0 1 453.5433,43.6201 10241.669,10241.669 0 0 1 274.0158,36.3017 h 56.6929 a 21660.216,21660.216 0 0 1 122.8346,-6.2897 27285.442,27285.442 0 0 1 453.5433,-18.5662 27542.99,27542.99 0 0 1 453.5433,-11.1281 27625.504,27625.504 0 0 1 340.1575,-3.4667 27643.577,27643.577 0 0 1 113.3858,-0.2267 h 204.3213 z" />
    <path
       id="path4710"
       style="fill:none;stroke:#ff0000;stroke-width:5;stroke-miterlimit:4;stroke-dasharray:none"
       d="M 544.69787,4633.1717 H 362.49169" />
    <path
       id="path4712"
       style="fill:none;stroke:#ff0000;stroke-width:5;stroke-miterlimit:4;stroke-dasharray:none"
       d="m 362.49169,4633.1717 v 75.5905" />
    <path
       id="path4714"
       style="fill:none;stroke:#ff0000;stroke-width:5;stroke-miterlimit:4;stroke-dasharray:none"
       d="M 362.49169,4708.7622 H 552.55527" />
  </g>
  <g
     transform="translate(0.5,-1122.0197)"
     id="g4830">
    <path
       id="path4718"
       style="fill:none;stroke:#414141;stroke-width:5;stroke-miterlimit:4;stroke-dasharray:none"
       d="m 366.47909,2372.7759 h 200.05073 l 112.79772,-3.384 19.08661,-0.5726 132.28347,-3.9685 132.28346,-3.9685 56.50392,-1.6951 75.7795,-2.2734 132.2835,-3.9685 132.2835,-3.9685 113.1968,-3.3959 151.3701,-4.5411 132.2835,-3.9685 132.2834,-3.9685 37.6063,-1.1282 94.6772,-2.8403 28.1575,-0.8447 28.5354,-0.8561 28.1741,-0.8276 28.5508,-0.8387 132.3386,-3.6511 113.623,-2.8305 18.7311,-0.4666 132.353,-2.9514 132.3529,-2.6057 132.353,-2.2601 37.6534,-0.5447 94.7002,-1.3697 132.3542,-1.5599 132.3529,-1.2143 94.3464,-0.6192 38.0066,-0.2494 132.353,-0.5229 132.3536,-0.1773 132.3542,0.1772 132.353,0.5229 37.6534,0.247 94.6996,0.6215 132.353,1.2142 132.3536,1.5598 94.3475,1.3647 38.0067,0.5497 132.353,2.26 132.3558,2.6058 151.4642,3.4273 113.2394,2.8209 132.347,3.6513 28.1897,0.8281 28.5354,0.8382 28.1741,0.8452 28.5355,0.8561 94.2992,2.829 37.9842,1.1395 132.2835,3.9685 132.2835,3.9685 150.9921,4.5298 113.5748,3.4072 132.2835,3.9685 132.2834,3.9685 75.4016,2.2621 56.8819,1.7064 132.2834,3.9685 132.2835,3.9685 18.7087,0.5613 113.1756,3.3953 h 199.9346" />
    <path
       id="path4720"
       style="fill:none;stroke:#414141;stroke-width:5;stroke-miterlimit:4;stroke-dasharray:none"
       d="M 366.47909,2357.6578 H 566.3031 l 112.5711,-3.3772 19.08661,-0.5726 132.28347,-3.9685 132.28346,-3.9685 56.50396,-1.6951 75.7795,-2.2734 132.2835,-3.9685 132.2834,-3.9685 113.1969,-3.3959 151.3701,-4.5411 132.2834,-3.9685 132.2835,-3.9685 37.6063,-1.1282 94.6772,-2.8403 28.1574,-0.8447 28.5355,-0.8561 28.1835,-0.8279 28.5642,-0.8391 132.3724,-3.652 113.6433,-2.831 18.7508,-0.4671 132.3924,-2.9523 132.3924,-2.6065 132.3924,-2.2607 37.6731,-0.545 94.7205,-1.37 132.3941,-1.5604 132.3925,-1.2147 94.366,-0.6193 38.0265,-0.2495 132.3925,-0.5231 132.3935,-0.1774 132.3942,0.1773 132.3925,0.5231 37.6731,0.2472 94.7194,0.6216 132.3925,1.2145 132.3935,1.5603 94.3678,1.365 38.0264,0.55 132.3924,2.2607 132.3977,2.6065 151.5037,3.4283 113.2769,2.8218 132.3808,3.6522 28.2031,0.8285 28.5354,0.8382 28.1836,0.8455 28.5354,0.8561 94.2992,2.829 37.9843,1.1395 132.2834,3.9685 132.2835,3.9685 150.9921,4.5298 113.5748,3.4072 132.2835,3.9685 132.2835,3.9685 75.4015,2.2621 56.8819,1.7064 132.2835,3.9685 132.2835,3.9685 18.7086,0.5613 112.9491,3.3885 h 199.7078" />
    <path
       id="path4722"
       style="fill:none;stroke:#414141;stroke-width:5;stroke-miterlimit:4;stroke-dasharray:none"
       d="m 366.47909,2342.5397 h 199.59729 l 112.34448,-3.3704 19.08661,-0.5726 132.28347,-3.9685 132.28346,-3.9685 56.5039,-1.6951 75.7796,-2.2734 132.2834,-3.9685 132.2835,-3.9685 113.1968,-3.3959 151.3701,-4.5411 132.2835,-3.9685 132.2835,-3.9685 37.6063,-1.1282 94.6771,-2.8403 28.1575,-0.8447 28.5355,-0.8561 28.1929,-0.8282 28.5777,-0.8395 132.406,-3.653 113.6636,-2.8314 18.7705,-0.4676 132.4318,-2.9532 132.4319,-2.6073 132.4319,-2.2614 37.6929,-0.5452 94.7406,-1.3704 132.4342,-1.5608 132.4319,-1.215 94.3858,-0.6194 38.0462,-0.2497 132.432,-0.5233 132.4335,-0.1774 132.4342,0.1774 132.432,0.5231 37.6928,0.2474 94.7391,0.6217 132.432,1.2149 132.4335,1.5608 94.388,1.3652 38.0462,0.5503 132.4319,2.2614 132.4396,2.6074 151.5432,3.4291 113.3143,2.8228 132.4145,3.6532 28.2166,0.8288 28.5354,0.8382 28.193,0.8458 28.5354,0.8561 94.2993,2.829 37.9842,1.1395 132.2835,3.9685 132.2834,3.9685 150.9922,4.5298 113.5748,3.4072 132.2834,3.9685 132.2835,3.9685 75.4016,2.2621 56.8819,1.7064 132.2834,3.9685 132.2835,3.9685 18.7087,0.5613 112.7224,3.3817 h 199.4811" />
    <path
       id="path4724"
       style="fill:none;stroke:#414141;stroke-width:5;stroke-miterlimit:4;stroke-dasharray:none"
       d="m 375.51216,2337.3428 v 52.611" />
    <path
       id="path4726"
       style="fill:none;stroke:#414141;stroke-width:5;stroke-miterlimit:4;stroke-dasharray:none"
       d="m 480.87403,2337.3428 v 52.611" />
    <path
       id="path4728"
       style="fill:none;stroke:#414141;stroke-width:5;stroke-miterlimit:4;stroke-dasharray:none"
       d="m 587.68297,2335.8982 1.60142,53.3807" />
    <path
       id="path4730"
       style="fill:none;stroke:#414141;stroke-width:5;stroke-miterlimit:4;stroke-dasharray:none"
       d="m 797.37622,2330.4015 1.57762,52.5873" />
    <path
       id="path4732"
       style="fill:none;stroke:#414141;stroke-width:5;stroke-miterlimit:4;stroke-dasharray:none"
       d="m 937.15585,2326.2081 1.57762,52.5873" />
    <path
       id="path4734"
       style="fill:none;stroke:#414141;stroke-width:5;stroke-miterlimit:4;stroke-dasharray:none"
       d="m 1076.9355,2322.0147 1.5776,52.5874" />
    <path
       id="path4736"
       style="fill:none;stroke:#414141;stroke-width:5;stroke-miterlimit:4;stroke-dasharray:none"
       d="m 1216.7151,2317.8213 1.5776,52.5874" />
    <path
       id="path4738"
       style="fill:none;stroke:#414141;stroke-width:5;stroke-miterlimit:4;stroke-dasharray:none"
       d="m 1356.4948,2313.6279 1.5776,52.5874" />
    <path
       id="path4740"
       style="fill:none;stroke:#414141;stroke-width:5;stroke-miterlimit:4;stroke-dasharray:none"
       d="m 1496.2744,2309.4345 1.5776,52.5874" />
    <path
       id="path4742"
       style="fill:none;stroke:#414141;stroke-width:5;stroke-miterlimit:4;stroke-dasharray:none"
       d="m 1636.054,2305.2411 1.5776,52.5874" />
    <path
       id="path4744"
       style="fill:none;stroke:#414141;stroke-width:5;stroke-miterlimit:4;stroke-dasharray:none"
       d="m 1775.8336,2301.0477 1.5777,52.5874" />
    <path
       id="path4746"
       style="fill:none;stroke:#414141;stroke-width:5;stroke-miterlimit:4;stroke-dasharray:none"
       d="m 1915.6133,2296.8544 1.5776,52.5873" />
    <path
       id="path4748"
       style="fill:none;stroke:#414141;stroke-width:5;stroke-miterlimit:4;stroke-dasharray:none"
       d="m 2055.3929,2292.661 1.5776,52.5873" />
    <path
       id="path4750"
       style="fill:none;stroke:#414141;stroke-width:5;stroke-miterlimit:4;stroke-dasharray:none"
       d="m 2195.1779,2288.6512 1.4509,52.591" />
    <path
       id="path4752"
       style="fill:none;stroke:#414141;stroke-width:5;stroke-miterlimit:4;stroke-dasharray:none"
       d="m 2334.972,2284.9789 1.3102,52.5947" />
    <path
       id="path4754"
       style="fill:none;stroke:#414141;stroke-width:5;stroke-miterlimit:4;stroke-dasharray:none"
       d="m 2474.7759,2281.6954 1.1729,52.5979" />
    <path
       id="path4756"
       style="fill:none;stroke:#414141;stroke-width:5;stroke-miterlimit:4;stroke-dasharray:none"
       d="m 2614.5882,2278.796 1.0356,52.6009" />
    <path
       id="path4758"
       style="fill:none;stroke:#414141;stroke-width:5;stroke-miterlimit:4;stroke-dasharray:none"
       d="m 2754.408,2276.2809 0.8983,52.6034" />
    <path
       id="path4760"
       style="fill:none;stroke:#414141;stroke-width:5;stroke-miterlimit:4;stroke-dasharray:none"
       d="m 2894.2342,2274.1502 0.7609,52.6055" />
    <path
       id="path4762"
       style="fill:none;stroke:#414141;stroke-width:5;stroke-miterlimit:4;stroke-dasharray:none"
       d="m 3034.0658,2272.4109 0.62,52.6073" />
    <path
       id="path4764"
       style="fill:none;stroke:#414141;stroke-width:5;stroke-miterlimit:4;stroke-dasharray:none"
       d="m 3173.9017,2271.0582 0.4827,52.6089" />
    <path
       id="path4766"
       style="fill:none;stroke:#414141;stroke-width:5;stroke-miterlimit:4;stroke-dasharray:none"
       d="m 3313.7408,2270.0901 0.3453,52.6099" />
    <path
       id="path4768"
       style="fill:none;stroke:#414141;stroke-width:5;stroke-miterlimit:4;stroke-dasharray:none"
       d="m 3453.5821,2269.5065 0.2079,52.6106" />
    <path
       id="path4770"
       style="fill:none;stroke:#414141;stroke-width:5;stroke-miterlimit:4;stroke-dasharray:none"
       d="m 3590.5512,2269.5061 v 52.4163" />
    <path
       id="path4772"
       style="fill:none;stroke:#414141;stroke-width:5;stroke-miterlimit:4;stroke-dasharray:none"
       d="m 6805.5902,2337.3428 v 52.611" />
    <path
       id="path4774"
       style="fill:none;stroke:#414141;stroke-width:5;stroke-miterlimit:4;stroke-dasharray:none"
       d="m 6700.2283,2337.3428 v 52.611" />
    <path
       id="path4776"
       style="fill:none;stroke:#414141;stroke-width:5;stroke-miterlimit:4;stroke-dasharray:none"
       d="m 6383.7261,2330.4015 -1.5776,52.5873" />
    <path
       id="path4778"
       style="fill:none;stroke:#414141;stroke-width:5;stroke-miterlimit:4;stroke-dasharray:none"
       d="m 6243.9465,2326.2081 -1.5776,52.5873" />
    <path
       id="path4780"
       style="fill:none;stroke:#414141;stroke-width:5;stroke-miterlimit:4;stroke-dasharray:none"
       d="m 6104.1669,2322.0147 -1.5776,52.5874" />
    <path
       id="path4782"
       style="fill:none;stroke:#414141;stroke-width:5;stroke-miterlimit:4;stroke-dasharray:none"
       d="m 5964.3872,2317.8213 -1.5776,52.5874" />
    <path
       id="path4784"
       style="fill:none;stroke:#414141;stroke-width:5;stroke-miterlimit:4;stroke-dasharray:none"
       d="m 5824.6076,2313.6279 -1.5776,52.5874" />
    <path
       id="path4786"
       style="fill:none;stroke:#414141;stroke-width:5;stroke-miterlimit:4;stroke-dasharray:none"
       d="m 5684.828,2309.4345 -1.5776,52.5874" />
    <path
       id="path4788"
       style="fill:none;stroke:#414141;stroke-width:5;stroke-miterlimit:4;stroke-dasharray:none"
       d="m 5545.0483,2305.2411 -1.5776,52.5874" />
    <path
       id="path4790"
       style="fill:none;stroke:#414141;stroke-width:5;stroke-miterlimit:4;stroke-dasharray:none"
       d="m 5405.2687,2301.0477 -1.5776,52.5874" />
    <path
       id="path4792"
       style="fill:none;stroke:#414141;stroke-width:5;stroke-miterlimit:4;stroke-dasharray:none"
       d="m 5265.4891,2296.8544 -1.5776,52.5873" />
    <path
       id="path4794"
       style="fill:none;stroke:#414141;stroke-width:5;stroke-miterlimit:4;stroke-dasharray:none"
       d="m 5125.7094,2292.661 -1.5776,52.5873" />
    <path
       id="path4796"
       style="fill:none;stroke:#414141;stroke-width:5;stroke-miterlimit:4;stroke-dasharray:none"
       d="m 4985.9245,2288.6512 -1.451,52.591" />
    <path
       id="path4798"
       style="fill:none;stroke:#414141;stroke-width:5;stroke-miterlimit:4;stroke-dasharray:none"
       d="m 4846.1303,2284.9789 -1.3102,52.5947" />
    <path
       id="path4800"
       style="fill:none;stroke:#414141;stroke-width:5;stroke-miterlimit:4;stroke-dasharray:none"
       d="m 4706.3265,2281.6954 -1.1733,52.6164" />
    <path
       id="path4802"
       style="fill:none;stroke:#414141;stroke-width:5;stroke-miterlimit:4;stroke-dasharray:none"
       d="m 4566.5141,2278.796 -1.0356,52.6009" />
    <path
       id="path4804"
       style="fill:none;stroke:#414141;stroke-width:5;stroke-miterlimit:4;stroke-dasharray:none"
       d="m 4426.6943,2276.2809 -0.8982,52.6034" />
    <path
       id="path4806"
       style="fill:none;stroke:#414141;stroke-width:5;stroke-miterlimit:4;stroke-dasharray:none"
       d="m 4706.3265,2281.6954 -1.1733,52.6164" />
    <path
       id="path4808"
       style="fill:none;stroke:#414141;stroke-width:5;stroke-miterlimit:4;stroke-dasharray:none"
       d="m 4566.5141,2278.796 -1.0356,52.6009" />
    <path
       id="path4810"
       style="fill:none;stroke:#414141;stroke-width:5;stroke-miterlimit:4;stroke-dasharray:none"
       d="m 4426.6943,2276.2809 -0.8982,52.6034" />
    <path
       id="path4812"
       style="fill:none;stroke:#414141;stroke-width:5;stroke-miterlimit:4;stroke-dasharray:none"
       d="m 4286.8682,2274.1502 -0.7609,52.6055" />
    <path
       id="path4814"
       style="fill:none;stroke:#414141;stroke-width:5;stroke-miterlimit:4;stroke-dasharray:none"
       d="m 4007.2006,2271.0582 -0.4826,52.6089" />
    <path
       id="path4816"
       style="fill:none;stroke:#414141;stroke-width:5;stroke-miterlimit:4;stroke-dasharray:none"
       d="m 3867.3615,2270.0901 -0.3452,52.6099" />
    <path
       id="path4818"
       style="fill:none;stroke:#414141;stroke-width:5;stroke-miterlimit:4;stroke-dasharray:none"
       d="m 3727.5203,2269.5065 -0.2079,52.6106" />
    <path
       id="path4820"
       style="fill:none;stroke:#414141;stroke-width:5;stroke-miterlimit:4;stroke-dasharray:none"
       d="M 366.47909,4615.9937 H 551.0953" />
    <path
       id="path4822"
       style="fill:none;stroke:#414141;stroke-width:5;stroke-miterlimit:4;stroke-dasharray:none"
       d="M 366.47909,4600.8756 H 556.72561" />
    <path
       id="path4824"
       style="fill:none;stroke:#414141;stroke-width:5;stroke-miterlimit:4;stroke-dasharray:none"
       d="M 366.47909,4585.7575 H 562.35591" />
    <path
       id="path4826"
       style="fill:none;stroke:#414141;stroke-width:5;stroke-miterlimit:4;stroke-dasharray:none"
       d="m 375.51216,4580.5606 v 52.6111" />
    <path
       id="path4828"
       style="fill:none;stroke:#414141;stroke-width:5;stroke-miterlimit:4;stroke-dasharray:none"
       d="m 480.87403,4580.5606 v 52.6111" />
  </g>
  <g
     transform="translate(0.5,-1122.0197)"
     id="g4864">
    <path
       id="path4832"
       style="fill:none;stroke:#0000ff;stroke-width:5;stroke-miterlimit:4;stroke-dasharray:none"
       d="M 5152.4409,2510.6643 H 5052.2835" />
    <path
       id="path4834"
       style="fill:none;stroke:#0000ff;stroke-width:5;stroke-miterlimit:4;stroke-dasharray:none"
       d="M 305.49481,3520.0587 H 450.4107 l -72.45794,-129.8225 z" />
    <path
       id="path4836"
       style="fill:none;stroke:#0000ff;stroke-width:5;stroke-miterlimit:4;stroke-dasharray:none"
       d="M 509.60737,3520.0587 H 246.29814" />
    <path
       id="path4838"
       style="fill:none;stroke:#0000ff;stroke-width:5;stroke-miterlimit:4;stroke-dasharray:none"
       d="m 253.95404,3584.9699 36.22897,-64.9112" />
    <path
       id="path4840"
       style="fill:#ff0000;stroke:none;stroke-width:5;stroke-miterlimit:4;stroke-dasharray:none"
       d="m 465.7225,3520.0587 2.9375,-6.3438 0.8125,1.9063 6.84375,-6.8438 v 0 l 0.6875,0.6875 -6.84375,6.8438 1.90625,0.8125 z" />
    <path
       id="path4842"
       style="fill:#ff0000;stroke:none;stroke-width:5;stroke-miterlimit:4;stroke-dasharray:none"
       d="m 421.83763,3520.0587 2.9375,-6.3438 0.8125,1.9063 6.84375,-6.8438 v 0 l 0.6875,0.6875 -6.84375,6.8438 1.90625,0.8125 z" />
    <path
       id="path4844"
       style="fill:#ff0000;stroke:none;stroke-width:5;stroke-miterlimit:4;stroke-dasharray:none"
       d="m 377.95276,3520.0587 2.9375,-6.3438 0.8125,1.9063 6.84375,-6.8438 v 0 l 0.6875,0.6875 -6.84375,6.8438 1.90625,0.8125 z" />
    <path
       id="path4846"
       style="fill:#ff0000;stroke:none;stroke-width:5;stroke-miterlimit:4;stroke-dasharray:none"
       d="m 334.06788,3520.0587 2.9375,-6.3438 0.8125,1.9063 6.84375,-6.8438 v 0 l 0.6875,0.6875 -6.84375,6.8438 1.90625,0.8125 z" />
    <path
       id="path4848"
       style="fill:#ff0000;stroke:none;stroke-width:5;stroke-miterlimit:4;stroke-dasharray:none"
       d="m 290.18301,3520.0587 2.9375,-6.3438 0.8125,1.9063 6.84375,-6.8438 v 0 l 0.6875,0.6875 -6.84375,6.8438 1.90625,0.8125 z" />
    <path
       id="path4850"
       style="fill:none;stroke:#0000ff;stroke-width:5;stroke-miterlimit:4;stroke-dasharray:none"
       d="m 297.83891,3584.9699 36.22897,-64.9112" />
    <path
       id="path4852"
       style="fill:none;stroke:#0000ff;stroke-width:5;stroke-miterlimit:4;stroke-dasharray:none"
       d="m 341.72378,3584.9699 36.22898,-64.9112" />
    <path
       id="path4854"
       style="fill:none;stroke:#0000ff;stroke-width:5;stroke-miterlimit:4;stroke-dasharray:none"
       d="m 385.60866,3584.9699 36.22897,-64.9112" />
    <path
       id="path4856"
       style="fill:none;stroke:#0000ff;stroke-width:5;stroke-miterlimit:4;stroke-dasharray:none"
       d="m 429.49353,3584.9699 36.22897,-64.9112" />
    <path
       id="path4858"
       style="fill:none;stroke:#0000ff;stroke-width:5;stroke-miterlimit:4;stroke-dasharray:none"
       d="m 478.11024,4875.5906 v 26.4566 H 277.79528 v -26.4566 l 81.25984,-18.8977 v -86.9291 l -21.54331,-18.8977 v -117.6567 h 20.7874 v 98.7591 h 57.44882 v 18.8976 l -18.89764,18.8977 v 86.9291 z" />
    <path
       id="path4860"
       style="fill:none;stroke:#0000ff;stroke-width:5;stroke-miterlimit:4;stroke-dasharray:none"
       d="m 358.29921,4713.0709 h 38.92913 v 18.8976 h -38.92913 z" />
    <path
       id="path4862"
       style="fill:none;stroke:#0000ff;stroke-width:5;stroke-miterlimit:4;stroke-dasharray:none"
       d="m 371.33858,4708.7622 h 13.22835 v 4.3087 h -13.22835 z" />
  </g>
  <g
     transform="translate(0.5,-1122.0197)"
     id="g4896">
    <path
       id="path4866"
       style="fill:none;stroke:#414141;stroke-width:5;stroke-miterlimit:4;stroke-dasharray:none"
       d="M 0,3390.2362 H 50.067748" />
    <path
       id="path4868"
       style="fill:none;stroke:#414141;stroke-width:5;stroke-miterlimit:4;stroke-dasharray:none"
       d="M 0,3340.1685 V 3440.304" />
    <path
       id="path4870"
       style="fill:none;stroke:#414141;stroke-width:5;stroke-miterlimit:4;stroke-dasharray:none"
       d="m 0,1172.5874 v -50.0677 h 50.067748" />
    <path
       id="path4872"
       style="fill:none;stroke:#414141;stroke-width:5;stroke-miterlimit:4;stroke-dasharray:none"
       d="M 0,4146.1417 H 50.067748" />
    <path
       id="path4874"
       style="fill:none;stroke:#414141;stroke-width:5;stroke-miterlimit:4;stroke-dasharray:none"
       d="m 0,4096.074 v 100.1355" />
    <path
       id="path4876"
       style="fill:none;stroke:#414141;stroke-width:5;stroke-miterlimit:4;stroke-dasharray:none"
       d="m 567.01942,4573.2353 -36.00892,96.6888" />
    <path
       id="path4878"
       style="fill:none;stroke:#414141;stroke-width:5;stroke-miterlimit:4;stroke-dasharray:none"
       d="m 531.0105,4669.9241 h 36.00892" />
    <path
       id="path4880"
       style="fill:none;stroke:#414141;stroke-width:5;stroke-miterlimit:4;stroke-dasharray:none"
       d="m 567.01942,4669.9241 -36.00892,96.6887" />
    <path
       id="path4882"
       style="fill:none;stroke:#414141;stroke-width:5;stroke-miterlimit:4;stroke-dasharray:none"
       d="m 0,5027.7275 v 50.0677 h 50.067748" />
    <path
       id="path4884"
       style="fill:none;stroke:#414141;stroke-width:5;stroke-miterlimit:4;stroke-dasharray:none"
       d="m 7181.1024,3390.2362 h -50.0678" />
    <path
       id="path4886"
       style="fill:none;stroke:#414141;stroke-width:5;stroke-miterlimit:4;stroke-dasharray:none"
       d="M 7181.1024,3340.1685 V 3440.304" />
    <path
       id="path4888"
       style="fill:none;stroke:#414141;stroke-width:5;stroke-miterlimit:4;stroke-dasharray:none"
       d="m 7181.1024,1172.5874 v -50.0677 h -50.0678" />
    <path
       id="path4890"
       style="fill:none;stroke:#414141;stroke-width:5;stroke-miterlimit:4;stroke-dasharray:none"
       d="m 7181.1024,4146.1417 h -50.0678" />
    <path
       id="path4892"
       style="fill:none;stroke:#414141;stroke-width:5;stroke-miterlimit:4;stroke-dasharray:none"
       d="m 7181.1024,4096.074 v 100.1355" />
    <path
       id="path4894"
       style="fill:none;stroke:#414141;stroke-width:5;stroke-miterlimit:4;stroke-dasharray:none"
       d="m 7181.1024,5027.7275 v 50.0677 h -50.0678" />
  </g>
  <g
     transform="translate(0.5,-1122.0197)"
     id="g4918">
    <path
       id="path4898"
       style="fill:none;stroke:#ff00ff;stroke-width:5;stroke-miterlimit:4;stroke-dasharray:none"
       d="M 2078.7402,1900.4461 V 4902.0472" />
    <path
       id="path4900"
       style="fill:none;stroke:#ff00ff;stroke-width:5;stroke-miterlimit:4;stroke-dasharray:none"
       d="M 5102.3622,1900.4461 V 4902.0472" />
    <path
       id="path4902"
       style="fill:none;stroke:#ff00ff;stroke-width:5;stroke-miterlimit:4;stroke-dasharray:none"
       d="M 6803.1496,1900.4461 V 4902.0472" />
    <path
       id="path4904"
       style="fill:none;stroke:#ff00ff;stroke-width:5;stroke-miterlimit:4;stroke-dasharray:none"
       d="M 377.95276,1900.4461 V 4902.0472" />
    <path
       id="path4906"
       style="fill:none;stroke:#ff00ff;stroke-width:5;stroke-miterlimit:4;stroke-dasharray:none"
       d="M 377.95276,3390.2362 H 6803.1496" />
    <path
       id="path4908"
       style="fill:none;stroke:#ff00ff;stroke-width:5;stroke-miterlimit:4;stroke-dasharray:none"
       d="M 1228.3465,1900.4461 V 4902.0472" />
    <path
       id="path4910"
       style="fill:none;stroke:#ff00ff;stroke-width:5;stroke-miterlimit:4;stroke-dasharray:none"
       d="M 3590.5512,1900.4461 V 4902.0472" />
    <path
       id="path4912"
       style="fill:none;stroke:#ff00ff;stroke-width:5;stroke-miterlimit:4;stroke-dasharray:none"
       d="M 5952.7559,1900.4461 V 4902.0472" />
    <path
       id="path4914"
       style="fill:none;stroke:#ff00ff;stroke-width:5;stroke-miterlimit:4;stroke-dasharray:none"
       d="M 377.95276,4146.1417 H 6803.1496" />
    <path
       id="path4916"
       style="fill:none;stroke:#ff00ff;stroke-width:5;stroke-miterlimit:4;stroke-dasharray:none"
       d="M 377.95276,4902.0472 H 6803.1496" />
  </g>
  <g
     transform="translate(0.5,-1122.0197)"
     id="g4952">
    <path
       id="path4920"
       style="fill:none;stroke:#0000ff;stroke-width:5;stroke-miterlimit:4;stroke-dasharray:none"
       d="m 483.45141,1794.9475 a 105.49866,105.49866 0 1 0 -210.99731,0 105.49866,105.49866 0 1 0 210.99731,0 z" />
    <text
       id="text4924"
       y="1833.4119"
       x="312.57376"
       style="font-size:76.59999847px;line-height:125%;font-family:Arial;fill:#0000ff;stroke-width:5;stroke-miterlimit:4;stroke-dasharray:none">
      <tspan
         y="1833.4119"
         x="312.57376"
         id="tspan4922">A2</tspan>
    </text>
    <path
       id="path4926"
       style="fill:none;stroke:#0000ff;stroke-width:5;stroke-miterlimit:4;stroke-dasharray:none"
       d="m 2184.2388,1794.9475 a 105.49865,105.49865 0 1 0 -210.9973,0 105.49865,105.49865 0 1 0 210.9973,0 z" />
    <text
       id="text4930"
       y="1833.4119"
       x="2013.2827"
       style="font-size:76.59999847px;line-height:125%;font-family:Arial;fill:#0000ff;stroke-width:5;stroke-miterlimit:4;stroke-dasharray:none">
      <tspan
         y="1833.4119"
         x="2013.2827"
         id="tspan4928">P2</tspan>
    </text>
    <path
       id="path4932"
       style="fill:none;stroke:#0000ff;stroke-width:5;stroke-miterlimit:4;stroke-dasharray:none"
       d="m 5207.8609,1794.9475 a 105.49865,105.49865 0 1 0 -210.9973,0 105.49865,105.49865 0 1 0 210.9973,0 z" />
    <text
       id="text4936"
       y="1833.4119"
       x="5036.9048"
       style="font-size:76.59999847px;line-height:125%;font-family:Arial;fill:#0000ff;stroke-width:5;stroke-miterlimit:4;stroke-dasharray:none">
      <tspan
         y="1833.4119"
         x="5036.9048"
         id="tspan4934">P1</tspan>
    </text>
    <path
       id="path4938"
       style="fill:none;stroke:#0000ff;stroke-width:5;stroke-miterlimit:4;stroke-dasharray:none"
       d="m 6908.6483,1794.9475 a 105.49865,105.49865 0 1 0 -210.9973,0 105.49865,105.49865 0 1 0 210.9973,0 z" />
    <text
       id="text4942"
       y="1833.4119"
       x="6737.7705"
       style="font-size:76.59999847px;line-height:125%;font-family:Arial;fill:#0000ff;stroke-width:5;stroke-miterlimit:4;stroke-dasharray:none">
      <tspan
         y="1833.4119"
         x="6737.7705"
         id="tspan4940">A1</tspan>
    </text>
    <text
       id="text4946"
       y="1383.9028"
       x="874.26471"
       style="font-size:144.80000305px;line-height:125%;font-family:Arial;fill:#0000ff;stroke-width:5;stroke-miterlimit:4;stroke-dasharray:none">
      <tspan
         y="1383.9028"
         x="874.26471"
         id="tspan4944">KUDUS</tspan>
    </text>
    <text
       id="text4950"
       y="1383.9028"
       x="5593.0435"
       style="font-size:144.80000305px;line-height:125%;font-family:Arial;fill:#0000ff;stroke-width:5;stroke-miterlimit:4;stroke-dasharray:none">
      <tspan
         y="1383.9028"
         x="5593.0435"
         id="tspan4948">DEMAK</tspan>
    </text>
  </g>
  <g
     transform="translate(0.5,-1122.0197)"
     id="g4958">
    <path
       id="path4954"
       style="fill:none;stroke:#ff0000;stroke-width:5;stroke-miterlimit:4;stroke-dasharray:none"
       d="M 2237.4803,2703.4202 H 1920 v -60.4724 l 119.0551,-18.8976 v -64.252 h -20.7874 v -49.1339 h 60.4725 60.4724 v 49.1339 h -20.7874 v 64.252 l 119.0551,18.8976 z" />
    <path
       id="path4956"
       style="fill:none;stroke:#ff0000;stroke-width:5;stroke-miterlimit:4;stroke-dasharray:none"
       d="m 2067.4016,2505.2218 h 22.6771 v 5.4425 h -22.6771 z" />
  </g>
  <g
     transform="translate(0.5,-1122.0197)"
     id="g4962">
    <path
       id="path4960"
       style="fill:none;stroke:#ff0000;stroke-width:5;stroke-miterlimit:4;stroke-dasharray:none"
       d="m 5162.8346,2510.6643 h -60.4724 -60.4724 v 49.1339 h 20.7874 v 64.252 l -119.0552,18.8976 v 60.4724 h 317.4804 v -60.4724 l -119.0552,-18.8976 v -64.252 h 20.7874 z" />
  </g>
  <g
     transform="translate(0.5,-1122.0197)"
     id="g4970">
    <path
       id="path4964"
       style="fill:none;stroke:#ff0000;stroke-width:5;stroke-miterlimit:4;stroke-dasharray:none"
       d="m 478.11024,2632.3727 v 26.4567 H 277.79528 v -26.4567 l 81.25984,-18.8976 v -86.9292 l -21.54331,-18.8976 v -117.6567 h 20.7874 v 98.7591 h 57.44882 v 18.8976 l -18.89764,18.8976 v 86.9292 z" />
    <path
       id="path4966"
       style="fill:none;stroke:#ff0000;stroke-width:5;stroke-miterlimit:4;stroke-dasharray:none"
       d="m 358.29921,2469.853 h 38.92913 v 18.8977 h -38.92913 z" />
    <path
       id="path4968"
       style="fill:none;stroke:#ff0000;stroke-width:5;stroke-miterlimit:4;stroke-dasharray:none"
       d="m 371.33858,2465.5444 h 13.22835 v 4.3086 h -13.22835 z" />
  </g>
  <g
     transform="translate(0.5,-1122.0197)"
     id="g4980">
    <path
       id="path4972"
       style="fill:none;stroke:#ff0000;stroke-width:5;stroke-miterlimit:4;stroke-dasharray:none"
       d="m 6809.7638,2469.853 h -13.2284 v -4.3086 h 13.2284 z" />
    <path
       id="path4974"
       style="fill:none;stroke:#ff0000;stroke-width:5;stroke-miterlimit:4;stroke-dasharray:none"
       d="m 6702.9921,2632.3727 v 26.4567 h 200.315 v -26.4567 l -81.2599,-18.8976 v -86.9292 l 21.5434,-18.8976 v -117.6567 h -20.7875 v 98.7591 h -57.4488 v 18.8976 l 18.8977,18.8976 v 86.9292 z" />
    <path
       id="path4976"
       style="fill:none;stroke:#ff0000;stroke-width:5;stroke-miterlimit:4;stroke-dasharray:none"
       d="m 6822.8031,2469.853 h -38.9291 v 18.8977 h 38.9291 z" />
    <path
       id="path4978"
       style="fill:none;stroke:#ff0000;stroke-width:5;stroke-miterlimit:4;stroke-dasharray:none"
       d="m 5091.0236,2505.2218 h 22.6772 v 5.4425 h -22.6772 z" />
  </g>
  <g
     transform="translate(0.5,-1122.0197)"
     id="g5006">
    <path
       id="path4982"
       style="fill:none;stroke:#0000ff;stroke-width:5;stroke-miterlimit:4;stroke-dasharray:none"
       d="m 6730.6917,3520.0587 h 144.9159 l -72.458,-129.8225 z" />
    <path
       id="path4984"
       style="fill:none;stroke:#0000ff;stroke-width:5;stroke-miterlimit:4;stroke-dasharray:none"
       d="M 6934.8042,3520.0587 H 6671.495" />
    <path
       id="path4986"
       style="fill:none;stroke:#0000ff;stroke-width:5;stroke-miterlimit:4;stroke-dasharray:none"
       d="m 6679.1509,3584.9699 36.229,-64.9112" />
    <path
       id="path4988"
       style="fill:#ff0000;stroke:none;stroke-width:5;stroke-miterlimit:4;stroke-dasharray:none"
       d="m 6890.9194,3520.0587 2.9375,-6.3438 0.8125,1.9063 6.8437,-6.8438 v 0 l 0.6875,0.6875 -6.8437,6.8438 1.9062,0.8125 z" />
    <path
       id="path4990"
       style="fill:#ff0000;stroke:none;stroke-width:5;stroke-miterlimit:4;stroke-dasharray:none"
       d="m 6847.0345,3520.0587 2.9375,-6.3438 0.8125,1.9063 6.8437,-6.8438 v 0 l 0.6875,0.6875 -6.8437,6.8438 1.9062,0.8125 z" />
    <path
       id="path4992"
       style="fill:#ff0000;stroke:none;stroke-width:5;stroke-miterlimit:4;stroke-dasharray:none"
       d="m 6803.1496,3520.0587 2.9375,-6.3438 0.8125,1.9063 6.8438,-6.8438 v 0 l 0.6875,0.6875 -6.8438,6.8438 1.9063,0.8125 z" />
    <path
       id="path4994"
       style="fill:#ff0000;stroke:none;stroke-width:5;stroke-miterlimit:4;stroke-dasharray:none"
       d="m 6759.2647,3520.0587 2.9375,-6.3438 0.8125,1.9063 6.8438,-6.8438 v 0 l 0.6875,0.6875 -6.8438,6.8438 1.9063,0.8125 z" />
    <path
       id="path4996"
       style="fill:#ff0000;stroke:none;stroke-width:5;stroke-miterlimit:4;stroke-dasharray:none"
       d="m 6715.3799,3520.0587 2.9375,-6.3438 0.8125,1.9063 6.8437,-6.8438 v 0 l 0.6875,0.6875 -6.8437,6.8438 1.9062,0.8125 z" />
    <path
       id="path4998"
       style="fill:none;stroke:#0000ff;stroke-width:5;stroke-miterlimit:4;stroke-dasharray:none"
       d="m 6723.0358,3584.9699 36.2289,-64.9112" />
    <path
       id="path5000"
       style="fill:none;stroke:#0000ff;stroke-width:5;stroke-miterlimit:4;stroke-dasharray:none"
       d="m 6766.9206,3584.9699 36.229,-64.9112" />
    <path
       id="path5002"
       style="fill:none;stroke:#0000ff;stroke-width:5;stroke-miterlimit:4;stroke-dasharray:none"
       d="m 6810.8055,3584.9699 36.229,-64.9112" />
    <path
       id="path5004"
       style="fill:none;stroke:#0000ff;stroke-width:5;stroke-miterlimit:4;stroke-dasharray:none"
       d="m 6854.6904,3584.9699 36.229,-64.9112" />
  </g>
  <g
     transform="translate(0.5,-1122.0197)"
     id="g5032">
    <path
       id="path5008"
       style="fill:none;stroke:#0000ff;stroke-width:5;stroke-miterlimit:4;stroke-dasharray:none"
       d="m 5029.9043,3425.5705 h 144.9158 l -72.4579,-129.8225 z" />
    <path
       id="path5010"
       style="fill:none;stroke:#0000ff;stroke-width:5;stroke-miterlimit:4;stroke-dasharray:none"
       d="M 5234.0168,3425.5705 H 4970.7076" />
    <path
       id="path5012"
       style="fill:none;stroke:#0000ff;stroke-width:5;stroke-miterlimit:4;stroke-dasharray:none"
       d="m 4978.3635,3490.4818 36.229,-64.9113" />
    <path
       id="path5014"
       style="fill:#ff0000;stroke:none;stroke-width:5;stroke-miterlimit:4;stroke-dasharray:none"
       d="m 5190.132,3425.5705 2.9375,-6.3437 0.8125,1.9062 6.8437,-6.8437 v 0 l 0.6875,0.6875 -6.8437,6.8437 1.9062,0.8125 z" />
    <path
       id="path5016"
       style="fill:#ff0000;stroke:none;stroke-width:5;stroke-miterlimit:4;stroke-dasharray:none"
       d="m 5146.2471,3425.5705 2.9375,-6.3437 0.8125,1.9062 6.8437,-6.8437 v 0 l 0.6875,0.6875 -6.8437,6.8437 1.9062,0.8125 z" />
    <path
       id="path5018"
       style="fill:#ff0000;stroke:none;stroke-width:5;stroke-miterlimit:4;stroke-dasharray:none"
       d="m 5102.3622,3425.5705 2.9375,-6.3437 0.8125,1.9062 6.8438,-6.8437 v 0 l 0.6875,0.6875 -6.8438,6.8437 1.9063,0.8125 z" />
    <path
       id="path5020"
       style="fill:#ff0000;stroke:none;stroke-width:5;stroke-miterlimit:4;stroke-dasharray:none"
       d="m 5058.4773,3425.5705 2.9375,-6.3437 0.8125,1.9062 6.8438,-6.8437 v 0 l 0.6875,0.6875 -6.8438,6.8437 1.9063,0.8125 z" />
    <path
       id="path5022"
       style="fill:#ff0000;stroke:none;stroke-width:5;stroke-miterlimit:4;stroke-dasharray:none"
       d="m 5014.5925,3425.5705 2.9375,-6.3437 0.8125,1.9062 6.8437,-6.8437 v 0 l 0.6875,0.6875 -6.8437,6.8437 1.9062,0.8125 z" />
    <path
       id="path5024"
       style="fill:none;stroke:#0000ff;stroke-width:5;stroke-miterlimit:4;stroke-dasharray:none"
       d="m 5022.2484,3490.4818 36.2289,-64.9113" />
    <path
       id="path5026"
       style="fill:none;stroke:#0000ff;stroke-width:5;stroke-miterlimit:4;stroke-dasharray:none"
       d="m 5066.1332,3490.4818 36.229,-64.9113" />
    <path
       id="path5028"
       style="fill:none;stroke:#0000ff;stroke-width:5;stroke-miterlimit:4;stroke-dasharray:none"
       d="m 5110.0181,3490.4818 36.229,-64.9113" />
    <path
       id="path5030"
       style="fill:none;stroke:#0000ff;stroke-width:5;stroke-miterlimit:4;stroke-dasharray:none"
       d="m 5153.903,3490.4818 36.229,-64.9113" />
  </g>
  <g
     transform="translate(0.5,-1122.0197)"
     id="g5058">
    <path
       id="path5034"
       style="fill:none;stroke:#0000ff;stroke-width:5;stroke-miterlimit:4;stroke-dasharray:none"
       d="m 2006.2822,3425.5705 h 144.9159 l -72.4579,-129.8225 z" />
    <path
       id="path5036"
       style="fill:none;stroke:#0000ff;stroke-width:5;stroke-miterlimit:4;stroke-dasharray:none"
       d="M 2210.3948,3425.5705 H 1947.0855" />
    <path
       id="path5038"
       style="fill:none;stroke:#0000ff;stroke-width:5;stroke-miterlimit:4;stroke-dasharray:none"
       d="m 1954.7414,3490.4818 36.229,-64.9113" />
    <path
       id="path5050"
       style="fill:none;stroke:#0000ff;stroke-width:5;stroke-miterlimit:4;stroke-dasharray:none"
       d="m 1998.6263,3490.4818 36.229,-64.9113" />
    <path
       id="path5052"
       style="fill:none;stroke:#0000ff;stroke-width:5;stroke-miterlimit:4;stroke-dasharray:none"
       d="m 2042.5112,3490.4818 36.229,-64.9113" />
    <path
       id="path5054"
       style="fill:none;stroke:#0000ff;stroke-width:5;stroke-miterlimit:4;stroke-dasharray:none"
       d="m 2086.3961,3490.4818 36.2289,-64.9113" />
    <path
       id="path5056"
       style="fill:none;stroke:#0000ff;stroke-width:5;stroke-miterlimit:4;stroke-dasharray:none"
       d="m 2130.2809,3490.4818 36.229,-64.9113" />
  </g>
  <g
     transform="translate(0.5,-1122.0197)"
     id="g5062">
    <path
       id="path5060"
       style="fill:none;stroke:#ff0000;stroke-width:5;stroke-miterlimit:4;stroke-dasharray:none"
       d="m 431.76573,3706.3874 c 566.69755,-35.7958 1133.39517,-71.5916 1700.78747,-94.4882 1007.1443,-40.6424 2016.4776,-40.6424 3023.622,0 567.3923,22.8966 1134.0899,58.6924 1700.7874,94.4882" />
  </g>
  <g
     transform="translate(0.5,-1122.0197)"
     id="g5066">
    <path
       id="path5064"
       style="fill:none;stroke:#0000ff;stroke-width:5;stroke-miterlimit:4;stroke-dasharray:none"
       d="m 377.95276,4271.1117 c 566.69755,-35.7958 1133.39514,-71.5916 1700.78744,-94.4882 1007.1443,-40.6424 2016.4776,-40.6424 3023.622,0 567.3923,22.8966 1134.0899,58.6924 1700.7874,94.4882" />
  </g>
  <g
     transform="translate(0.5,-1122.0197)"
     id="g5070">
    <path
       id="path5068"
       style="fill:none;stroke:#0000ff;stroke-width:5;stroke-miterlimit:4;stroke-dasharray:none"
       d="m 1268.9072,3338.14 a 40.560751,40.560751 0 1 0 -81.1215,0 40.560751,40.560751 0 1 0 81.1215,0 z" />
  </g>
  <g
     transform="translate(0.5,-1122.0197)"
     id="g5074">
    <path
       id="path5072"
       style="fill:none;stroke:#0000ff;stroke-width:5;stroke-miterlimit:4;stroke-dasharray:none"
       d="m 3631.1119,3265.2662 a 40.560751,40.560751 0 1 0 -81.1215,0 40.560751,40.560751 0 1 0 81.1215,0 z" />
  </g>
  <g
     transform="translate(0.5,-1122.0197)"
     id="g5078">
    <path
       id="path5076"
       style="fill:none;stroke:#0000ff;stroke-width:5;stroke-miterlimit:4;stroke-dasharray:none"
       d="m 5993.3167,3338.14 a 40.560752,40.560752 0 1 0 -81.1215,0 40.560752,40.560752 0 1 0 81.1215,0 z" />
  </g>
  <g
     transform="translate(0.5,-1122.0197)"
     id="g5080" />
</svg>
