<?xml version="1.0" encoding="utf-8"?>
<!-- Generator: Adobe Illustrator 19.0.0, SVG Export Plug-In . SVG Version: 6.00 Build 0)  -->
<svg version="1.1" xmlns="http://www.w3.org/2000/svg" xmlns:xlink="http://www.w3.org/1999/xlink" x="0px" y="0px"
	 viewBox="0 0 184.97 100.71" enable-background="new 0 0 184.97 100.71" xml:space="preserve">
<g id="rail">
	<g id="LWPOLYLINE">
		
			<polyline fill="none" stroke="#808080" stroke-width="0.4252" stroke-linecap="round" stroke-linejoin="round" stroke-miterlimit="10" points="
			7.18,33.43 12.47,33.43 15.46,33.34 15.96,33.33 19.46,33.22 22.96,33.12 24.46,33.07 26.46,33.01 29.96,32.91 33.46,32.8 
			36.46,32.71 40.46,32.59 43.96,32.49 47.46,32.38 48.46,32.35 50.96,32.28 51.71,32.26 52.46,32.23 53.21,32.21 53.96,32.19 
			57.47,32.09 60.47,32.02 60.97,32.01 64.47,31.93 67.97,31.86 71.47,31.8 72.47,31.79 74.97,31.75 78.48,31.71 81.98,31.68 
			84.47,31.66 85.48,31.65 88.98,31.64 92.48,31.63 95.99,31.64 99.49,31.65 100.48,31.66 102.99,31.68 106.49,31.71 109.99,31.75 
			112.49,31.79 113.5,31.8 117,31.86 120.5,31.93 124.51,32.02 127.5,32.09 131,32.19 131.75,32.21 132.51,32.23 133.25,32.26 
			134.01,32.28 136.5,32.35 137.51,32.38 141.01,32.49 144.51,32.59 148.5,32.71 151.51,32.8 155.01,32.91 158.51,33.01 
			160.5,33.07 162.01,33.12 165.51,33.22 169.01,33.33 169.5,33.34 172.49,33.43 177.78,33.43 		"/>
	</g>
	<g id="LWPOLYLINE_1_">
		
			<polyline fill="none" stroke="#808080" stroke-width="0.4252" stroke-linecap="round" stroke-linejoin="round" stroke-miterlimit="10" points="
			7.18,33.03 12.47,33.03 15.45,32.94 15.95,32.93 19.45,32.82 22.95,32.72 24.45,32.67 26.45,32.61 29.95,32.51 33.45,32.4 
			36.45,32.31 40.45,32.19 43.95,32.09 47.45,31.98 48.45,31.95 50.95,31.88 51.7,31.86 52.45,31.83 53.2,31.81 53.95,31.79 
			57.46,31.69 60.46,31.62 60.96,31.61 64.46,31.53 67.96,31.46 71.47,31.4 72.46,31.39 74.97,31.35 78.47,31.31 81.98,31.28 
			84.47,31.26 85.48,31.25 88.98,31.24 92.48,31.23 95.99,31.24 99.49,31.25 100.49,31.26 102.99,31.28 106.5,31.31 110,31.35 
			112.5,31.39 113.5,31.4 117,31.46 120.51,31.53 124.52,31.62 127.51,31.69 131.02,31.79 131.76,31.81 132.52,31.83 133.26,31.86 
			134.02,31.88 136.51,31.95 137.52,31.98 141.02,32.09 144.52,32.19 148.51,32.31 151.52,32.4 155.02,32.51 158.52,32.61 
			160.51,32.67 162.02,32.72 165.52,32.82 169.02,32.93 169.51,32.94 172.5,33.03 177.78,33.03 		"/>
	</g>
	<g id="LWPOLYLINE_2_">
		
			<polyline fill="none" stroke="#808080" stroke-width="0.4252" stroke-linecap="round" stroke-linejoin="round" stroke-miterlimit="10" points="
			7.18,32.63 12.46,32.63 15.43,32.54 15.94,32.53 19.44,32.42 22.94,32.32 24.43,32.27 26.44,32.21 29.94,32.11 33.44,32 
			36.43,31.91 40.44,31.79 43.94,31.69 47.44,31.58 48.43,31.55 50.94,31.48 51.68,31.46 52.44,31.43 53.19,31.41 53.94,31.39 
			57.44,31.29 60.45,31.22 60.95,31.21 64.45,31.13 67.96,31.06 71.46,31 72.46,30.99 74.96,30.95 78.47,30.91 81.97,30.88 
			84.47,30.86 85.48,30.85 88.98,30.84 92.48,30.83 95.99,30.84 99.49,30.85 100.49,30.86 103,30.88 106.5,30.91 110,30.95 
			112.5,30.99 113.51,31 117.01,31.06 120.52,31.13 124.53,31.22 127.52,31.29 131.03,31.39 131.77,31.41 132.53,31.43 
			133.27,31.46 134.03,31.48 136.52,31.55 137.53,31.58 141.03,31.69 144.53,31.79 148.52,31.91 151.53,32 155.03,32.11 
			158.53,32.21 160.52,32.27 162.03,32.32 165.53,32.42 169.03,32.53 169.52,32.54 172.51,32.63 177.78,32.63 		"/>
	</g>
	<g id="LINE_15_">
		
			<line fill="none" stroke="#808080" stroke-width="0.4252" stroke-linecap="round" stroke-linejoin="round" stroke-miterlimit="10" x1="7.42" y1="32.5" x2="7.42" y2="33.89"/>
	</g>
	<g id="LINE_16_">
		
			<line fill="none" stroke="#808080" stroke-width="0.4252" stroke-linecap="round" stroke-linejoin="round" stroke-miterlimit="10" x1="10.21" y1="32.5" x2="10.21" y2="33.89"/>
	</g>
	<g id="LINE_17_">
		
			<line fill="none" stroke="#808080" stroke-width="0.4252" stroke-linecap="round" stroke-linejoin="round" stroke-miterlimit="10" x1="13.03" y1="32.46" x2="13.08" y2="33.87"/>
	</g>
	<g id="LINE_18_">
		
			<line fill="none" stroke="#808080" stroke-width="0.4252" stroke-linecap="round" stroke-linejoin="round" stroke-miterlimit="10" x1="18.58" y1="32.31" x2="18.62" y2="33.7"/>
	</g>
	<g id="LINE_19_">
		
			<line fill="none" stroke="#808080" stroke-width="0.4252" stroke-linecap="round" stroke-linejoin="round" stroke-miterlimit="10" x1="22.28" y1="32.2" x2="22.32" y2="33.59"/>
	</g>
	<g id="LINE_20_">
		
			<line fill="none" stroke="#808080" stroke-width="0.4252" stroke-linecap="round" stroke-linejoin="round" stroke-miterlimit="10" x1="25.98" y1="32.09" x2="26.02" y2="33.48"/>
	</g>
	<g id="LINE_21_">
		
			<line fill="none" stroke="#808080" stroke-width="0.4252" stroke-linecap="round" stroke-linejoin="round" stroke-miterlimit="10" x1="29.68" y1="31.98" x2="29.72" y2="33.37"/>
	</g>
	<g id="LINE_22_">
		
			<line fill="none" stroke="#808080" stroke-width="0.4252" stroke-linecap="round" stroke-linejoin="round" stroke-miterlimit="10" x1="33.37" y1="31.87" x2="33.42" y2="33.26"/>
	</g>
	<g id="LINE_23_">
		
			<line fill="none" stroke="#808080" stroke-width="0.4252" stroke-linecap="round" stroke-linejoin="round" stroke-miterlimit="10" x1="37.07" y1="31.76" x2="37.11" y2="33.15"/>
	</g>
	<g id="LINE_24_">
		
			<line fill="none" stroke="#808080" stroke-width="0.4252" stroke-linecap="round" stroke-linejoin="round" stroke-miterlimit="10" x1="40.77" y1="31.65" x2="40.81" y2="33.04"/>
	</g>
	<g id="LINE_25_">
		
			<line fill="none" stroke="#808080" stroke-width="0.4252" stroke-linecap="round" stroke-linejoin="round" stroke-miterlimit="10" x1="44.47" y1="31.54" x2="44.51" y2="32.93"/>
	</g>
	<g id="LINE_26_">
		
			<line fill="none" stroke="#808080" stroke-width="0.4252" stroke-linecap="round" stroke-linejoin="round" stroke-miterlimit="10" x1="48.17" y1="31.43" x2="48.21" y2="32.82"/>
	</g>
	<g id="LINE_27_">
		
			<line fill="none" stroke="#808080" stroke-width="0.4252" stroke-linecap="round" stroke-linejoin="round" stroke-miterlimit="10" x1="51.87" y1="31.31" x2="51.91" y2="32.71"/>
	</g>
	<g id="LINE_28_">
		
			<line fill="none" stroke="#808080" stroke-width="0.4252" stroke-linecap="round" stroke-linejoin="round" stroke-miterlimit="10" x1="55.57" y1="31.21" x2="55.6" y2="32.6"/>
	</g>
	<g id="LINE_29_">
		
			<line fill="none" stroke="#808080" stroke-width="0.4252" stroke-linecap="round" stroke-linejoin="round" stroke-miterlimit="10" x1="59.26" y1="31.11" x2="59.3" y2="32.5"/>
	</g>
	<g id="LINE_30_">
		
			<line fill="none" stroke="#808080" stroke-width="0.4252" stroke-linecap="round" stroke-linejoin="round" stroke-miterlimit="10" x1="62.96" y1="31.02" x2="62.99" y2="32.42"/>
	</g>
	<g id="LINE_31_">
		
			<line fill="none" stroke="#808080" stroke-width="0.4252" stroke-linecap="round" stroke-linejoin="round" stroke-miterlimit="10" x1="66.66" y1="30.95" x2="66.69" y2="32.34"/>
	</g>
	<g id="LINE_32_">
		
			<line fill="none" stroke="#808080" stroke-width="0.4252" stroke-linecap="round" stroke-linejoin="round" stroke-miterlimit="10" x1="70.36" y1="30.88" x2="70.39" y2="32.27"/>
	</g>
	<g id="LINE_33_">
		
			<line fill="none" stroke="#808080" stroke-width="0.4252" stroke-linecap="round" stroke-linejoin="round" stroke-miterlimit="10" x1="74.06" y1="30.82" x2="74.08" y2="32.22"/>
	</g>
	<g id="LINE_34_">
		
			<line fill="none" stroke="#808080" stroke-width="0.4252" stroke-linecap="round" stroke-linejoin="round" stroke-miterlimit="10" x1="77.76" y1="30.78" x2="77.78" y2="32.17"/>
	</g>
	<g id="LINE_35_">
		
			<line fill="none" stroke="#808080" stroke-width="0.4252" stroke-linecap="round" stroke-linejoin="round" stroke-miterlimit="10" x1="81.46" y1="30.74" x2="81.47" y2="32.13"/>
	</g>
	<g id="LINE_36_">
		
			<line fill="none" stroke="#808080" stroke-width="0.4252" stroke-linecap="round" stroke-linejoin="round" stroke-miterlimit="10" x1="85.16" y1="30.72" x2="85.17" y2="32.11"/>
	</g>
	<g id="LINE_37_">
		
			<line fill="none" stroke="#808080" stroke-width="0.4252" stroke-linecap="round" stroke-linejoin="round" stroke-miterlimit="10" x1="88.86" y1="30.7" x2="88.87" y2="32.09"/>
	</g>
	<g id="LINE_38_">
		
			<line fill="none" stroke="#808080" stroke-width="0.4252" stroke-linecap="round" stroke-linejoin="round" stroke-miterlimit="10" x1="92.48" y1="30.7" x2="92.48" y2="32.09"/>
	</g>
	<g id="LINE_39_">
		
			<line fill="none" stroke="#808080" stroke-width="0.4252" stroke-linecap="round" stroke-linejoin="round" stroke-miterlimit="10" x1="177.55" y1="32.5" x2="177.55" y2="33.89"/>
	</g>
	<g id="LINE_40_">
		
			<line fill="none" stroke="#808080" stroke-width="0.4252" stroke-linecap="round" stroke-linejoin="round" stroke-miterlimit="10" x1="174.76" y1="32.5" x2="174.76" y2="33.89"/>
	</g>
	<g id="LINE_41_">
		
			<line fill="none" stroke="#808080" stroke-width="0.4252" stroke-linecap="round" stroke-linejoin="round" stroke-miterlimit="10" x1="166.39" y1="32.31" x2="166.35" y2="33.7"/>
	</g>
	<g id="LINE_42_">
		
			<line fill="none" stroke="#808080" stroke-width="0.4252" stroke-linecap="round" stroke-linejoin="round" stroke-miterlimit="10" x1="162.69" y1="32.2" x2="162.65" y2="33.59"/>
	</g>
	<g id="LINE_43_">
		
			<line fill="none" stroke="#808080" stroke-width="0.4252" stroke-linecap="round" stroke-linejoin="round" stroke-miterlimit="10" x1="158.99" y1="32.09" x2="158.95" y2="33.48"/>
	</g>
	<g id="LINE_44_">
		
			<line fill="none" stroke="#808080" stroke-width="0.4252" stroke-linecap="round" stroke-linejoin="round" stroke-miterlimit="10" x1="155.29" y1="31.98" x2="155.25" y2="33.37"/>
	</g>
	<g id="LINE_45_">
		
			<line fill="none" stroke="#808080" stroke-width="0.4252" stroke-linecap="round" stroke-linejoin="round" stroke-miterlimit="10" x1="151.59" y1="31.87" x2="151.55" y2="33.26"/>
	</g>
	<g id="LINE_46_">
		
			<line fill="none" stroke="#808080" stroke-width="0.4252" stroke-linecap="round" stroke-linejoin="round" stroke-miterlimit="10" x1="147.9" y1="31.76" x2="147.85" y2="33.15"/>
	</g>
	<g id="LINE_47_">
		
			<line fill="none" stroke="#808080" stroke-width="0.4252" stroke-linecap="round" stroke-linejoin="round" stroke-miterlimit="10" x1="144.2" y1="31.65" x2="144.16" y2="33.04"/>
	</g>
	<g id="LINE_48_">
		
			<line fill="none" stroke="#808080" stroke-width="0.4252" stroke-linecap="round" stroke-linejoin="round" stroke-miterlimit="10" x1="140.5" y1="31.54" x2="140.46" y2="32.93"/>
	</g>
	<g id="LINE_49_">
		
			<line fill="none" stroke="#808080" stroke-width="0.4252" stroke-linecap="round" stroke-linejoin="round" stroke-miterlimit="10" x1="136.8" y1="31.43" x2="136.76" y2="32.82"/>
	</g>
	<g id="LINE_50_">
		
			<line fill="none" stroke="#808080" stroke-width="0.4252" stroke-linecap="round" stroke-linejoin="round" stroke-miterlimit="10" x1="133.1" y1="31.31" x2="133.06" y2="32.71"/>
	</g>
	<g id="LINE_51_">
		
			<line fill="none" stroke="#808080" stroke-width="0.4252" stroke-linecap="round" stroke-linejoin="round" stroke-miterlimit="10" x1="129.4" y1="31.21" x2="129.37" y2="32.6"/>
	</g>
	<g id="LINE_52_">
		
			<line fill="none" stroke="#808080" stroke-width="0.4252" stroke-linecap="round" stroke-linejoin="round" stroke-miterlimit="10" x1="125.7" y1="31.11" x2="125.67" y2="32.5"/>
	</g>
	<g id="LINE_53_">
		
			<line fill="none" stroke="#808080" stroke-width="0.4252" stroke-linecap="round" stroke-linejoin="round" stroke-miterlimit="10" x1="122.01" y1="31.02" x2="121.97" y2="32.42"/>
	</g>
	<g id="LINE_54_">
		
			<line fill="none" stroke="#808080" stroke-width="0.4252" stroke-linecap="round" stroke-linejoin="round" stroke-miterlimit="10" x1="118.31" y1="30.95" x2="118.28" y2="32.34"/>
	</g>
	<g id="LINE_55_">
		
			<line fill="none" stroke="#808080" stroke-width="0.4252" stroke-linecap="round" stroke-linejoin="round" stroke-miterlimit="10" x1="114.61" y1="30.88" x2="114.58" y2="32.27"/>
	</g>
	<g id="LINE_56_">
		
			<line fill="none" stroke="#808080" stroke-width="0.4252" stroke-linecap="round" stroke-linejoin="round" stroke-miterlimit="10" x1="122.01" y1="31.02" x2="121.97" y2="32.42"/>
	</g>
	<g id="LINE_57_">
		
			<line fill="none" stroke="#808080" stroke-width="0.4252" stroke-linecap="round" stroke-linejoin="round" stroke-miterlimit="10" x1="118.31" y1="30.95" x2="118.28" y2="32.34"/>
	</g>
	<g id="LINE_58_">
		
			<line fill="none" stroke="#808080" stroke-width="0.4252" stroke-linecap="round" stroke-linejoin="round" stroke-miterlimit="10" x1="114.61" y1="30.88" x2="114.58" y2="32.27"/>
	</g>
	<g id="LINE_59_">
		
			<line fill="none" stroke="#808080" stroke-width="0.4252" stroke-linecap="round" stroke-linejoin="round" stroke-miterlimit="10" x1="110.91" y1="30.82" x2="110.89" y2="32.22"/>
	</g>
	<g id="LINE_60_">
		
			<line fill="none" stroke="#808080" stroke-width="0.4252" stroke-linecap="round" stroke-linejoin="round" stroke-miterlimit="10" x1="103.51" y1="30.74" x2="103.5" y2="32.13"/>
	</g>
	<g id="LINE_61_">
		
			<line fill="none" stroke="#808080" stroke-width="0.4252" stroke-linecap="round" stroke-linejoin="round" stroke-miterlimit="10" x1="99.81" y1="30.72" x2="99.8" y2="32.11"/>
	</g>
	<g id="LINE_62_">
		
			<line fill="none" stroke="#808080" stroke-width="0.4252" stroke-linecap="round" stroke-linejoin="round" stroke-miterlimit="10" x1="96.11" y1="30.7" x2="96.1" y2="32.09"/>
	</g>
</g>
<g id="tumpuan">
	<g id="LINE">
		
			<line fill="none" stroke="#000000" stroke-width="0.7087" stroke-linecap="round" stroke-linejoin="round" stroke-miterlimit="10" x1="133.81" y1="37.08" x2="131.16" y2="37.08"/>
	</g>
	<g id="LWPOLYLINE_4_">
		
			<polygon fill="none" stroke="#FF7F00" stroke-width="0.7087" stroke-linecap="round" stroke-linejoin="round" stroke-miterlimit="10" points="
			10.13,40.3 10.13,41 4.83,41 4.83,40.3 6.98,39.8 6.98,37.5 6.41,37 6.41,33.89 6.96,33.89 6.96,36.5 8.48,36.5 8.48,37 
			7.98,37.5 7.98,39.8 		"/>
	</g>
	<g id="LWPOLYLINE_5_">
		
			<rect x="6.96" y="36" fill="none" stroke="#FF7F00" stroke-width="0.7087" stroke-linecap="round" stroke-linejoin="round" stroke-miterlimit="10" width="1.03" height="0.5"/>
	</g>
	<g id="LWPOLYLINE_6_">
		
			<rect x="177.31" y="35.89" fill="none" stroke="#FF7F00" stroke-width="0.7087" stroke-linecap="round" stroke-linejoin="round" stroke-miterlimit="10" width="0.35" height="0.11"/>
	</g>
	<g id="LWPOLYLINE_7_">
		
			<polygon fill="none" stroke="#FF7F00" stroke-width="0.7087" stroke-linecap="round" stroke-linejoin="round" stroke-miterlimit="10" points="
			174.83,40.3 174.83,41 180.13,41 180.13,40.3 177.98,39.8 177.98,37.5 178.55,37 178.55,33.89 178,33.89 178,36.5 176.48,36.5 
			176.48,37 176.98,37.5 176.98,39.8 		"/>
	</g>
	<g id="LWPOLYLINE_8_">
		
			<rect x="176.97" y="36" fill="none" stroke="#FF7F00" stroke-width="0.7087" stroke-linecap="round" stroke-linejoin="round" stroke-miterlimit="10" width="1.03" height="0.5"/>
	</g>
	<g id="LWPOLYLINE_9_">
		
			<polygon fill="none" stroke="#FF7F00" stroke-width="0.7087" stroke-linecap="round" stroke-linejoin="round" stroke-miterlimit="10" points="
			56.68,42.18 48.28,42.18 48.28,40.58 51.43,40.08 51.43,38.38 50.88,38.38 50.88,37.08 52.48,37.08 54.08,37.08 54.08,38.38 
			53.53,38.38 53.53,40.08 56.68,40.58 		"/>
	</g>
	<g id="LWPOLYLINE_10_">
		
			<polygon fill="none" stroke="#FF7F00" stroke-width="0.7087" stroke-linecap="round" stroke-linejoin="round" stroke-miterlimit="10" points="
			134.08,37.08 132.48,37.08 130.88,37.08 130.88,38.38 131.43,38.38 131.43,40.08 128.28,40.58 128.28,42.18 136.68,42.18 
			136.68,40.58 133.53,40.08 133.53,38.38 134.08,38.38 		"/>
	</g>
	<g id="LWPOLYLINE_11_">
		
			<rect x="132.18" y="36.94" fill="none" stroke="#FF7F00" stroke-width="0.7087" stroke-linecap="round" stroke-linejoin="round" stroke-miterlimit="10" width="0.6" height="0.14"/>
	</g>
	<g id="LWPOLYLINE_12_">
		
			<rect x="7.31" y="35.89" fill="none" stroke="#FF7F00" stroke-width="0.7087" stroke-linecap="round" stroke-linejoin="round" stroke-miterlimit="10" width="0.35" height="0.11"/>
	</g>
	<g id="LWPOLYLINE_13_">
		
			<rect x="52.18" y="36.94" fill="none" stroke="#FF7F00" stroke-width="0.7087" stroke-linecap="round" stroke-linejoin="round" stroke-miterlimit="10" width="0.6" height="0.14"/>
	</g>
</g>
<g id="girder">
	<g id="LINE_1_">
		
			<line fill="none" stroke="#FF0000" stroke-width="0.7087" stroke-linecap="round" stroke-linejoin="round" stroke-miterlimit="10" x1="15.48" y1="33.8" x2="15.48" y2="35.89"/>
	</g>
	<g id="LINE_2_">
		
			<line fill="none" stroke="#FF0000" stroke-width="0.7087" stroke-linecap="round" stroke-linejoin="round" stroke-miterlimit="10" x1="24.48" y1="33.53" x2="24.48" y2="35.99"/>
	</g>
	<g id="LINE_3_">
		
			<line fill="none" stroke="#FF0000" stroke-width="0.7087" stroke-linecap="round" stroke-linejoin="round" stroke-miterlimit="10" x1="36.48" y1="33.17" x2="36.48" y2="36.28"/>
	</g>
	<g id="LINE_4_">
		
			<line fill="none" stroke="#FF0000" stroke-width="0.7087" stroke-linecap="round" stroke-linejoin="round" stroke-miterlimit="10" x1="48.48" y1="32.81" x2="48.48" y2="36.77"/>
	</g>
	<g id="LINE_5_">
		
			<line fill="none" stroke="#FF0000" stroke-width="0.7087" stroke-linecap="round" stroke-linejoin="round" stroke-miterlimit="10" x1="60.48" y1="32.47" x2="60.48" y2="35.98"/>
	</g>
	<g id="LINE_6_">
		
			<line fill="none" stroke="#FF0000" stroke-width="0.7087" stroke-linecap="round" stroke-linejoin="round" stroke-miterlimit="10" x1="72.48" y1="32.24" x2="72.48" y2="34.82"/>
	</g>
	<g id="LINE_7_">
		
			<line fill="none" stroke="#FF0000" stroke-width="0.7087" stroke-linecap="round" stroke-linejoin="round" stroke-miterlimit="10" x1="84.48" y1="32.11" x2="84.48" y2="34.2"/>
	</g>
	<g id="LINE_8_">
		
			<line fill="none" stroke="#FF0000" stroke-width="0.7087" stroke-linecap="round" stroke-linejoin="round" stroke-miterlimit="10" x1="100.48" y1="32.11" x2="100.48" y2="34.2"/>
	</g>
	<g id="LINE_9_">
		
			<line fill="none" stroke="#FF0000" stroke-width="0.7087" stroke-linecap="round" stroke-linejoin="round" stroke-miterlimit="10" x1="112.48" y1="32.24" x2="112.48" y2="34.82"/>
	</g>
	<g id="LINE_10_">
		
			<line fill="none" stroke="#FF0000" stroke-width="0.7087" stroke-linecap="round" stroke-linejoin="round" stroke-miterlimit="10" x1="124.48" y1="32.47" x2="124.48" y2="35.98"/>
	</g>
	<g id="LINE_11_">
		
			<line fill="none" stroke="#FF0000" stroke-width="0.7087" stroke-linecap="round" stroke-linejoin="round" stroke-miterlimit="10" x1="136.48" y1="32.81" x2="136.48" y2="36.77"/>
	</g>
	<g id="LINE_12_">
		
			<line fill="none" stroke="#FF0000" stroke-width="0.7087" stroke-linecap="round" stroke-linejoin="round" stroke-miterlimit="10" x1="148.48" y1="33.17" x2="148.48" y2="36.28"/>
	</g>
	<g id="LINE_13_">
		
			<line fill="none" stroke="#FF0000" stroke-width="0.7087" stroke-linecap="round" stroke-linejoin="round" stroke-miterlimit="10" x1="160.48" y1="33.53" x2="160.48" y2="35.99"/>
	</g>
	<g id="LINE_14_">
		
			<line fill="none" stroke="#FF0000" stroke-width="0.7087" stroke-linecap="round" stroke-linejoin="round" stroke-miterlimit="10" x1="169.48" y1="33.8" x2="169.48" y2="35.89"/>
	</g>
	<g id="LWPOLYLINE_3_">
		
			<path fill="none" stroke="#FF0000" stroke-width="0.7087" stroke-linecap="round" stroke-linejoin="round" stroke-miterlimit="10" d="
			M177.89,33.89h-5.4l-3-0.09l-0.5-0.01l-3.5-0.1l-3.5-0.1l-1.5-0.05l-2-0.06l-3.5-0.1l-3.5-0.11l-3-0.09l-4-0.12l-3.5-0.1l-3.5-0.1
			l-1-0.03l-2.5-0.07l-0.75-0.02l-0.75-0.02l-0.76-0.02l-0.75-0.02l-3.5-0.1l-2.99-0.07l-4.01-0.09l-3.5-0.07l-3.5-0.06l-1-0.01
			l-2.5-0.04l-3.5-0.04l-3.5-0.03l-2.5-0.02l-1-0.01l-3.5-0.01l-3.5,0l-3.5,0l-3.5,0.01l-1,0.01l-2.5,0.02l-3.5,0.03l-3.5,0.04
			l-2.5,0.04l-1,0.01l-3.5,0.06l-3.5,0.07l-3.5,0.08l-0.49,0.01l-3.01,0.07l-3.5,0.1l-0.76,0.02l-0.75,0.02l-0.76,0.02l-0.74,0.02
			l-2.51,0.08l-0.99,0.03l-3.5,0.1l-3.5,0.1l-4.01,0.12l-2.99,0.09l-3.5,0.11l-3.5,0.1l-2,0.06l-1.5,0.04l-3.5,0.1l-3.5,0.1
			l-0.51,0.02l-2.99,0.09H7.08v2h5.41c1,0,2,0,3,0.01c3,0.01,6,0.04,9,0.09c4,0.07,8,0.16,12,0.29c4,0.13,8,0.3,12,0.49
			c1.08,0.05,2.17,0.11,3.25,0.17h1.5c2.41-0.35,4.83-0.67,7.25-0.96c3.99-0.47,7.99-0.86,12-1.16c3.99-0.3,8-0.5,12-0.62
			c2.67-0.08,5.33-0.12,8-0.12c2.67,0,5.33,0.04,8,0.12c4,0.12,8.01,0.32,12,0.62c4.01,0.3,8.01,0.68,12,1.15
			c2.42,0.29,4.84,0.61,7.25,0.96h1.5c1.08-0.06,2.17-0.11,3.25-0.17c4-0.2,8-0.36,12-0.49c4-0.13,8-0.23,12-0.29
			c3-0.05,6-0.08,9-0.09c1,0,2-0.01,3-0.01h5.41V33.89z"/>
	</g>
</g>
<g id="construction_x5F_line">
	<g id="LINE_63_">
		
			<line fill="none" stroke="#FF00FF" stroke-width="0.7087" stroke-linecap="round" stroke-linejoin="round" stroke-miterlimit="10" stroke-dasharray="0.5,0.25" x1="52.48" y1="20.94" x2="52.48" y2="100.35"/>
	</g>
	<g id="LINE_64_">
		
			<line fill="none" stroke="#FF00FF" stroke-width="0.7087" stroke-linecap="round" stroke-linejoin="round" stroke-miterlimit="10" stroke-dasharray="0.5,0.25" x1="132.48" y1="20.94" x2="132.48" y2="100.35"/>
	</g>
	<g id="LINE_65_">
		
			<line fill="none" stroke="#FF00FF" stroke-width="0.7087" stroke-linecap="round" stroke-linejoin="round" stroke-miterlimit="10" stroke-dasharray="0.5,0.25" x1="177.48" y1="20.94" x2="177.48" y2="100.35"/>
	</g>
	<g id="LINE_66_">
		
			<line fill="none" stroke="#FF00FF" stroke-width="0.7087" stroke-linecap="round" stroke-linejoin="round" stroke-miterlimit="10" stroke-dasharray="0.5,0.25" x1="7.48" y1="20.94" x2="7.48" y2="100.35"/>
	</g>
	<g id="LINE_67_">
		
			<line fill="none" stroke="#FF00FF" stroke-width="0.7087" stroke-linecap="round" stroke-linejoin="round" stroke-miterlimit="10" stroke-dasharray="0.5,0.25" x1="7.48" y1="60.35" x2="177.48" y2="60.35"/>
	</g>
	<g id="LINE_68_">
		
			<line fill="none" stroke="#FF00FF" stroke-width="0.7087" stroke-linecap="round" stroke-linejoin="round" stroke-miterlimit="10" stroke-dasharray="0.5,0.25" x1="29.98" y1="20.94" x2="29.98" y2="100.35"/>
	</g>
	<g id="LINE_69_">
		
			<line fill="none" stroke="#FF00FF" stroke-width="0.7087" stroke-linecap="round" stroke-linejoin="round" stroke-miterlimit="10" stroke-dasharray="0.5,0.25" x1="92.48" y1="20.94" x2="92.48" y2="100.35"/>
	</g>
	<g id="LINE_70_">
		
			<line fill="none" stroke="#FF00FF" stroke-width="0.7087" stroke-linecap="round" stroke-linejoin="round" stroke-miterlimit="10" stroke-dasharray="0.5,0.25" x1="154.98" y1="20.94" x2="154.98" y2="100.35"/>
	</g>
	<g id="LINE_75_">
		
			<line fill="none" stroke="#FF00FF" stroke-width="0.7087" stroke-linecap="round" stroke-linejoin="round" stroke-miterlimit="10" stroke-dasharray="0.5,0.25" x1="7.48" y1="80.35" x2="177.48" y2="80.35"/>
	</g>
	<g id="LINE_80_">
		
			<line fill="none" stroke="#FF00FF" stroke-width="0.7087" stroke-linecap="round" stroke-linejoin="round" stroke-miterlimit="10" stroke-dasharray="0.5,0.25" x1="7.48" y1="100.35" x2="177.48" y2="100.35"/>
	</g>
</g>
<g id="annotation">
	<g id="CIRCLE">
		
			<path fill="none" stroke="#0000FF" stroke-width="0.7087" stroke-linecap="round" stroke-linejoin="round" stroke-miterlimit="10" d="
			M4.69,18.15c0-1.54,1.25-2.79,2.79-2.79s2.79,1.25,2.79,2.79s-1.25,2.79-2.79,2.79S4.69,19.69,4.69,18.15L4.69,18.15z"/>
	</g>
	<g id="TEXT">
		<text transform="matrix(1 0 0 1 5.7545 19.1634)" fill="#0000FF" font-family="'ArialMT'" font-size="2.8632px">A2</text>
	</g>
	<g id="CIRCLE_1_">
		
			<path fill="none" stroke="#0000FF" stroke-width="0.7087" stroke-linecap="round" stroke-linejoin="round" stroke-miterlimit="10" d="
			M49.69,18.15c0-1.54,1.25-2.79,2.79-2.79c1.54,0,2.79,1.25,2.79,2.79s-1.25,2.79-2.79,2.79C50.94,20.94,49.69,19.69,49.69,18.15
			L49.69,18.15z"/>
	</g>
	<g id="TEXT_1_">
		<text transform="matrix(1 0 0 1 50.7524 19.1634)" fill="#0000FF" font-family="'ArialMT'" font-size="2.8632px">P2</text>
	</g>
	<g id="CIRCLE_2_">
		
			<path fill="none" stroke="#0000FF" stroke-width="0.7087" stroke-linecap="round" stroke-linejoin="round" stroke-miterlimit="10" d="
			M129.69,18.15c0-1.54,1.25-2.79,2.79-2.79c1.54,0,2.79,1.25,2.79,2.79s-1.25,2.79-2.79,2.79
			C130.94,20.94,129.69,19.69,129.69,18.15L129.69,18.15z"/>
	</g>
	<g id="TEXT_2_">
		<text transform="matrix(1 0 0 1 130.7524 19.1634)" fill="#0000FF" font-family="'ArialMT'" font-size="2.8632px">P1</text>
	</g>
	<g id="CIRCLE_3_">
		
			<path fill="none" stroke="#0000FF" stroke-width="0.7087" stroke-linecap="round" stroke-linejoin="round" stroke-miterlimit="10" d="
			M174.69,18.15c0-1.54,1.25-2.79,2.79-2.79c1.54,0,2.79,1.25,2.79,2.79s-1.25,2.79-2.79,2.79
			C175.94,20.94,174.69,19.69,174.69,18.15L174.69,18.15z"/>
	</g>
	<g id="TEXT_3_">
		<text transform="matrix(1 0 0 1 175.7545 19.1634)" fill="#0000FF" font-family="'ArialMT'" font-size="2.8632px">A1</text>
	</g>
	<g id="TEXT_4_">
		<text transform="matrix(1 0 0 1 20.6159 7.2701)" fill="#0000FF" font-family="'ArialMT'" font-size="5.4118px">KUDUS</text>
	</g>
	<g id="TEXT_5_">
		<text transform="matrix(1 0 0 1 145.4669 7.2701)" fill="#0000FF" font-family="'ArialMT'" font-size="5.4118px">DEMAK</text>
	</g>
</g>
<g id="marker">
	<g id="LINE_71_">
		
			<line fill="none" stroke="#808080" stroke-width="0.7087" stroke-linecap="round" stroke-linejoin="round" stroke-miterlimit="10" x1="0.35" y1="60.35" x2="1.68" y2="60.35"/>
	</g>
	<g id="LINE_72_">
		
			<line fill="none" stroke="#808080" stroke-width="0.7087" stroke-linecap="round" stroke-linejoin="round" stroke-miterlimit="10" x1="0.35" y1="59.03" x2="0.35" y2="61.68"/>
	</g>
	<g id="LWPOLYLINE_14_">
		
			<polyline fill="none" stroke="#808080" stroke-width="0.7087" stroke-linecap="round" stroke-linejoin="round" stroke-miterlimit="10" points="
			0.35,1.68 0.35,0.35 1.68,0.35 		"/>
	</g>
	<g id="LINE_73_">
		
			<line fill="none" stroke="#808080" stroke-width="0.7087" stroke-linecap="round" stroke-linejoin="round" stroke-miterlimit="10" x1="0.35" y1="80.35" x2="1.68" y2="80.35"/>
	</g>
	<g id="LINE_74_">
		
			<line fill="none" stroke="#808080" stroke-width="0.7087" stroke-linecap="round" stroke-linejoin="round" stroke-miterlimit="10" x1="0.35" y1="79.03" x2="0.35" y2="81.68"/>
	</g>
	<g id="LINE_76_">
		
			<line fill="none" stroke="#808080" stroke-width="0.7087" stroke-linecap="round" stroke-linejoin="round" stroke-miterlimit="10" x1="184.61" y1="60.35" x2="183.29" y2="60.35"/>
	</g>
	<g id="LINE_77_">
		
			<line fill="none" stroke="#808080" stroke-width="0.7087" stroke-linecap="round" stroke-linejoin="round" stroke-miterlimit="10" x1="184.61" y1="59.03" x2="184.61" y2="61.68"/>
	</g>
	<g id="LWPOLYLINE_15_">
		
			<polyline fill="none" stroke="#808080" stroke-width="0.7087" stroke-linecap="round" stroke-linejoin="round" stroke-miterlimit="10" points="
			184.61,1.68 184.61,0.35 183.29,0.35 		"/>
	</g>
	<g id="LINE_78_">
		
			<line fill="none" stroke="#808080" stroke-width="0.7087" stroke-linecap="round" stroke-linejoin="round" stroke-miterlimit="10" x1="184.61" y1="80.35" x2="183.29" y2="80.35"/>
	</g>
	<g id="LINE_79_">
		
			<line fill="none" stroke="#808080" stroke-width="0.7087" stroke-linecap="round" stroke-linejoin="round" stroke-miterlimit="10" x1="184.61" y1="79.03" x2="184.61" y2="81.68"/>
	</g>
</g>
<path id="curve_dyn" d="M 7.13,60 C 11.63,61 20.63,65 29.63,65 C 38.629999999999995,65 39.63,63.400000000000006 52.13,60 C 64.63,56.6 76.13,48 92.13,48 C 108.13,48 119.63,56 132.13,60 C 144.63,64 145.63,68 154.63,68 C 163.63,68 172.63,61.6 177.13,60" fill="none" stroke="grey" />
<path id="dots" />
</svg>
