<?xml version="1.0" encoding="UTF-8" standalone="no"?>
<svg
   xmlns:dc="http://purl.org/dc/elements/1.1/"
   xmlns:cc="http://creativecommons.org/ns#"
   xmlns:rdf="http://www.w3.org/1999/02/22-rdf-syntax-ns#"
   xmlns:svg="http://www.w3.org/2000/svg"
   xmlns="http://www.w3.org/2000/svg"
   xml:space="preserve"
   style="enable-background:new -0.3 227.1 612.5 337.7;"
   viewBox="-0.3 227.1 612.5 337.7"
   y="0px"
   x="0px"
   id="Layer_1"
   version="1.1"><metadata
   id="metadata9216"><rdf:RDF><cc:Work
       rdf:about=""><dc:format>image/svg+xml</dc:format><dc:type
         rdf:resource="http://purl.org/dc/dcmitype/StillImage" /><dc:title></dc:title></cc:Work></rdf:RDF></metadata><defs
   id="defs9214" />
<style
   id="style8725"
   type="text/css">
	.st0{fill:none;stroke:#808080;stroke-width:0.4252;stroke-linecap:round;stroke-linejoin:round;stroke-miterlimit:10;}
	.st1{fill:none;stroke:#000000;stroke-width:0.7087;stroke-linecap:round;stroke-linejoin:round;stroke-miterlimit:10;}
	.st2{fill:none;stroke:#0000FF;stroke-width:0.7087;stroke-linecap:round;stroke-linejoin:round;stroke-miterlimit:10;}
	.st3{fill:none;stroke:#FF0000;stroke-width:0.7087;stroke-linecap:round;stroke-linejoin:round;stroke-miterlimit:10;}
	
		.st4{fill:none;stroke:#FF00FF;stroke-width:0.7087;stroke-linecap:round;stroke-linejoin:round;stroke-miterlimit:10;stroke-dasharray:15.4551,3.8638;}
	.st5{fill:#0000FF;}
	.st6{font-family:'ArialMT';}
	.st7{font-size:9.2188px;}
	.st8{font-size:17.4248px;}
	.st9{fill:none;stroke:#808080;stroke-width:0.7087;stroke-linecap:round;stroke-linejoin:round;stroke-miterlimit:10;}
</style>
<g
   id="rail">
	<g
   id="LWPOLYLINE">
		<polyline
   id="polyline8727"
   points="31.3,334 48.4,334 58,333.7 59.6,333.7 70.9,333.4 82.2,333 87,332.9 93.4,332.7 104.7,332.3     116,332 125.6,331.7 138.5,331.3 149.8,331 161,330.7 164.2,330.6 172.3,330.3 174.7,330.2 177.1,330.2 179.5,330.1 182,330     193.2,329.7 202.9,329.5 204.5,329.4 215.8,329.2 227.1,329 238.3,328.8 241.6,328.7 249.6,328.6 260.9,328.5 272.2,328.4     280.2,328.3 283.4,328.3 294.7,328.3 306,328.2 317.3,328.3 328.5,328.3 331.8,328.3 339.8,328.4 351.1,328.5 362.4,328.6     370.4,328.7 373.7,328.8 384.9,329 396.2,329.2 409.1,329.5 418.8,329.7 430,330 432.4,330.1 434.9,330.2 437.3,330.2     439.7,330.3 447.7,330.6 451,330.7 462.2,331 473.5,331.3 486.4,331.7 496,332 507.3,332.3 518.6,332.7 525,332.9 529.8,333     541.1,333.4 552.4,333.7 554,333.7 563.6,334 580.7,334   "
   class="st0" />
	</g>
	<g
   id="LWPOLYLINE_1_">
		<polyline
   id="polyline8730"
   points="31.3,332.7 48.4,332.7 58,332.5 59.6,332.4 70.8,332.1 82.1,331.7 86.9,331.6 93.4,331.4     104.7,331.1 115.9,330.7 125.6,330.4 138.5,330 149.7,329.7 161,329.4 164.2,329.3 172.3,329 174.7,329 177.1,328.9 179.5,328.8     181.9,328.7 193.2,328.4 202.9,328.2 204.5,328.1 215.8,327.9 227,327.7 238.3,327.5 241.5,327.4 249.6,327.3 260.9,327.2     272.2,327.1 280.2,327 283.4,327 294.7,327 306,327 317.3,327 328.6,327 331.8,327 339.8,327.1 351.1,327.2 362.4,327.3     370.4,327.4 373.7,327.5 384.9,327.7 396.2,327.9 409.1,328.2 418.8,328.4 430.1,328.7 432.5,328.8 434.9,328.9 437.3,329     439.7,329 447.8,329.3 451,329.4 462.3,329.7 473.5,330 486.4,330.4 496.1,330.7 507.3,331.1 518.6,331.4 525,331.6 529.9,331.7     541.2,332.1 552.4,332.4 554,332.5 563.6,332.7 580.7,332.7   "
   class="st0" />
	</g>
	<g
   id="LWPOLYLINE_2_">
		<polyline
   id="polyline8733"
   points="31.3,331.5 48.3,331.5 57.9,331.2 59.5,331.1 70.8,330.8 82.1,330.4 86.9,330.3 93.3,330.1     104.6,329.8 115.9,329.4 125.5,329.1 138.4,328.8 149.7,328.4 161,328.1 164.2,328 172.2,327.7 174.6,327.7 177.1,327.6     179.5,327.5 181.9,327.5 193.2,327.1 202.9,326.9 204.5,326.9 215.7,326.6 227,326.4 238.3,326.2 241.5,326.1 249.6,326     260.9,325.9 272.2,325.8 280.2,325.7 283.4,325.7 294.7,325.7 306,325.7 317.3,325.7 328.6,325.7 331.8,325.7 339.8,325.8     351.1,325.9 362.4,326 370.5,326.1 373.7,326.2 385,326.4 396.3,326.6 409.2,326.9 418.8,327.1 430.1,327.5 432.5,327.5     434.9,327.6 437.3,327.7 439.8,327.7 447.8,328 451,328.1 462.3,328.4 473.6,328.8 486.4,329.1 496.1,329.4 507.4,329.8     518.7,330.1 525.1,330.3 529.9,330.4 541.2,330.8 552.5,331.1 554.1,331.2 563.7,331.5 580.7,331.5   "
   class="st0" />
	</g>
	<g
   id="LINE_15_">
		<line
   id="line8736"
   y2="335.5"
   x2="32.1"
   y1="331"
   x1="32.1"
   class="st0" />
	</g>
	<g
   id="LINE_16_">
		<line
   id="line8739"
   y2="335.5"
   x2="41.1"
   y1="331"
   x1="41.1"
   class="st0" />
	</g>
	<g
   id="LINE_17_">
		<line
   id="line8742"
   y2="335.4"
   x2="50.3"
   y1="330.9"
   x1="50.2"
   class="st0" />
	</g>
	<g
   id="LINE_18_">
		<line
   id="line8745"
   y2="334.9"
   x2="68.2"
   y1="330.4"
   x1="68"
   class="st0" />
	</g>
	<g
   id="LINE_19_">
		<line
   id="line8748"
   y2="334.5"
   x2="80.1"
   y1="330.1"
   x1="80"
   class="st0" />
	</g>
	<g
   id="LINE_20_">
		<line
   id="line8751"
   y2="334.2"
   x2="92"
   y1="329.7"
   x1="91.9"
   class="st0" />
	</g>
	<g
   id="LINE_21_">
		<line
   id="line8754"
   y2="333.8"
   x2="103.9"
   y1="329.4"
   x1="103.8"
   class="st0" />
	</g>
	<g
   id="LINE_22_">
		<line
   id="line8757"
   y2="333.5"
   x2="115.8"
   y1="329"
   x1="115.7"
   class="st0" />
	</g>
	<g
   id="LINE_23_">
		<line
   id="line8760"
   y2="333.1"
   x2="127.7"
   y1="328.6"
   x1="127.6"
   class="st0" />
	</g>
	<g
   id="LINE_24_">
		<line
   id="line8763"
   y2="332.8"
   x2="139.6"
   y1="328.3"
   x1="139.5"
   class="st0" />
	</g>
	<g
   id="LINE_25_">
		<line
   id="line8766"
   y2="332.4"
   x2="151.5"
   y1="327.9"
   x1="151.4"
   class="st0" />
	</g>
	<g
   id="LINE_26_">
		<line
   id="line8769"
   y2="332"
   x2="163.4"
   y1="327.6"
   x1="163.3"
   class="st0" />
	</g>
	<g
   id="LINE_27_">
		<line
   id="line8772"
   y2="331.7"
   x2="175.4"
   y1="327.2"
   x1="175.2"
   class="st0" />
	</g>
	<g
   id="LINE_28_">
		<line
   id="line8775"
   y2="331.3"
   x2="187.3"
   y1="326.9"
   x1="187.1"
   class="st0" />
	</g>
	<g
   id="LINE_29_">
		<line
   id="line8778"
   y2="331"
   x2="199.1"
   y1="326.6"
   x1="199"
   class="st0" />
	</g>
	<g
   id="LINE_30_">
		<line
   id="line8781"
   y2="330.8"
   x2="211"
   y1="326.3"
   x1="210.9"
   class="st0" />
	</g>
	<g
   id="LINE_31_">
		<line
   id="line8784"
   y2="330.5"
   x2="222.9"
   y1="326"
   x1="222.9"
   class="st0" />
	</g>
	<g
   id="LINE_32_">
		<line
   id="line8787"
   y2="330.3"
   x2="234.8"
   y1="325.8"
   x1="234.8"
   class="st0" />
	</g>
	<g
   id="LINE_33_">
		<line
   id="line8790"
   y2="330.1"
   x2="246.7"
   y1="325.6"
   x1="246.7"
   class="st0" />
	</g>
	<g
   id="LINE_34_">
		<line
   id="line8793"
   y2="330"
   x2="258.6"
   y1="325.5"
   x1="258.6"
   class="st0" />
	</g>
	<g
   id="LINE_35_">
		<line
   id="line8796"
   y2="329.9"
   x2="270.5"
   y1="325.4"
   x1="270.5"
   class="st0" />
	</g>
	<g
   id="LINE_36_">
		<line
   id="line8799"
   y2="329.8"
   x2="282.4"
   y1="325.3"
   x1="282.4"
   class="st0" />
	</g>
	<g
   id="LINE_37_">
		<line
   id="line8802"
   y2="329.7"
   x2="294.3"
   y1="325.2"
   x1="294.3"
   class="st0" />
	</g>
	<g
   id="LINE_38_">
		<line
   id="line8805"
   y2="329.7"
   x2="306"
   y1="325.2"
   x1="306"
   class="st0" />
	</g>
	<g
   id="LINE_39_">
		<line
   id="line8808"
   y2="335.5"
   x2="579.9"
   y1="331"
   x1="579.9"
   class="st0" />
	</g>
	<g
   id="LINE_40_">
		<line
   id="line8811"
   y2="335.5"
   x2="570.9"
   y1="331"
   x1="570.9"
   class="st0" />
	</g>
	<g
   id="LINE_41_">
		<line
   id="line8814"
   y2="334.9"
   x2="543.8"
   y1="330.4"
   x1="544"
   class="st0" />
	</g>
	<g
   id="LINE_42_">
		<line
   id="line8817"
   y2="334.5"
   x2="531.9"
   y1="330.1"
   x1="532"
   class="st0" />
	</g>
	<g
   id="LINE_43_">
		<line
   id="line8820"
   y2="334.2"
   x2="520"
   y1="329.7"
   x1="520.1"
   class="st0" />
	</g>
	<g
   id="LINE_44_">
		<line
   id="line8823"
   y2="333.8"
   x2="508.1"
   y1="329.4"
   x1="508.2"
   class="st0" />
	</g>
	<g
   id="LINE_45_">
		<line
   id="line8826"
   y2="333.5"
   x2="496.2"
   y1="329"
   x1="496.3"
   class="st0" />
	</g>
	<g
   id="LINE_46_">
		<line
   id="line8829"
   y2="333.1"
   x2="484.3"
   y1="328.6"
   x1="484.4"
   class="st0" />
	</g>
	<g
   id="LINE_47_">
		<line
   id="line8832"
   y2="332.8"
   x2="472.4"
   y1="328.3"
   x1="472.5"
   class="st0" />
	</g>
	<g
   id="LINE_48_">
		<line
   id="line8835"
   y2="332.4"
   x2="460.5"
   y1="327.9"
   x1="460.6"
   class="st0" />
	</g>
	<g
   id="LINE_49_">
		<line
   id="line8838"
   y2="332"
   x2="448.6"
   y1="327.6"
   x1="448.7"
   class="st0" />
	</g>
	<g
   id="LINE_50_">
		<line
   id="line8841"
   y2="331.7"
   x2="436.6"
   y1="327.2"
   x1="436.8"
   class="st0" />
	</g>
	<g
   id="LINE_51_">
		<line
   id="line8844"
   y2="331.3"
   x2="424.7"
   y1="326.9"
   x1="424.9"
   class="st0" />
	</g>
	<g
   id="LINE_52_">
		<line
   id="line8847"
   y2="331"
   x2="412.9"
   y1="326.6"
   x1="413"
   class="st0" />
	</g>
	<g
   id="LINE_53_">
		<line
   id="line8850"
   y2="330.8"
   x2="401"
   y1="326.3"
   x1="401.1"
   class="st0" />
	</g>
	<g
   id="LINE_54_">
		<line
   id="line8853"
   y2="330.5"
   x2="389.1"
   y1="326"
   x1="389.1"
   class="st0" />
	</g>
	<g
   id="LINE_55_">
		<line
   id="line8856"
   y2="330.3"
   x2="377.2"
   y1="325.8"
   x1="377.2"
   class="st0" />
	</g>
	<g
   id="LINE_56_">
		<line
   id="line8859"
   y2="330.8"
   x2="401"
   y1="326.3"
   x1="401.1"
   class="st0" />
	</g>
	<g
   id="LINE_57_">
		<line
   id="line8862"
   y2="330.5"
   x2="389.1"
   y1="326"
   x1="389.1"
   class="st0" />
	</g>
	<g
   id="LINE_58_">
		<line
   id="line8865"
   y2="330.3"
   x2="377.2"
   y1="325.8"
   x1="377.2"
   class="st0" />
	</g>
	<g
   id="LINE_59_">
		<line
   id="line8868"
   y2="330.1"
   x2="365.3"
   y1="325.6"
   x1="365.3"
   class="st0" />
	</g>
	<g
   id="LINE_60_">
		<line
   id="line8871"
   y2="329.9"
   x2="341.5"
   y1="325.4"
   x1="341.5"
   class="st0" />
	</g>
	<g
   id="LINE_61_">
		<line
   id="line8874"
   y2="329.8"
   x2="329.6"
   y1="325.3"
   x1="329.6"
   class="st0" />
	</g>
	<g
   id="LINE_62_">
		<line
   id="line8877"
   y2="329.7"
   x2="317.7"
   y1="325.2"
   x1="317.7"
   class="st0" />
	</g>
	<g
   id="LWPOLYLINE_20_">
		<line
   id="line8880"
   y2="525.1"
   x2="47.1"
   y1="525.1"
   x1="31.3"
   class="st0" />
	</g>
	<g
   id="LWPOLYLINE_21_">
		<line
   id="line8883"
   y2="523.8"
   x2="47.5"
   y1="523.8"
   x1="31.3"
   class="st0" />
	</g>
	<g
   id="LWPOLYLINE_22_">
		<line
   id="line8886"
   y2="522.6"
   x2="48"
   y1="522.6"
   x1="31.3"
   class="st0" />
	</g>
	<g
   id="LINE_104_">
		<line
   id="line8889"
   y2="526.6"
   x2="32.1"
   y1="522.1"
   x1="32.1"
   class="st0" />
	</g>
	<g
   id="LINE_105_">
		<line
   id="line8892"
   y2="526.6"
   x2="41.1"
   y1="522.1"
   x1="41.1"
   class="st0" />
	</g>
</g>
<g
   id="tumpuan_x5F_A2">
	<g
   id="LINE">
		<line
   id="line8896"
   y2="345.8"
   x2="430.5"
   y1="345.8"
   x1="439.1"
   class="st1" />
	</g>
	<g
   id="LWPOLYLINE_18_">
		<polygon
   id="polygon8899"
   points="26.1,431.8 38.5,431.8 32.3,420.7   "
   class="st2" />
	</g>
	<g
   id="LINE_95_">
		<line
   id="line8902"
   y2="431.8"
   x2="21.1"
   y1="431.8"
   x1="43.5"
   class="st2" />
	</g>
	<g
   id="LINE_96_">
		<line
   id="line8905"
   y2="431.8"
   x2="24.8"
   y1="437.3"
   x1="21.8"
   class="st2" />
	</g>
	<g
   id="LINE_97_">
		<line
   id="line8908"
   y2="431.8"
   x2="28.6"
   y1="437.3"
   x1="25.5"
   class="st2" />
	</g>
	<g
   id="LINE_98_">
		<line
   id="line8911"
   y2="431.8"
   x2="32.3"
   y1="437.3"
   x1="29.2"
   class="st2" />
	</g>
	<g
   id="LINE_99_">
		<line
   id="line8914"
   y2="431.8"
   x2="36.1"
   y1="437.3"
   x1="33"
   class="st2" />
	</g>
	<g
   id="LINE_100_">
		<line
   id="line8917"
   y2="431.8"
   x2="39.8"
   y1="437.3"
   x1="36.7"
   class="st2" />
	</g>
	<g
   id="LWPOLYLINE_19_">
		<polygon
   id="polygon8920"
   points="40.8,547.3 40.8,549.5 23.8,549.5 23.8,547.3 30.7,545.6 30.7,538.2 28.9,536.6 28.9,526.6     30.6,526.6 30.6,535 35.5,535 35.5,536.6 33.9,538.2 33.9,545.6   "
   class="st2" />
	</g>
	<g
   id="LWPOLYLINE_23_">
		<rect
   id="rect8923"
   height="1.6"
   width="3.3"
   class="st2"
   y="533.4"
   x="30.6" />
	</g>
	<g
   id="LWPOLYLINE_24_">
		<rect
   id="rect8926"
   height="0.4"
   width="1.1"
   class="st2"
   y="533"
   x="31.8" />
	</g>
</g>
<g
   id="girder">
	<g
   id="LINE_1_">
		<line
   id="line8930"
   y2="342"
   x2="58.1"
   y1="335.2"
   x1="58.1"
   class="st3" />
	</g>
	<g
   id="LINE_2_">
		<line
   id="line8933"
   y2="342.3"
   x2="87.1"
   y1="334.3"
   x1="87.1"
   class="st3" />
	</g>
	<g
   id="LINE_3_">
		<line
   id="line8936"
   y2="343.2"
   x2="125.7"
   y1="333.2"
   x1="125.7"
   class="st3" />
	</g>
	<g
   id="LINE_4_">
		<line
   id="line8939"
   y2="344.8"
   x2="164.3"
   y1="332"
   x1="164.3"
   class="st3" />
	</g>
	<g
   id="LINE_5_">
		<line
   id="line8942"
   y2="342.2"
   x2="203"
   y1="330.9"
   x1="203"
   class="st3" />
	</g>
	<g
   id="LINE_6_">
		<line
   id="line8945"
   y2="338.5"
   x2="241.6"
   y1="330.2"
   x1="241.6"
   class="st3" />
	</g>
	<g
   id="LINE_7_">
		<line
   id="line8948"
   y2="336.5"
   x2="280.2"
   y1="329.8"
   x1="280.2"
   class="st3" />
	</g>
	<g
   id="LINE_8_">
		<line
   id="line8951"
   y2="336.5"
   x2="331.8"
   y1="329.8"
   x1="331.8"
   class="st3" />
	</g>
	<g
   id="LINE_9_">
		<line
   id="line8954"
   y2="338.5"
   x2="370.4"
   y1="330.2"
   x1="370.4"
   class="st3" />
	</g>
	<g
   id="LINE_10_">
		<line
   id="line8957"
   y2="342.2"
   x2="409"
   y1="330.9"
   x1="409"
   class="st3" />
	</g>
	<g
   id="LINE_11_">
		<line
   id="line8960"
   y2="344.8"
   x2="447.7"
   y1="332"
   x1="447.7"
   class="st3" />
	</g>
	<g
   id="LINE_12_">
		<line
   id="line8963"
   y2="343.2"
   x2="486.3"
   y1="333.2"
   x1="486.3"
   class="st3" />
	</g>
	<g
   id="LINE_13_">
		<line
   id="line8966"
   y2="342.3"
   x2="524.9"
   y1="334.3"
   x1="524.9"
   class="st3" />
	</g>
	<g
   id="LINE_14_">
		<line
   id="line8969"
   y2="342"
   x2="553.9"
   y1="335.2"
   x1="553.9"
   class="st3" />
	</g>
	<g
   id="LWPOLYLINE_3_">
		<path
   id="path8972"
   d="M581,335.5h-17.4l-9.7-0.3h-1.6l-11.3-0.3l-11.3-0.3l-4.8-0.1l-6.4-0.2l-11.3-0.3l-11.3-0.3l-9.7-0.3    l-12.9-0.4l-11.3-0.3l-11.3-0.3l-3.2-0.1l-8-0.2l-2.4-0.1l-2.4-0.1l-2.4-0.1l-2.4-0.1l-11.3-0.3l-9.6-0.2l-12.9-0.3l-11.3-0.2    l-11.3-0.2h-3.2l-8-0.1l-11.3-0.1l-11.3-0.1l-8.1-0.1h-3.2h-11.3h-11.3h-11.3h-11.3H280l-8,0.1l-11.3,0.1l-11.3,0.1l-8.1,0.1h-3.2    l-11.3,0.2l-11.3,0.2l-11.3,0.3h-1.6l-9.7,0.2l-11.3,0.3l-2.4,0.1l-2.4,0.1l-2.4,0.1l-2.4,0.1l-8.1,0.2l-3.2,0.1l-11.3,0.3    l-11.3,0.3l-12.9,0.4l-9.6,0.3l-11.3,0.3L93,334.3l-6.5,0.2l-4.8,0.1l-11.3,0.3l-11.3,0.3h-1.6l-9.6,0.3H31v6.4h17.4    c3.2,0,6.4,0,9.7,0c9.7,0,19.3,0.1,29,0.3c12.9,0.2,25.8,0.5,38.6,0.9c12.9,0.4,25.8,0.9,38.6,1.6c3.5,0.2,7,0.4,10.5,0.5h4.8    c7.8-1.1,15.5-2.2,23.3-3.1c12.8-1.5,25.7-2.8,38.6-3.7c12.9-1,25.7-1.6,38.6-2c8.6-0.3,17.2-0.4,25.8-0.4    c8.6,0,17.2,0.1,25.8,0.4c12.9,0.4,25.8,1,38.6,2c12.9,1,25.8,2.2,38.6,3.7c7.8,0.9,15.6,2,23.3,3.1h4.8c3.5-0.2,7-0.4,10.5-0.5    c12.9-0.6,25.8-1.2,38.6-1.6c12.9-0.4,25.8-0.7,38.6-0.9c9.7-0.2,19.3-0.3,29-0.3c3.2,0,6.4,0,9.7,0h17.4v-6.4H581z"
   class="st3" />
	</g>
	<g
   id="LINE_101_">
		<line
   id="line8975"
   y2="526.6"
   x2="31"
   y1="526.6"
   x1="46.5"
   class="st3" />
	</g>
	<g
   id="LINE_102_">
		<line
   id="line8978"
   y2="533"
   x2="31"
   y1="526.6"
   x1="31"
   class="st3" />
	</g>
	<g
   id="LINE_103_">
		<line
   id="line8981"
   y2="533"
   x2="47.2"
   y1="533"
   x1="31"
   class="st3" />
	</g>
</g>
<g
   id="pondasi_x5F_A2">
	<g
   id="LWPOLYLINE_4_">
		<polygon
   id="polygon8985"
   points="40.8,356.1 40.8,358.4 23.8,358.4 23.8,356.1 30.7,354.5 30.7,347.1 28.9,345.5 28.9,335.5     30.6,335.5 30.6,343.9 35.5,343.9 35.5,345.5 33.9,347.1 33.9,354.5   "
   class="st3" />
	</g>
	<g
   id="LWPOLYLINE_5_">
		<rect
   id="rect8988"
   height="1.6"
   width="3.3"
   class="st3"
   y="342.3"
   x="30.6" />
	</g>
	<g
   id="LWPOLYLINE_12_">
		<rect
   id="rect8991"
   height="0.4"
   width="1.1"
   class="st3"
   y="341.9"
   x="31.8" />
	</g>
</g>
<g
   id="pondasi_x5F_A1">
	<g
   id="LWPOLYLINE_6_">
		<rect
   id="rect8995"
   height="0.4"
   width="1.1"
   class="st3"
   y="341.9"
   x="579.1" />
	</g>
	<g
   id="LWPOLYLINE_7_">
		<polygon
   id="polygon8998"
   points="571.2,356.1 571.2,358.4 588.2,358.4 588.2,356.1 581.3,354.5 581.3,347.1 583.1,345.5 583.1,335.5     581.4,335.5 581.4,343.9 576.5,343.9 576.5,345.5 578.1,347.1 578.1,354.5   "
   class="st3" />
	</g>
	<g
   id="LWPOLYLINE_8_">
		<rect
   id="rect9001"
   height="1.6"
   width="3.3"
   class="st3"
   y="342.3"
   x="578" />
	</g>
	<g
   id="LWPOLYLINE_11_">
		<rect
   id="rect9004"
   height="0.5"
   width="1.9"
   class="st3"
   y="345.3"
   x="433.8" />
	</g>
</g>
<g
   id="pondasi_x5F_P2">
	<g
   id="LWPOLYLINE_9_">
		<polygon
   id="polygon9008"
   points="190.7,362.2 163.7,362.2 163.7,357 173.8,355.4 173.8,350 172.1,350 172.1,345.8 177.2,345.8     182.4,345.8 182.4,350 180.6,350 180.6,355.4 190.7,357   "
   class="st3" />
	</g>
	<g
   id="LWPOLYLINE_13_">
		<rect
   id="rect9011"
   height="0.5"
   width="1.9"
   class="st3"
   y="345.3"
   x="176.2" />
	</g>
</g>
<g
   id="pondasi_x5F_P1">
	<g
   id="LWPOLYLINE_10_">
		<polygon
   id="polygon9015"
   points="439.9,345.8 434.8,345.8 429.6,345.8 429.6,350 431.4,350 431.4,355.4 421.3,357 421.3,362.2     448.3,362.2 448.3,357 438.2,355.4 438.2,350 439.9,350   "
   class="st3" />
	</g>
</g>
<g
   id="construction_x5F_line">
	<g
   id="LINE_63_">
		<line
   style="fill:none;stroke:#ff00ff;stroke-width:0.7087;stroke-linecap:round;stroke-linejoin:round;stroke-miterlimit:10;stroke-dasharray:15.4551, 3.8638"
   id="line9019"
   y2="549.5"
   x2="177.2"
   y1="293.79999"
   x1="177.2"
   class="st4" />
	</g>
	<g
   id="LINE_64_">
		<line
   style="fill:none;stroke:#ff00ff;stroke-width:0.7087;stroke-linecap:round;stroke-linejoin:round;stroke-miterlimit:10;stroke-dasharray:15.4551, 3.8638"
   id="line9022"
   y2="549.5"
   x2="434.79999"
   y1="293.79999"
   x1="434.79999"
   class="st4" />
	</g>
	<g
   id="LINE_65_">
		<line
   style="fill:none;stroke:#ff00ff;stroke-width:0.7087;stroke-linecap:round;stroke-linejoin:round;stroke-miterlimit:10;stroke-dasharray:15.4551, 3.8638"
   id="line9025"
   y2="549.5"
   x2="579.70001"
   y1="293.79999"
   x1="579.70001"
   class="st4" />
	</g>
	<g
   id="LINE_66_">
		<line
   style="fill:none;stroke:#ff00ff;stroke-width:0.7087;stroke-linecap:round;stroke-linejoin:round;stroke-miterlimit:10;stroke-dasharray:15.4551, 3.8638"
   id="line9028"
   y2="549.5"
   x2="32.299999"
   y1="293.79999"
   x1="32.299999"
   class="st4" />
	</g>
	<g
   id="LINE_67_">
		<line
   style="fill:none;stroke:#ff00ff;stroke-width:0.7087;stroke-linecap:round;stroke-linejoin:round;stroke-miterlimit:10;stroke-dasharray:15.4551, 3.8638"
   id="line9031"
   y2="420.70001"
   x2="579.70001"
   y1="420.70001"
   x1="32.299999"
   class="st4" />
	</g>
	<g
   id="LINE_68_">
		<line
   style="fill:none;stroke:#ff00ff;stroke-width:0.7087;stroke-linecap:round;stroke-linejoin:round;stroke-miterlimit:10;stroke-dasharray:15.4551, 3.8638"
   id="line9034"
   y2="549.5"
   x2="104.8"
   y1="293.79999"
   x1="104.8"
   class="st4" />
	</g>
	<g
   id="LINE_69_">
		<line
   style="fill:none;stroke:#ff00ff;stroke-width:0.7087;stroke-linecap:round;stroke-linejoin:round;stroke-miterlimit:10;stroke-dasharray:15.4551, 3.8638"
   id="line9037"
   y2="549.5"
   x2="306"
   y1="293.79999"
   x1="306"
   class="st4" />
	</g>
	<g
   id="LINE_70_">
		<line
   style="fill:none;stroke:#ff00ff;stroke-width:0.7087;stroke-linecap:round;stroke-linejoin:round;stroke-miterlimit:10;stroke-dasharray:15.4551, 3.8638"
   id="line9040"
   y2="549.5"
   x2="507.20001"
   y1="293.79999"
   x1="507.20001"
   class="st4" />
	</g>
	<g
   id="LINE_75_">
		<line
   style="fill:none;stroke:#ff00ff;stroke-width:0.7087;stroke-linecap:round;stroke-linejoin:round;stroke-miterlimit:10;stroke-dasharray:15.4551, 3.8638"
   id="line9043"
   y2="485.10001"
   x2="579.70001"
   y1="485.10001"
   x1="32.299999"
   class="st4" />
	</g>
	<g
   id="LINE_76_">
		<line
   style="fill:none;stroke:#ff00ff;stroke-width:0.7087;stroke-linecap:round;stroke-linejoin:round;stroke-miterlimit:10;stroke-dasharray:15.4551, 3.8638"
   id="line9046"
   y2="549.5"
   x2="579.70001"
   y1="549.5"
   x1="32.299999"
   class="st4" />
	</g>
</g>
<g
   id="annotation">
	<g
   id="CIRCLE">
		<path
   style="fill:none;stroke:#0000ff;stroke-width:0.7087;stroke-linecap:round;stroke-linejoin:round;stroke-miterlimit:10"
   id="path9050"
   d="m 23.3,284.8 c 0,-5 4,-9 9,-9 5,0 9,4 9,9 0,5 -4,9 -9,9 -5,0 -9,-4 -9,-9 z"
   class="st2" />
	</g>
	<g
   id="TEXT">
		<text
   style="font-size:9.21879959px;font-family:ArialMT;fill:#0000ff"
   id="text9053"
   class="st5 st6 st7"
   transform="translate(26.7461,288.0848)">A2</text>

	</g>
	<g
   id="CIRCLE_1_">
		<path
   style="fill:none;stroke:#0000ff;stroke-width:0.7087;stroke-linecap:round;stroke-linejoin:round;stroke-miterlimit:10"
   id="path9056"
   d="m 168.2,284.8 c 0,-5 4,-9 9,-9 5,0 9,4 9,9 0,5 -4,9 -9,9 -5,0 -9,-4 -9,-9 z"
   class="st2" />
	</g>
	<g
   id="TEXT_1_">
		<text
   style="font-size:9.21879959px;font-family:ArialMT;fill:#0000ff"
   id="text9059"
   class="st5 st6 st7"
   transform="translate(171.6311,288.0848)">P2</text>

	</g>
	<g
   id="CIRCLE_2_">
		<path
   style="fill:none;stroke:#0000ff;stroke-width:0.7087;stroke-linecap:round;stroke-linejoin:round;stroke-miterlimit:10"
   id="path9062"
   d="m 425.8,284.8 c 0,-5 4,-9 9,-9 5,0 9,4 9,9 0,5 -4,9 -9,9 -5,0 -9,-4 -9,-9 z"
   class="st2" />
	</g>
	<g
   id="TEXT_2_">
		<text
   style="font-size:9.21879959px;font-family:ArialMT;fill:#0000ff"
   id="text9065"
   class="st5 st6 st7"
   transform="translate(429.2162,288.0848)">P1</text>

	</g>
	<g
   id="CIRCLE_3_">
		<path
   style="fill:none;stroke:#0000ff;stroke-width:0.7087;stroke-linecap:round;stroke-linejoin:round;stroke-miterlimit:10"
   id="path9068"
   d="m 570.7,284.8 c 0,-5 4,-9 9,-9 5,0 9,4 9,9 0,5 -4,9 -9,9 -5,0 -9,-4 -9,-9 z"
   class="st2" />
	</g>
	<g
   id="TEXT_3_">
		<text
   style="font-size:9.21879959px;font-family:ArialMT;fill:#0000ff"
   id="text9071"
   class="st5 st6 st7"
   transform="translate(574.1145,288.0848)">A1</text>

	</g>
	<g
   id="TEXT_4_">
		<text
   style="font-size:17.42480087px;font-family:ArialMT;fill:#0000ff"
   id="text9074"
   class="st5 st6 st8"
   transform="translate(74.5971,249.7907)">KUDUS</text>

	</g>
	<g
   id="TEXT_5_">
		<text
   style="font-size:17.42480087px;font-family:ArialMT;fill:#0000ff"
   id="text9077"
   class="st5 st6 st8"
   transform="translate(476.5942,249.7907)">DEMAK</text>

	</g>
</g>
<g
   id="marker">
	<g
   id="LINE_71_">
		<line
   style="fill:none;stroke:#808080;stroke-width:0.7087;stroke-linecap:round;stroke-linejoin:round;stroke-miterlimit:10"
   id="line9081"
   y2="420.70001"
   x2="4.4000001"
   y1="420.70001"
   x1="0.1"
   class="st9" />
	</g>
	<g
   id="LINE_72_">
		<line
   style="fill:none;stroke:#808080;stroke-width:0.7087;stroke-linecap:round;stroke-linejoin:round;stroke-miterlimit:10"
   id="line9084"
   y2="425"
   x2="0.1"
   y1="416.39999"
   x1="0.1"
   class="st9" />
	</g>
	<g
   id="LWPOLYLINE_14_">
		<polyline
   style="fill:none;stroke:#808080;stroke-width:0.7087;stroke-linecap:round;stroke-linejoin:round;stroke-miterlimit:10"
   id="polyline9087"
   points="0.1,231.8 0.1,227.5 4.4,227.5   "
   class="st9" />
	</g>
	<g
   id="LINE_73_">
		<line
   style="fill:none;stroke:#808080;stroke-width:0.7087;stroke-linecap:round;stroke-linejoin:round;stroke-miterlimit:10"
   id="line9090"
   y2="485.10001"
   x2="4.4000001"
   y1="485.10001"
   x1="0.1"
   class="st9" />
	</g>
	<g
   id="LINE_74_">
		<line
   style="fill:none;stroke:#808080;stroke-width:0.7087;stroke-linecap:round;stroke-linejoin:round;stroke-miterlimit:10"
   id="line9093"
   y2="489.39999"
   x2="0.1"
   y1="480.79999"
   x1="0.1"
   class="st9" />
	</g>
	<g
   id="LINE_106_">
		<line
   style="fill:none;stroke:#808080;stroke-width:0.7087;stroke-linecap:round;stroke-linejoin:round;stroke-miterlimit:10"
   id="line9096"
   y2="529.70001"
   x2="45.400002"
   y1="521.5"
   x1="48.400002"
   class="st9" />
	</g>
	<g
   id="LINE_107_">
		<line
   style="fill:none;stroke:#808080;stroke-width:0.7087;stroke-linecap:round;stroke-linejoin:round;stroke-miterlimit:10"
   id="line9099"
   y2="529.70001"
   x2="48.400002"
   y1="529.70001"
   x1="45.400002"
   class="st9" />
	</g>
	<g
   id="LINE_108_">
		<line
   style="fill:none;stroke:#808080;stroke-width:0.7087;stroke-linecap:round;stroke-linejoin:round;stroke-miterlimit:10"
   id="line9102"
   y2="538"
   x2="45.400002"
   y1="529.70001"
   x1="48.400002"
   class="st9" />
	</g>
	<g
   id="LWPOLYLINE_25_">
		<polyline
   style="fill:none;stroke:#808080;stroke-width:0.7087;stroke-linecap:round;stroke-linejoin:round;stroke-miterlimit:10"
   id="polyline9105"
   points="0.1,560.2 0.1,564.5 4.4,564.5   "
   class="st9" />
	</g>
	<g
   id="LINE_109_">
		<line
   style="fill:none;stroke:#808080;stroke-width:0.7087;stroke-linecap:round;stroke-linejoin:round;stroke-miterlimit:10"
   id="line9108"
   y2="420.70001"
   x2="607.59998"
   y1="420.70001"
   x1="611.90002"
   class="st9" />
	</g>
	<g
   id="LINE_110_">
		<line
   style="fill:none;stroke:#808080;stroke-width:0.7087;stroke-linecap:round;stroke-linejoin:round;stroke-miterlimit:10"
   id="line9111"
   y2="425"
   x2="611.90002"
   y1="416.39999"
   x1="611.90002"
   class="st9" />
	</g>
	<g
   id="LWPOLYLINE_26_">
		<polyline
   style="fill:none;stroke:#808080;stroke-width:0.7087;stroke-linecap:round;stroke-linejoin:round;stroke-miterlimit:10"
   id="polyline9114"
   points="611.9,231.8 611.9,227.5 607.6,227.5   "
   class="st9" />
	</g>
	<g
   id="LINE_111_">
		<line
   style="fill:none;stroke:#808080;stroke-width:0.7087;stroke-linecap:round;stroke-linejoin:round;stroke-miterlimit:10"
   id="line9117"
   y2="485.10001"
   x2="607.59998"
   y1="485.10001"
   x1="611.90002"
   class="st9" />
	</g>
	<g
   id="LINE_112_">
		<line
   style="fill:none;stroke:#808080;stroke-width:0.7087;stroke-linecap:round;stroke-linejoin:round;stroke-miterlimit:10"
   id="line9120"
   y2="489.39999"
   x2="611.90002"
   y1="480.79999"
   x1="611.90002"
   class="st9" />
	</g>
	<g
   id="LWPOLYLINE_27_">
		<polyline
   style="fill:none;stroke:#808080;stroke-width:0.7087;stroke-linecap:round;stroke-linejoin:round;stroke-miterlimit:10"
   id="polyline9123"
   points="611.9,560.2 611.9,564.5 607.6,564.5   "
   class="st9" />
	</g>
</g>
<g
   id="tumpuan_x5F_P2">
	<g
   id="LWPOLYLINE_15_">
		<polygon
   id="polygon9127"
   points="171,423.7 183.4,423.7 177.2,412.7   "
   class="st2" />
	</g>
	<g
   id="LINE_77_">
		<line
   id="line9130"
   y2="423.7"
   x2="166"
   y1="423.7"
   x1="188.4"
   class="st2" />
	</g>
	<g
   id="LINE_78_">
		<line
   id="line9133"
   y2="423.7"
   x2="169.7"
   y1="429.3"
   x1="166.6"
   class="st2" />
	</g>
	<g
   id="LINE_79_">
		<line
   id="line9136"
   y2="423.7"
   x2="173.5"
   y1="429.3"
   x1="170.4"
   class="st2" />
	</g>
	<g
   id="LINE_80_">
		<line
   id="line9139"
   y2="423.7"
   x2="177.2"
   y1="429.3"
   x1="174.1"
   class="st2" />
	</g>
	<g
   id="LINE_81_">
		<line
   id="line9142"
   y2="423.7"
   x2="180.9"
   y1="429.3"
   x1="177.9"
   class="st2" />
	</g>
	<g
   id="LINE_82_">
		<line
   id="line9145"
   y2="423.7"
   x2="184.7"
   y1="429.3"
   x1="181.6"
   class="st2" />
	</g>
</g>
<g
   id="tumpuan_x5F_P1">
	<g
   id="LWPOLYLINE_16_">
		<polygon
   id="polygon9149"
   points="428.6,423.7 441,423.7 434.8,412.7   "
   class="st2" />
	</g>
	<g
   id="LINE_83_">
		<line
   id="line9152"
   y2="423.7"
   x2="423.6"
   y1="423.7"
   x1="446"
   class="st2" />
	</g>
	<g
   id="LINE_84_">
		<line
   id="line9155"
   y2="423.7"
   x2="427.3"
   y1="429.3"
   x1="424.2"
   class="st2" />
	</g>
	<g
   id="LINE_85_">
		<line
   id="line9158"
   y2="423.7"
   x2="431.1"
   y1="429.3"
   x1="428"
   class="st2" />
	</g>
	<g
   id="LINE_86_">
		<line
   id="line9161"
   y2="423.7"
   x2="434.8"
   y1="429.3"
   x1="431.7"
   class="st2" />
	</g>
	<g
   id="LINE_87_">
		<line
   id="line9164"
   y2="423.7"
   x2="438.5"
   y1="429.3"
   x1="435.4"
   class="st2" />
	</g>
	<g
   id="LINE_88_">
		<line
   id="line9167"
   y2="423.7"
   x2="442.3"
   y1="429.3"
   x1="439.2"
   class="st2" />
	</g>
</g>
<g
   id="tumpuan_x5F_A1">
	<g
   id="LWPOLYLINE_17_">
		<polygon
   id="polygon9171"
   points="573.5,431.8 585.9,431.8 579.7,420.7   "
   class="st2" />
	</g>
	<g
   id="LINE_89_">
		<line
   id="line9174"
   y2="431.8"
   x2="568.5"
   y1="431.8"
   x1="590.9"
   class="st2" />
	</g>
	<g
   id="LINE_90_">
		<line
   id="line9177"
   y2="431.8"
   x2="572.2"
   y1="437.3"
   x1="569.1"
   class="st2" />
	</g>
	<g
   id="LINE_91_">
		<line
   id="line9180"
   y2="431.8"
   x2="575.9"
   y1="437.3"
   x1="572.9"
   class="st2" />
	</g>
	<g
   id="LINE_92_">
		<line
   id="line9183"
   y2="431.8"
   x2="579.7"
   y1="437.3"
   x1="576.6"
   class="st2" />
	</g>
	<g
   id="LINE_93_">
		<line
   id="line9186"
   y2="431.8"
   x2="583.4"
   y1="437.3"
   x1="580.3"
   class="st2" />
	</g>
	<g
   id="LINE_94_">
		<line
   id="line9189"
   y2="431.8"
   x2="587.2"
   y1="437.3"
   x1="584.1"
   class="st2" />
	</g>
</g>
<g
   id="curve_x5F_ori">
	<g
   id="SPLINE">
		<path
   style="fill:none;stroke:#ff0000;stroke-width:0.7087;stroke-linecap:round;stroke-linejoin:round;stroke-miterlimit:10"
   id="path9193"
   d="m 32.3,420.7 c 48.3,-3 96.6,-6.1 144.9,-8 85.8,-3.5 171.8,-3.5 257.6,0 48.3,2 96.6,5 144.9,8"
   class="st3" />
	</g>
</g>
<path
   id="path9197"
   d="M101.3,416.3c0-1.9,1.5-3.5,3.5-3.5c1.9,0,3.5,1.5,3.5,3.5c0,1.9-1.5,3.5-3.5,3.5  C102.9,419.7,101.3,418.2,101.3,416.3L101.3,416.3z"
   class="st2" />
<g
   id="dot_x5F_1">
	<g
   id="CIRCLE_5_">
		<path
   id="path9199"
   d="M302.5,410.1c0-1.9,1.5-3.5,3.5-3.5s3.5,1.5,3.5,3.5c0,1.9-1.5,3.5-3.5,3.5S302.5,412,302.5,410.1    L302.5,410.1z"
   class="st2" />
	</g>
</g>
<g
   id="dot_x5F_2">
	<g
   id="CIRCLE_6_">
		<path
   id="path9203"
   d="M503.8,416.3c0-1.9,1.5-3.5,3.5-3.5c1.9,0,3.5,1.5,3.5,3.5c0,1.9-1.5,3.5-3.5,3.5    C505.3,419.7,503.8,418.2,503.8,416.3L503.8,416.3z"
   class="st2" />
	</g>
</g>
<g
   id="curve_x5F_dyn">
	<g
   id="SPLINE_1_">
		<path
   id="path9207"
   d="M32.3,495.8c48.3-3,96.6-6.1,144.9-8c85.8-3.5,171.8-3.5,257.6,0c48.3,2,96.6,5,144.9,8"
   class="st2" />
	</g>
</g>
</svg>