<?xml version="1.0" encoding="UTF-8" standalone="no"?>
<svg
   xmlns:dc="http://purl.org/dc/elements/1.1/"
   xmlns:cc="http://creativecommons.org/ns#"
   xmlns:rdf="http://www.w3.org/1999/02/22-rdf-syntax-ns#"
   xmlns:svg="http://www.w3.org/2000/svg"
   xmlns="http://www.w3.org/2000/svg"
   xmlns:sodipodi="http://sodipodi.sourceforge.net/DTD/sodipodi-0.dtd"
   xmlns:inkscape="http://www.inkscape.org/namespaces/inkscape"
   enable-background="new 0 0 841.89 595.28"
   version="1.1"
   viewBox="0 0 1900.7 1047.2"
   id="svg5365"
   sodipodi:docname="kudus_optimized.svg"
   inkscape:version="0.92.4 (5da689c313, 2019-01-14)">
  <metadata
     id="metadata5369">
    <rdf:RDF>
      <cc:Work
         rdf:about="">
        <dc:format>image/svg+xml</dc:format>
        <dc:type
           rdf:resource="http://purl.org/dc/dcmitype/StillImage" />
      </cc:Work>
    </rdf:RDF>
  </metadata>
  <sodipodi:namedview
     pagecolor="#ffffff"
     bordercolor="#666666"
     borderopacity="1"
     objecttolerance="10"
     gridtolerance="10"
     guidetolerance="10"
     inkscape:pageopacity="0"
     inkscape:pageshadow="2"
     inkscape:window-width="1920"
     inkscape:window-height="1137"
     id="namedview5367"
     showgrid="false"
     inkscape:zoom="0.66712266"
     inkscape:cx="1416.7213"
     inkscape:cy="445.9629"
     inkscape:window-x="-8"
     inkscape:window-y="-8"
     inkscape:window-maximized="1"
     inkscape:current-layer="svg5365" />
  <defs
     id="defs4945">
    <linearGradient
       id="linearGradient28074"
       x1="-22.25"
       x2="63.25"
       y1="166.59"
       y2="166.59"
       gradientUnits="userSpaceOnUse">
      <stop
         stop-color="#e3dbdb"
         offset="0"
         id="stop4942" />
    </linearGradient>
  </defs>
  <g
     id="rail"
     transform="translate(529.86,225.82)"
     style="stroke-width:1.5">
    <polyline
       points="-432.54 105.33 -379.61 105.33 -349.76 104.43 -344.71 104.28 -309.71 103.23 -274.71 102.18 -259.76 101.73 -239.71 101.13 -204.71 100.08 -169.71 99.03 -139.76 98.13 -99.71 96.93 -64.71 95.88 -29.71 94.83 -19.76 94.53 5.29 93.78 12.74 93.56 20.29 93.33 27.74 93.11 35.3 92.89 70.31 91.92 100.37 91.17 105.33 91.05 140.35 90.27 175.37 89.58 210.39 88.98 220.35 88.84 245.4 88.48 280.42 88.06 315.44 87.74 340.4 87.58 350.46 87.51 385.48 87.37 420.5 87.33 455.52 87.37 490.53 87.51 500.5 87.58 525.55 87.74 560.57 88.06 595.59 88.48 620.55 88.84 630.61 88.98 665.63 89.58 700.65 90.27 740.72 91.18 770.68 91.92 805.7 92.89 813.16 93.11 820.71 93.33 828.16 93.55 835.71 93.78 860.66 94.53 870.71 94.83 905.71 95.88 940.71 96.93 980.66 98.13 1010.7 99.03 1045.7 100.08 1080.7 101.13 1100.7 101.73 1115.7 102.18 1150.7 103.23 1185.7 104.28 1190.7 104.43 1220.6 105.33 1273.5 105.33"
       id="polyline4947"
       style="fill:none;stroke:#808080;stroke-width:1.5;stroke-linecap:round;stroke-linejoin:round" />
    <polyline
       points="-432.54 101.33 -379.67 101.33 -349.88 100.43 -344.83 100.28 -309.83 99.23 -274.83 98.18 -259.88 97.73 -239.83 97.13 -204.83 96.08 -169.83 95.03 -139.88 94.13 -99.83 92.93 -64.83 91.88 -29.83 90.83 -19.88 90.53 5.17 89.78 12.62 89.56 20.17 89.33 27.63 89.11 35.18 88.89 70.21 87.92 100.27 87.18 105.24 87.05 140.26 86.27 175.29 85.58 210.32 84.98 220.29 84.84 245.35 84.48 280.38 84.06 315.41 83.74 340.38 83.58 350.44 83.51 385.47 83.37 420.5 83.33 455.53 83.37 490.55 83.51 500.52 83.58 525.58 83.74 560.61 84.06 595.64 84.48 620.61 84.84 630.67 84.98 665.7 85.58 700.73 86.27 740.82 87.18 770.79 87.92 805.81 88.89 813.27 89.11 820.82 89.33 828.28 89.56 835.83 89.78 860.78 90.53 870.83 90.83 905.83 91.88 940.83 92.93 980.78 94.13 1010.8 95.03 1045.8 96.08 1080.8 97.13 1100.8 97.73 1115.8 98.18 1150.8 99.23 1185.8 100.28 1190.8 100.43 1220.7 101.33 1273.5 101.33"
       id="polyline4950"
       style="fill:none;stroke:#808080;stroke-width:1.5;stroke-linecap:round;stroke-linejoin:round" />
    <polyline
       points="-432.54 97.33 -379.73 97.33 -350 96.44 -344.95 96.28 -309.95 95.23 -274.95 94.18 -260 93.74 -239.95 93.13 -204.95 92.08 -169.95 91.03 -140 90.14 -99.95 88.93 -64.95 87.88 -29.95 86.83 -20 86.54 5.05 85.78 12.5 85.56 20.05 85.33 27.51 85.11 35.07 84.89 70.1 83.93 100.18 83.18 105.14 83.05 140.18 82.27 175.22 81.58 210.26 80.98 220.23 80.84 245.3 80.48 280.34 80.06 315.38 79.74 340.35 79.58 350.42 79.51 385.46 79.37 420.5 79.33 455.54 79.37 490.58 79.51 500.55 79.58 525.62 79.74 560.65 80.06 595.69 80.48 620.67 80.84 630.73 80.98 665.77 81.58 700.81 82.27 740.91 83.18 770.89 83.93 805.93 84.89 813.39 85.11 820.94 85.33 828.4 85.56 835.95 85.78 860.9 86.53 870.95 86.83 905.95 87.88 940.95 88.93 980.9 90.13 1011 91.03 1046 92.08 1081 93.13 1100.9 93.73 1116 94.18 1151 95.23 1186 96.28 1190.9 96.43 1220.7 97.33 1273.5 97.33"
       id="polyline4953"
       style="fill:none;stroke:#808080;stroke-width:1.5;stroke-linecap:round;stroke-linejoin:round" />
    <line
       x1="-430.14999"
       x2="-430.14999"
       y1="95.949997"
       y2="109.87"
       id="line4956"
       style="fill:none;stroke:#808080;stroke-width:1.5;stroke-linecap:round;stroke-linejoin:round" />
    <line
       x1="-402.26999"
       x2="-402.26999"
       y1="95.949997"
       y2="109.87"
       id="line4959"
       style="fill:none;stroke:#808080;stroke-width:1.5;stroke-linecap:round;stroke-linejoin:round" />
    <line
       x1="-374.01001"
       x2="-373.59"
       y1="95.57"
       y2="109.69"
       id="line4962"
       style="fill:none;stroke:#808080;stroke-width:1.5;stroke-linecap:round;stroke-linejoin:round" />
    <line
       x1="-318.53"
       x2="-318.10999"
       y1="94.120003"
       y2="108.03"
       id="line4965"
       style="fill:none;stroke:#808080;stroke-width:1.5;stroke-linecap:round;stroke-linejoin:round" />
    <line
       x1="-281.54001"
       x2="-281.13"
       y1="93.010002"
       y2="106.92"
       id="line4968"
       style="fill:none;stroke:#808080;stroke-width:1.5;stroke-linecap:round;stroke-linejoin:round" />
    <line
       x1="-207.58"
       x2="-207.16"
       y1="90.790001"
       y2="104.7"
       id="line4974"
       style="fill:none;stroke:#808080;stroke-width:1.5;stroke-linecap:round;stroke-linejoin:round" />
    <line
       x1="-170.59"
       x2="-170.17999"
       y1="89.68"
       y2="103.59"
       id="line4977"
       style="fill:none;stroke:#808080;stroke-width:1.5;stroke-linecap:round;stroke-linejoin:round" />
    <line
       x1="-133.61"
       x2="-133.19"
       y1="88.57"
       y2="102.48"
       id="line4980"
       style="fill:none;stroke:#808080;stroke-width:1.5;stroke-linecap:round;stroke-linejoin:round" />
    <line
       x1="-96.629997"
       x2="-96.209999"
       y1="87.459999"
       y2="101.37"
       id="line4983"
       style="fill:none;stroke:#808080;stroke-width:1.5;stroke-linecap:round;stroke-linejoin:round" />
    <line
       x1="-59.639999"
       x2="-59.23"
       y1="86.349998"
       y2="100.26"
       id="line4986"
       style="fill:none;stroke:#808080;stroke-width:1.5;stroke-linecap:round;stroke-linejoin:round" />
    <line
       x1="-22.66"
       x2="-22.24"
       y1="85.239998"
       y2="99.150002"
       id="line4989"
       style="fill:none;stroke:#808080;stroke-width:1.5;stroke-linecap:round;stroke-linejoin:round" />
    <line
       x1="14.32"
       x2="14.74"
       y1="84.129997"
       y2="98.040001"
       id="line4992"
       style="fill:none;stroke:#808080;stroke-width:1.5;stroke-linecap:round;stroke-linejoin:round" />
    <line
       x1="51.310001"
       x2="51.689999"
       y1="83.07"
       y2="96.980003"
       id="line4995"
       style="fill:none;stroke:#808080;stroke-width:1.5;stroke-linecap:round;stroke-linejoin:round" />
    <line
       x1="125.28"
       x2="125.59"
       y1="81.230003"
       y2="95.150002"
       id="line5001"
       style="fill:none;stroke:#808080;stroke-width:1.5;stroke-linecap:round;stroke-linejoin:round" />
    <line
       x1="162.28"
       x2="162.55"
       y1="80.459999"
       y2="94.379997"
       id="line5004"
       style="fill:none;stroke:#808080;stroke-width:1.5;stroke-linecap:round;stroke-linejoin:round" />
    <line
       x1="199.27"
       x2="199.50999"
       y1="79.800003"
       y2="93.709999"
       id="line5007"
       style="fill:none;stroke:#808080;stroke-width:1.5;stroke-linecap:round;stroke-linejoin:round" />
    <line
       x1="236.27"
       x2="236.47"
       y1="79.230003"
       y2="93.150002"
       id="line5010"
       style="fill:none;stroke:#808080;stroke-width:1.5;stroke-linecap:round;stroke-linejoin:round" />
    <line
       x1="273.26001"
       x2="273.42999"
       y1="78.769997"
       y2="92.690002"
       id="line5013"
       style="fill:none;stroke:#808080;stroke-width:1.5;stroke-linecap:round;stroke-linejoin:round" />
    <line
       x1="310.26001"
       x2="310.39001"
       y1="78.410004"
       y2="92.330002"
       id="line5016"
       style="fill:none;stroke:#808080;stroke-width:1.5;stroke-linecap:round;stroke-linejoin:round" />
    <line
       x1="347.26001"
       x2="347.35001"
       y1="78.160004"
       y2="92.080002"
       id="line5019"
       style="fill:none;stroke:#808080;stroke-width:1.5;stroke-linecap:round;stroke-linejoin:round" />
    <line
       x1="384.26001"
       x2="384.32001"
       y1="78"
       y2="91.919998"
       id="line5022"
       style="fill:none;stroke:#808080;stroke-width:1.5;stroke-linecap:round;stroke-linejoin:round" />
    <line
       x1="420.5"
       x2="420.5"
       y1="78"
       y2="91.870003"
       id="line5025"
       style="fill:none;stroke:#808080;stroke-width:1.5;stroke-linecap:round;stroke-linejoin:round" />
    <line
       x1="1271.2"
       x2="1271.2"
       y1="95.949997"
       y2="109.87"
       id="line5028"
       style="fill:none;stroke:#808080;stroke-width:1.5;stroke-linecap:round;stroke-linejoin:round" />
    <line
       x1="1243.3"
       x2="1243.3"
       y1="95.949997"
       y2="109.87"
       id="line5031"
       style="fill:none;stroke:#808080;stroke-width:1.5;stroke-linecap:round;stroke-linejoin:round" />
    <line
       x1="1159.5"
       x2="1159.1"
       y1="94.120003"
       y2="108.03"
       id="line5034"
       style="fill:none;stroke:#808080;stroke-width:1.5;stroke-linecap:round;stroke-linejoin:round" />
    <line
       x1="1122.5"
       x2="1122.1"
       y1="93.010002"
       y2="106.92"
       id="line5037"
       style="fill:none;stroke:#808080;stroke-width:1.5;stroke-linecap:round;stroke-linejoin:round" />
    <line
       x1="1085.6"
       x2="1085.1"
       y1="91.900002"
       y2="105.81"
       id="line5040"
       style="fill:none;stroke:#808080;stroke-width:1.5;stroke-linecap:round;stroke-linejoin:round" />
    <line
       x1="1048.6"
       x2="1048.2"
       y1="90.790001"
       y2="104.7"
       id="line5043"
       style="fill:none;stroke:#808080;stroke-width:1.5;stroke-linecap:round;stroke-linejoin:round" />
    <line
       x1="1011.6"
       x2="1011.2"
       y1="89.68"
       y2="103.59"
       id="line5046"
       style="fill:none;stroke:#808080;stroke-width:1.5;stroke-linecap:round;stroke-linejoin:round" />
    <line
       x1="974.60999"
       x2="974.19"
       y1="88.57"
       y2="102.48"
       id="line5049"
       style="fill:none;stroke:#808080;stroke-width:1.5;stroke-linecap:round;stroke-linejoin:round" />
    <line
       x1="937.63"
       x2="937.21002"
       y1="87.459999"
       y2="101.37"
       id="line5052"
       style="fill:none;stroke:#808080;stroke-width:1.5;stroke-linecap:round;stroke-linejoin:round" />
    <line
       x1="900.64001"
       x2="900.22998"
       y1="86.349998"
       y2="100.26"
       id="line5055"
       style="fill:none;stroke:#808080;stroke-width:1.5;stroke-linecap:round;stroke-linejoin:round" />
    <line
       x1="863.65997"
       x2="863.23999"
       y1="85.239998"
       y2="99.150002"
       id="line5058"
       style="fill:none;stroke:#808080;stroke-width:1.5;stroke-linecap:round;stroke-linejoin:round" />
    <line
       x1="826.67999"
       x2="826.26001"
       y1="84.129997"
       y2="98.040001"
       id="line5061"
       style="fill:none;stroke:#808080;stroke-width:1.5;stroke-linecap:round;stroke-linejoin:round" />
    <line
       x1="789.69"
       x2="789.31"
       y1="83.07"
       y2="96.980003"
       id="line5064"
       style="fill:none;stroke:#808080;stroke-width:1.5;stroke-linecap:round;stroke-linejoin:round" />
    <line
       x1="752.71002"
       x2="752.35999"
       y1="82.099998"
       y2="96.010002"
       id="line5067"
       style="fill:none;stroke:#808080;stroke-width:1.5;stroke-linecap:round;stroke-linejoin:round" />
    <line
       x1="715.71997"
       x2="715.40997"
       y1="81.230003"
       y2="95.150002"
       id="line5070"
       style="fill:none;stroke:#808080;stroke-width:1.5;stroke-linecap:round;stroke-linejoin:round" />
    <line
       x1="678.71997"
       x2="678.45001"
       y1="80.459999"
       y2="94.379997"
       id="line5073"
       style="fill:none;stroke:#808080;stroke-width:1.5;stroke-linecap:round;stroke-linejoin:round" />
    <line
       x1="641.72998"
       x2="641.48999"
       y1="79.800003"
       y2="93.709999"
       id="line5076"
       style="fill:none;stroke:#808080;stroke-width:1.5;stroke-linecap:round;stroke-linejoin:round" />
    <line
       x1="715.71997"
       x2="715.40997"
       y1="81.230003"
       y2="95.150002"
       id="line5079"
       style="fill:none;stroke:#808080;stroke-width:1.5;stroke-linecap:round;stroke-linejoin:round" />
  </g>
  <g
     id="LINE_52_"
     transform="translate(529.86,225.82)"
     style="stroke-width:1.5" />
  <g
     id="LINE_53_"
     transform="translate(529.86,225.82)"
     style="stroke-width:1.5" />
  <g
     id="LINE_54_"
     transform="translate(529.86,225.82)"
     style="stroke-width:1.5" />
  <g
     id="LINE_55_"
     transform="translate(529.86,225.82)"
     style="stroke-width:1.5" />
  <g
     id="LINE_56_"
     transform="translate(529.86,225.82)"
     style="stroke-width:1.5" />
  <g
     id="LINE_57_"
     transform="translate(529.86 225.82)"
     stroke-width="1.5">
    <line
       x1="678.72"
       x2="678.45"
       y1="80.46"
       y2="94.38"
       fill="none"
       stroke="#808080"
       stroke-linecap="round"
       stroke-linejoin="round"
       stroke-width="1.5"
       id="line5082" />
  </g>
  <g
     id="LINE_58_"
     transform="translate(529.86 225.82)"
     stroke-width="1.5">
    <line
       x1="641.73"
       x2="641.49"
       y1="79.8"
       y2="93.71"
       fill="none"
       stroke="#808080"
       stroke-linecap="round"
       stroke-linejoin="round"
       stroke-width="1.5"
       id="line5085" />
  </g>
  <g
     id="LINE_59_"
     transform="translate(529.86,225.82)"
     style="stroke-width:1.5">
    <line
       x1="604.72998"
       x2="604.53003"
       y1="79.230003"
       y2="93.150002"
       id="line5088"
       style="fill:none;stroke:#808080;stroke-width:1.5;stroke-linecap:round;stroke-linejoin:round" />
  </g>
  <g
     id="LINE_60_"
     transform="translate(529.86,225.82)"
     style="stroke-width:1.5">
    <line
       x1="530.73999"
       x2="530.60999"
       y1="78.410004"
       y2="92.330002"
       id="line5091"
       style="fill:none;stroke:#808080;stroke-width:1.5;stroke-linecap:round;stroke-linejoin:round" />
  </g>
  <g
     id="LINE_61_"
     transform="translate(529.86,225.82)"
     style="stroke-width:1.5">
    <line
       x1="493.73999"
       x2="493.64999"
       y1="78.160004"
       y2="92.080002"
       id="line5094"
       style="fill:none;stroke:#808080;stroke-width:1.5;stroke-linecap:round;stroke-linejoin:round" />
  </g>
  <g
     id="LINE_62_"
     transform="translate(529.86,225.82)"
     style="stroke-width:1.5">
    <line
       x1="456.73999"
       x2="456.67999"
       y1="78"
       y2="91.919998"
       id="line5097"
       style="fill:none;stroke:#808080;stroke-width:1.5;stroke-linecap:round;stroke-linejoin:round" />
  </g>
  <g
     id="LINE"
     transform="translate(529.86,225.82)"
     style="stroke-width:1.5">
    <line
       x1="833.75"
       x2="807.25"
       y1="141.81"
       y2="141.81"
       id="line5100"
       style="fill:none;stroke:#000000;stroke-width:1.5;stroke-linecap:round;stroke-linejoin:round" />
  </g>
  <g
     id="girder"
     transform="translate(529.86,225.82)"
     style="fill:#ff0000;stroke:#1a1a1a;stroke-width:1.5">
    <path
       d="m 1274.6,109.87 h -54.02 l -30.01,-0.9 -4.95,-0.15 -70,-2.1 -15.05,-0.45 -19.95,-0.6 -100.05,-3 -109.95,-3.3 -10.05,-0.3 -24.95,-0.75 -7.55,-0.23 -7.45,-0.22 -7.55,-0.22 -7.45,-0.22 L 770.61,96.46 740.66,95.71 700.6,94.8 665.59,94.11 630.58,93.51 620.53,93.36 595.57,93 560.56,92.59 525.55,92.27 500.5,92.11 l -9.96,-0.07 -35.01,-0.14 -35.01,-0.05 -35.01,0.05 -35.01,0.14 -10.05,0.07 -24.96,0.16 -35.01,0.32 -35.01,0.41 -25.05,0.36 -9.96,0.14 -35.01,0.6 -35.01,0.69 -35.01,0.78 -4.95,0.12 -30.06,0.75 -35,0.97 -7.55,0.22 -7.45,0.22 -7.55,0.23 -7.45,0.22 -25.05,0.75 -9.95,0.3 -70,2.1 -40.05,1.2 -29.95,0.9 -70,2.1 -20.05,0.6 -14.95,0.45 -70,2.1 -5.05,0.15 -29.91,0.9 h -54.05 v 20 h 54.09 c 10,0 20,0.02 30,0.06 30,0.12 60,0.43 90,0.92 40.01,0.66 80.01,1.64 120,2.94 40.01,1.31 80.01,2.95 120,4.91 10.83,0.53 21.67,1.09 32.5,1.67 h 15 c 24.12,-3.53 48.29,-6.73 72.5,-9.59 39.91,-4.74 79.92,-8.6 120,-11.55 39.95,-2.95 79.96,-5.02 120,-6.2 26.66,-0.79 53.33,-1.18 80,-1.18 26.67,0 53.34,0.39 80,1.18 40.04,1.18 80.05,3.25 120,6.19 40.08,2.97 80.09,6.82 120,11.54 24.21,2.88 48.38,6.08 72.5,9.6 h 15 c 10.83,-0.59 21.67,-1.14 32.5,-1.66 39.99,-1.97 79.99,-3.61 120,-4.91 39.99,-1.31 79.99,-2.29 120,-2.94 30,-0.49 60,-0.8 90,-0.92 10,-0.04 20,-0.06 30,-0.06 h 54.06 V 109.87 Z M 620.54,93.38 v 25.84 m -120,-27.1 v 20.91 m -160,-20.91 v 20.91 m -120,-19.65 v 25.85 m -120,-23.51 v 35.06 m -120,-31.71 v 39.63 m -120,-36.03 v 31.12 m -120,-27.52 v 24.58 m -90,-21.88 v 20.96 m 1540,-20.96 v 20.96 m -90,-23.66 v 24.58 m -120,-28.18 v 31.12 m -120,-34.72 v 39.64 m -120,-42.99 v 35.05"
       id="path5103"
       inkscape:connector-curvature="0"
       style="fill:#ff0000;stroke:#1a1a1a;stroke-width:1.5;stroke-linecap:round;stroke-linejoin:round" />
  </g>
  <g
     transform="translate(529.86 225.82)"
     fill="#e3dbdb"
     stroke="#483737"
     id="g5115">
    <g
       id="LWPOLYLINE_4_">
      <polygon
         points="-456 174.01 -434.5 169.01 -434.5 146.01 -440.2 141.01 -440.2 109.88 -434.7 109.88 -434.7 136.01 -419.5 136.01 -419.5 141.01 -424.5 146.01 -424.5 169.01 -403 174.01 -403 181.01 -456 181.01"
         fill="#e3dbdb"
         stroke="#483737"
         stroke-miterlimit="10"
         id="polygon5106" />
    </g>
    <g
       id="LWPOLYLINE_5_">
      <rect
         x="-434.7"
         y="131.01"
         width="10.3"
         height="5"
         fill="#e3dbdb"
         stroke="#483737"
         stroke-miterlimit="10"
         id="rect5109" />
    </g>
    <g
       id="LWPOLYLINE_12_">
      <rect
         x="-431.25"
         y="129.87"
         width="3.5"
         height="1.14"
         fill="#e3dbdb"
         stroke="#483737"
         stroke-miterlimit="10"
         id="rect5112" />
    </g>
  </g>
  <g
     id="LWPOLYLINE_6_"
     transform="translate(529.86,225.82)"
     style="stroke-width:1.5">
    <rect
       x="1268.8"
       y="129.87"
       width="3.5"
       height="1.14"
       id="rect5117"
       style="fill:none;stroke:#ff0000;stroke-width:1.5;stroke-linecap:round;stroke-linejoin:round" />
  </g>
  <g
     transform="translate(529.86,225.82)"
     id="g5122"
     style="fill:#e3dbdb;stroke:#483737;stroke-width:1.5">
    <polygon
       points="1275.7,109.88 1275.7,136.01 1260.5,136.01 1260.5,141.01 1265.5,146.01 1265.5,169.01 1244,174.01 1244,181.01 1297,181.01 1297,174.01 1275.5,169.01 1275.5,146.01 1281.2,141.01 1281.2,109.88 "
       id="polygon5120"
       style="fill:#e3dbdb;stroke:#483737;stroke-width:1.5;stroke-linecap:round;stroke-linejoin:round" />
  </g>
  <g
     id="LWPOLYLINE_8_"
     transform="translate(529.86 225.82)"
     stroke-width="1.5">
    <rect
       x="1265.4"
       y="131.01"
       width="10.3"
       height="5"
       fill="none"
       stroke="#f00"
       stroke-linecap="round"
       stroke-linejoin="round"
       stroke-width="1.5"
       id="rect5124" />
  </g>
  <g
     id="LWPOLYLINE_11_"
     transform="translate(529.86 225.82)"
     stroke-width="1.5">
    <rect
       x="817.5"
       y="140.37"
       width="6"
       height="1.44"
       fill="none"
       stroke="#f00"
       stroke-linecap="round"
       stroke-linejoin="round"
       stroke-width="1.5"
       id="rect5127" />
  </g>
  <g
     transform="translate(529.86 225.82)"
     fill="url(#linearGradient28074)"
     stroke="#483737"
     stroke-width="1.5"
     id="g5136">
    <g
       id="LWPOLYLINE_9_">
      <polygon
         points="-21.5 192.81 -21.5 176.81 10 171.81 10 154.81 4.5 154.81 4.5 141.81 20.5 141.81 36.5 141.81 36.5 154.81 31 154.81 31 171.81 62.5 176.81 62.5 192.81"
         fill="url(#linearGradient28074)"
         stroke="#483737"
         stroke-linecap="round"
         stroke-linejoin="round"
         stroke-width="1.5"
         id="polygon5130" />
    </g>
    <g
       id="LWPOLYLINE_13_">
      <rect
         x="17.5"
         y="140.37"
         width="6"
         height="1.44"
         fill="url(#linearGradient28074)"
         stroke="#483737"
         stroke-linecap="round"
         stroke-linejoin="round"
         stroke-width="1.5"
         id="rect5133" />
    </g>
  </g>
  <g
     transform="translate(529.86 225.82)"
     fill="#e3dbdb"
     stroke="#483737"
     stroke-width="1.5"
     id="g5141">
    <g
       id="LWPOLYLINE_10_"
       fill="#e3dbdb"
       stroke="#483737"
       stroke-width="1.5">
      <polygon
         points="820.5 141.81 804.5 141.81 804.5 154.81 810 154.81 810 171.81 778.5 176.81 778.5 192.81 862.5 192.81 862.5 176.81 831 171.81 831 154.81 836.5 154.81 836.5 141.81"
         fill="#e3dbdb"
         stroke="#483737"
         stroke-linecap="round"
         stroke-linejoin="round"
         stroke-width="1.5"
         id="polygon5138" />
    </g>
  </g>
  <line
     x1="550.36"
     x2="550.36"
     y1="206.18"
     y2="1000.4"
     fill="none"
     stroke="#f0f"
     stroke-dasharray="18,18"
     stroke-linecap="round"
     stroke-linejoin="round"
     stroke-width="1.5"
     id="line5143" />
  <line
     x1="1350.4"
     x2="1350.4"
     y1="206.18"
     y2="1000.4"
     fill="none"
     stroke="#f0f"
     stroke-dasharray="18,18"
     stroke-linecap="round"
     stroke-linejoin="round"
     stroke-width="1.5"
     id="line5145" />
  <g
     id="LINE_65_"
     transform="translate(529.86 225.82)"
     stroke-dasharray="18, 18"
     stroke-width="1.5">
    <line
       x1="1270.5"
       x2="1270.5"
       y1="-19.64"
       y2="774.53"
       fill="none"
       stroke="#f0f"
       stroke-dasharray="18, 18"
       stroke-linecap="round"
       stroke-linejoin="round"
       stroke-width="1.5"
       id="line5147" />
  </g>
  <line
     x1="100.36"
     x2="100.36"
     y1="206.18"
     y2="1000.4"
     fill="none"
     stroke="#f0f"
     stroke-dasharray="18,18"
     stroke-linecap="round"
     stroke-linejoin="round"
     stroke-width="1.5"
     id="line5150" />
  <line
     x1="325.36"
     x2="325.36"
     y1="206.18"
     y2="1000.4"
     fill="none"
     stroke="#f0f"
     stroke-dasharray="18,18"
     stroke-linecap="round"
     stroke-linejoin="round"
     stroke-width="1.5"
     id="line5152" />
  <line
     x1="950.36"
     x2="950.36"
     y1="206.18"
     y2="1000.4"
     fill="none"
     stroke="#f0f"
     stroke-dasharray="18,18"
     stroke-linecap="round"
     stroke-linejoin="round"
     stroke-width="1.5"
     id="line5154" />
  <line
     x1="1575.4"
     x2="1575.4"
     y1="206.18"
     y2="1000.4"
     fill="none"
     stroke="#f0f"
     stroke-dasharray="18,18"
     stroke-linecap="round"
     stroke-linejoin="round"
     stroke-width="1.5"
     id="line5156" />
  <line
     x1="100.36"
     x2="1800.4"
     y1="800.35"
     y2="800.35"
     fill="none"
     stroke="#f0f"
     stroke-dasharray="18,18"
     stroke-linecap="round"
     stroke-linejoin="round"
     stroke-width="1.5"
     id="line5158" />
  <line
     x1="100.36"
     x2="1800.4"
     y1="1000.4"
     y2="1000.4"
     fill="none"
     stroke="#f0f"
     stroke-dasharray="18,18"
     stroke-linecap="round"
     stroke-linejoin="round"
     stroke-width="1.5"
     id="line5160" />
  <g
     id="CIRCLE"
     transform="translate(529.86 225.82)"
     stroke-width="1.5">
    <path
       d="m-457.41-47.56c0-15.42 12.5-27.91 27.91-27.91s27.91 12.5 27.91 27.91-12.5 27.91-27.91 27.91-27.91-12.49-27.91-27.91z"
       fill="none"
       stroke="#00f"
       stroke-linecap="round"
       stroke-linejoin="round"
       stroke-width="1.5"
       id="path5162" />
  </g>
  <g
     id="TEXT"
     transform="translate(529.86 225.82)"
     stroke-width="1.5">
    <text
       transform="translate(-446.8 -37.38)"
       fill="#0000ff"
       font-family="ArialMT"
       font-size="28.632px"
       stroke-width="1.5"
       id="text5165">A2</text>
  </g>
  <g
     id="CIRCLE_1_"
     transform="translate(529.86 225.82)"
     stroke-width="1.5">
    <path
       d="m-7.41-47.56c0-15.42 12.5-27.91 27.91-27.91s27.91 12.5 27.91 27.91-12.49 27.92-27.91 27.92-27.91-12.5-27.91-27.92z"
       fill="none"
       stroke="#00f"
       stroke-linecap="round"
       stroke-linejoin="round"
       stroke-width="1.5"
       id="path5168" />
  </g>
  <g
     id="TEXT_1_"
     transform="translate(529.86 225.82)"
     stroke-width="1.5">
    <text
       transform="translate(3.1811 -37.38)"
       fill="#0000ff"
       font-family="ArialMT"
       font-size="28.632px"
       stroke-width="1.5"
       id="text5171">P2</text>
  </g>
  <g
     id="CIRCLE_2_"
     transform="translate(529.86 225.82)"
     stroke-width="1.5">
    <path
       d="m792.59-47.56c0-15.42 12.5-27.91 27.91-27.91s27.91 12.5 27.91 27.91-12.5 27.91-27.91 27.91-27.91-12.49-27.91-27.91z"
       fill="none"
       stroke="#00f"
       stroke-linecap="round"
       stroke-linejoin="round"
       stroke-width="1.5"
       id="path5174" />
  </g>
  <g
     id="TEXT_2_"
     transform="translate(529.86 225.82)"
     stroke-width="1.5">
    <text
       transform="translate(803.18 -37.38)"
       fill="#0000ff"
       font-family="ArialMT"
       font-size="28.632px"
       stroke-width="1.5"
       id="text5177">P1</text>
  </g>
  <g
     id="CIRCLE_3_"
     transform="translate(529.86 225.82)"
     stroke-width="1.5">
    <path
       d="m1242.6-47.56c0-15.42 12.5-27.91 27.91-27.91s27.91 12.5 27.91 27.91-12.5 27.91-27.91 27.91-27.91-12.49-27.91-27.91z"
       fill="none"
       stroke="#00f"
       stroke-linecap="round"
       stroke-linejoin="round"
       stroke-width="1.5"
       id="path5180" />
  </g>
  <g
     id="TEXT_3_"
     transform="translate(529.86 225.82)"
     stroke-width="1.5">
    <text
       transform="translate(1253.2 -37.38)"
       fill="#0000ff"
       font-family="ArialMT"
       font-size="28.632px"
       stroke-width="1.5"
       id="text5183">A1</text>
  </g>
  <g
     id="TEXT_4_"
     transform="translate(529.86 225.82)"
     stroke-width="1.5">
    <text
       transform="translate(-298.18 -156.31)"
       fill="#0000ff"
       font-family="ArialMT"
       font-size="54.118px"
       stroke-width="1.5"
       id="text5186">KUDUS</text>
  </g>
  <g
     id="TEXT_5_"
     transform="translate(529.86 225.82)"
     stroke-width="1.5">
    <text
       transform="translate(950.33 -156.31)"
       fill="#0000ff"
       font-family="ArialMT"
       font-size="54.118px"
       stroke-width="1.5"
       id="text5189">DEMAK</text>
  </g>
  <g
     id="LINE_71_"
     transform="translate(529.86 225.82)">
    <line
       x1="-529.5"
       x2="-516.25"
       y1="374.53"
       y2="374.53"
       fill="none"
       stroke="#808080"
       stroke-linecap="round"
       stroke-linejoin="round"
       id="line5192" />
  </g>
  <g
     id="LINE_72_"
     transform="translate(529.86 225.82)">
    <line
       x1="-529.5"
       x2="-529.5"
       y1="361.28"
       y2="387.78"
       fill="none"
       stroke="#808080"
       stroke-linecap="round"
       stroke-linejoin="round"
       id="line5195" />
  </g>
  <g
     id="LWPOLYLINE_14_"
     transform="translate(529.86 225.82)">
    <polyline
       points="-529.5 -212.22 -529.5 -225.47 -516.25 -225.47"
       fill="none"
       stroke="#808080"
       stroke-linecap="round"
       stroke-linejoin="round"
       id="polyline5198" />
  </g>
  <g
     id="LINE_73_"
     transform="translate(529.86 225.82)">
    <line
       x1="-529.5"
       x2="-516.25"
       y1="574.53"
       y2="574.53"
       fill="none"
       stroke="#808080"
       stroke-linecap="round"
       stroke-linejoin="round"
       id="line5201" />
  </g>
  <g
     id="LINE_74_"
     transform="translate(529.86 225.82)">
    <line
       x1="-529.5"
       x2="-529.5"
       y1="561.28"
       y2="587.78"
       fill="none"
       stroke="#808080"
       stroke-linecap="round"
       stroke-linejoin="round"
       id="line5204" />
  </g>
  <g
     id="LWPOLYLINE_25_"
     transform="translate(529.86 225.82)">
    <polyline
       points="-529.5 807.78 -529.5 821.03 -516.25 821.03"
       fill="none"
       stroke="#808080"
       stroke-linecap="round"
       stroke-linejoin="round"
       id="polyline5207" />
  </g>
  <g
     id="LINE_109_"
     transform="translate(529.86 225.82)">
    <line
       x1="1370.5"
       x2="1357.2"
       y1="374.53"
       y2="374.53"
       fill="none"
       stroke="#808080"
       stroke-linecap="round"
       stroke-linejoin="round"
       id="line5210" />
  </g>
  <g
     id="LINE_110_"
     transform="translate(529.86 225.82)">
    <line
       x1="1370.5"
       x2="1370.5"
       y1="361.28"
       y2="387.78"
       fill="none"
       stroke="#808080"
       stroke-linecap="round"
       stroke-linejoin="round"
       id="line5213" />
  </g>
  <g
     id="LWPOLYLINE_26_"
     transform="translate(529.86 225.82)">
    <polyline
       points="1370.5 -212.22 1370.5 -225.47 1357.2 -225.47"
       fill="none"
       stroke="#808080"
       stroke-linecap="round"
       stroke-linejoin="round"
       id="polyline5216" />
  </g>
  <g
     id="LINE_111_"
     transform="translate(529.86 225.82)">
    <line
       x1="1370.5"
       x2="1357.2"
       y1="574.53"
       y2="574.53"
       fill="none"
       stroke="#808080"
       stroke-linecap="round"
       stroke-linejoin="round"
       id="line5219" />
  </g>
  <g
     id="LINE_112_"
     transform="translate(529.86 225.82)">
    <line
       x1="1370.5"
       x2="1370.5"
       y1="561.28"
       y2="587.78"
       fill="none"
       stroke="#808080"
       stroke-linecap="round"
       stroke-linejoin="round"
       id="line5222" />
  </g>
  <g
     id="LWPOLYLINE_27_"
     transform="translate(529.86 225.82)">
    <polyline
       points="1370.5 807.78 1370.5 821.03 1357.2 821.03"
       fill="none"
       stroke="#808080"
       stroke-linecap="round"
       stroke-linejoin="round"
       id="polyline5225" />
  </g>
  <g
     transform="translate(529.86,225.82)"
     id="g5264"
     style="fill:#ffffff;stroke:#483737;stroke-width:1.5">
    <g
       id="LWPOLYLINE_15_">
      <polygon
         points="20.5,349.53 1.33,383.88 39.67,383.88 "
         id="polygon5228"
         style="fill:#ffffff;stroke:#483737;stroke-width:1.5;stroke-linecap:round;stroke-linejoin:round" />
    </g>
    <g
       id="LINE_77_">
      <line
         x1="55.330002"
         x2="-14.33"
         y1="383.88"
         y2="383.88"
         id="line5231"
         style="fill:#ffffff;stroke:#483737;stroke-width:1.5;stroke-linecap:round;stroke-linejoin:round" />
    </g>
    <g
       id="LINE_78_">
      <line
         x1="-12.31"
         x2="-2.72"
         y1="401.04999"
         y2="383.88"
         id="line5234"
         style="fill:#ffffff;stroke:#483737;stroke-width:1.5;stroke-linecap:round;stroke-linejoin:round" />
    </g>
    <g
       id="POINT">
      <line
         x1="43.720001"
         x2="43.720001"
         y1="383.88"
         y2="383.88"
         id="line5237"
         style="fill:#ffffff;stroke:#483737;stroke-width:1.5;stroke-linecap:round;stroke-linejoin:round" />
    </g>
    <g
       id="POINT_1_">
      <line
         x1="32.110001"
         x2="32.110001"
         y1="383.88"
         y2="383.88"
         id="line5240"
         style="fill:#ffffff;stroke:#483737;stroke-width:1.5;stroke-linecap:round;stroke-linejoin:round" />
    </g>
    <g
       id="POINT_2_">
      <line
         x1="20.5"
         x2="20.5"
         y1="383.88"
         y2="383.88"
         id="line5243"
         style="fill:#ffffff;stroke:#483737;stroke-width:1.5;stroke-linecap:round;stroke-linejoin:round" />
    </g>
    <g
       id="POINT_3_">
      <line
         x1="8.8900003"
         x2="8.8900003"
         y1="383.88"
         y2="383.88"
         id="line5246"
         style="fill:#ffffff;stroke:#483737;stroke-width:1.5;stroke-linecap:round;stroke-linejoin:round" />
    </g>
    <g
       id="POINT_4_">
      <line
         x1="-2.72"
         x2="-2.72"
         y1="383.88"
         y2="383.88"
         id="line5249"
         style="fill:#ffffff;stroke:#483737;stroke-width:1.5;stroke-linecap:round;stroke-linejoin:round" />
    </g>
    <g
       id="LINE_79_">
      <line
         x1="-0.69999999"
         x2="8.8900003"
         y1="401.04999"
         y2="383.88"
         id="line5252"
         style="fill:#ffffff;stroke:#483737;stroke-width:1.5;stroke-linecap:round;stroke-linejoin:round" />
    </g>
    <g
       id="LINE_80_">
      <line
         x1="10.91"
         x2="20.5"
         y1="401.04999"
         y2="383.88"
         id="line5255"
         style="fill:#ffffff;stroke:#483737;stroke-width:1.5;stroke-linecap:round;stroke-linejoin:round" />
    </g>
    <g
       id="LINE_81_">
      <line
         x1="22.530001"
         x2="32.110001"
         y1="401.04999"
         y2="383.88"
         id="line5258"
         style="fill:#ffffff;stroke:#483737;stroke-width:1.5;stroke-linecap:round;stroke-linejoin:round" />
    </g>
    <g
       id="LINE_82_">
      <line
         x1="34.139999"
         x2="43.720001"
         y1="401.04999"
         y2="383.88"
         id="line5261"
         style="fill:#ffffff;stroke:#483737;stroke-width:1.5;stroke-linecap:round;stroke-linejoin:round" />
    </g>
  </g>
  <g
     transform="translate(529.86 225.82)"
     fill="#fff"
     stroke="#483737"
     stroke-width="1.5"
     id="g5302">
    <g
       id="LWPOLYLINE_16_">
      <polygon
         points="820.5 349.53 801.33 383.88 839.67 383.88"
         fill="#fff"
         stroke="#483737"
         stroke-linecap="round"
         stroke-linejoin="round"
         stroke-width="1.5"
         id="polygon5266" />
    </g>
    <g
       id="LINE_83_">
      <line
         x1="855.33"
         x2="785.67"
         y1="383.88"
         y2="383.88"
         fill="#fff"
         stroke="#483737"
         stroke-linecap="round"
         stroke-linejoin="round"
         stroke-width="1.5"
         id="line5269" />
    </g>
    <g
       id="LINE_84_">
      <line
         x1="787.69"
         x2="797.28"
         y1="401.05"
         y2="383.88"
         fill="#fff"
         stroke="#483737"
         stroke-linecap="round"
         stroke-linejoin="round"
         stroke-width="1.5"
         id="line5272" />
    </g>
    <g
       id="POINT_5_">
      <line
         x1="843.72"
         x2="843.72"
         y1="383.88"
         y2="383.88"
         fill="#fff"
         stroke="#483737"
         stroke-linecap="round"
         stroke-linejoin="round"
         stroke-width="1.5"
         id="line5275" />
    </g>
    <g
       id="POINT_6_">
      <line
         x1="832.11"
         x2="832.11"
         y1="383.88"
         y2="383.88"
         fill="#fff"
         stroke="#483737"
         stroke-linecap="round"
         stroke-linejoin="round"
         stroke-width="1.5"
         id="line5278" />
    </g>
    <g
       id="POINT_7_">
      <line
         x1="820.5"
         x2="820.5"
         y1="383.88"
         y2="383.88"
         fill="#fff"
         stroke="#483737"
         stroke-linecap="round"
         stroke-linejoin="round"
         stroke-width="1.5"
         id="line5281" />
    </g>
    <g
       id="POINT_8_">
      <line
         x1="808.89"
         x2="808.89"
         y1="383.88"
         y2="383.88"
         fill="#fff"
         stroke="#483737"
         stroke-linecap="round"
         stroke-linejoin="round"
         stroke-width="1.5"
         id="line5284" />
    </g>
    <g
       id="POINT_9_">
      <line
         x1="797.28"
         x2="797.28"
         y1="383.88"
         y2="383.88"
         fill="#fff"
         stroke="#483737"
         stroke-linecap="round"
         stroke-linejoin="round"
         stroke-width="1.5"
         id="line5287" />
    </g>
    <g
       id="LINE_85_">
      <line
         x1="799.3"
         x2="808.89"
         y1="401.05"
         y2="383.88"
         fill="#fff"
         stroke="#483737"
         stroke-linecap="round"
         stroke-linejoin="round"
         stroke-width="1.5"
         id="line5290" />
    </g>
    <g
       id="LINE_86_">
      <line
         x1="810.91"
         x2="820.5"
         y1="401.05"
         y2="383.88"
         fill="#fff"
         stroke="#483737"
         stroke-linecap="round"
         stroke-linejoin="round"
         stroke-width="1.5"
         id="line5293" />
    </g>
    <g
       id="LINE_87_">
      <line
         x1="822.53"
         x2="832.11"
         y1="401.05"
         y2="383.88"
         fill="#fff"
         stroke="#483737"
         stroke-linecap="round"
         stroke-linejoin="round"
         stroke-width="1.5"
         id="line5296" />
    </g>
    <g
       id="LINE_88_">
      <line
         x1="834.14"
         x2="843.72"
         y1="401.05"
         y2="383.88"
         fill="#fff"
         stroke="#483737"
         stroke-linecap="round"
         stroke-linejoin="round"
         stroke-width="1.5"
         id="line5299" />
    </g>
  </g>
  <g
     transform="translate(529.86 225.82)"
     fill="#fff"
     stroke="#483737"
     stroke-width="1.5"
     id="g5340">
    <g
       id="LWPOLYLINE_17_">
      <polygon
         points="1270.5 374.53 1251.3 408.88 1289.7 408.88"
         fill="#fff"
         stroke="#483737"
         stroke-linecap="round"
         stroke-linejoin="round"
         stroke-width="1.5"
         id="polygon5304" />
    </g>
    <g
       id="LINE_89_">
      <line
         x1="1305.3"
         x2="1235.7"
         y1="408.88"
         y2="408.88"
         fill="#fff"
         stroke="#483737"
         stroke-linecap="round"
         stroke-linejoin="round"
         stroke-width="1.5"
         id="line5307" />
    </g>
    <g
       id="LINE_90_">
      <line
         x1="1237.7"
         x2="1247.3"
         y1="426.05"
         y2="408.88"
         fill="#fff"
         stroke="#483737"
         stroke-linecap="round"
         stroke-linejoin="round"
         stroke-width="1.5"
         id="line5310" />
    </g>
    <g
       id="POINT_10_">
      <line
         x1="1293.7"
         x2="1293.7"
         y1="408.88"
         y2="408.88"
         fill="#fff"
         stroke="#483737"
         stroke-linecap="round"
         stroke-linejoin="round"
         stroke-width="1.5"
         id="line5313" />
    </g>
    <g
       id="POINT_11_">
      <line
         x1="1282.1"
         x2="1282.1"
         y1="408.88"
         y2="408.88"
         fill="#fff"
         stroke="#483737"
         stroke-linecap="round"
         stroke-linejoin="round"
         stroke-width="1.5"
         id="line5316" />
    </g>
    <g
       id="POINT_12_">
      <line
         x1="1270.5"
         x2="1270.5"
         y1="408.88"
         y2="408.88"
         fill="#fff"
         stroke="#483737"
         stroke-linecap="round"
         stroke-linejoin="round"
         stroke-width="1.5"
         id="line5319" />
    </g>
    <g
       id="POINT_13_">
      <line
         x1="1258.9"
         x2="1258.9"
         y1="408.88"
         y2="408.88"
         fill="#fff"
         stroke="#483737"
         stroke-linecap="round"
         stroke-linejoin="round"
         stroke-width="1.5"
         id="line5322" />
    </g>
    <g
       id="POINT_14_">
      <line
         x1="1247.3"
         x2="1247.3"
         y1="408.88"
         y2="408.88"
         fill="#fff"
         stroke="#483737"
         stroke-linecap="round"
         stroke-linejoin="round"
         stroke-width="1.5"
         id="line5325" />
    </g>
    <g
       id="LINE_91_">
      <line
         x1="1249.3"
         x2="1258.9"
         y1="426.05"
         y2="408.88"
         fill="#fff"
         stroke="#483737"
         stroke-linecap="round"
         stroke-linejoin="round"
         stroke-width="1.5"
         id="line5328" />
    </g>
    <g
       id="LINE_92_">
      <line
         x1="1260.9"
         x2="1270.5"
         y1="426.05"
         y2="408.88"
         fill="#fff"
         stroke="#483737"
         stroke-linecap="round"
         stroke-linejoin="round"
         stroke-width="1.5"
         id="line5331" />
    </g>
    <g
       id="LINE_93_">
      <line
         x1="1272.5"
         x2="1282.1"
         y1="426.05"
         y2="408.88"
         fill="#fff"
         stroke="#483737"
         stroke-linecap="round"
         stroke-linejoin="round"
         stroke-width="1.5"
         id="line5334" />
    </g>
    <g
       id="LINE_94_">
      <line
         x1="1284.1"
         x2="1293.7"
         y1="426.05"
         y2="408.88"
         fill="#fff"
         stroke="#483737"
         stroke-linecap="round"
         stroke-linejoin="round"
         stroke-width="1.5"
         id="line5337" />
    </g>
  </g>
  <g
     id="curve_ori"
     transform="translate(529.86 225.82)"
     stroke-width="1.5">
    <g
       id="SPLINE"
       stroke-width="1.5">
      <path
         d="m-429.5 374.53c149.94-9.47 299.88-18.94 450-25 266.47-10.75 533.53-10.75 800 0 150.12 6.06 300.06 15.53 450 25"
         fill="none"
         stroke="#008000"
         stroke-linecap="round"
         stroke-linejoin="round"
         stroke-width="1.5"
         id="path5342" />
    </g>
  </g>
  <g
     transform="translate(529.86 225.82)"
     fill="#aad400"
     stroke="#000"
     stroke-width="1.5"
     id="g5349">
    <g
       id="CIRCLE_4_"
       fill="#aad400"
       stroke="#000"
       stroke-width="1.5">
      <path
         d="m-215.23 360.75c0-5.93 4.8-10.73 10.73-10.73s10.73 4.8 10.73 10.73-4.8 10.73-10.73 10.73-10.73-4.81-10.73-10.73z"
         fill="#aad400"
         stroke="#000"
         stroke-linecap="round"
         stroke-linejoin="round"
         stroke-width="1.5"
         id="path5346" />
    </g>
  </g>
  <g
     transform="translate(529.86 225.82)"
     fill="#aad400"
     stroke="#000"
     stroke-width="1.5"
     id="g5354">
    <g
       id="CIRCLE_5_"
       fill="#aad400"
       stroke="#000"
       stroke-width="1.5">
      <path
         d="m409.77 341.47c0-5.93 4.8-10.73 10.73-10.73s10.73 4.8 10.73 10.73-4.8 10.73-10.73 10.73-10.73-4.81-10.73-10.73z"
         fill="#aad400"
         stroke="#000"
         stroke-linecap="round"
         stroke-linejoin="round"
         stroke-width="1.5"
         id="path5351" />
    </g>
  </g>
  <g
     transform="translate(529.86 225.82)"
     fill="#aad400"
     stroke="#000"
     stroke-width="1.5"
     id="g5359">
    <g
       id="CIRCLE_6_"
       fill="#aad400"
       stroke="#000"
       stroke-width="1.5">
      <path
         d="m1034.8 360.75c0-5.93 4.8-10.73 10.73-10.73s10.73 4.8 10.73 10.73-4.8 10.73-10.73 10.73-10.73-4.81-10.73-10.73z"
         fill="#aad400"
         stroke="#000"
         stroke-linecap="round"
         stroke-linejoin="round"
         stroke-width="1.5"
         id="path5356" />
    </g>
  </g>
  <g
     transform="translate(529.86 225.82)"
     fill="#fff"
     stroke="#483737"
     stroke-width="1.5"
     id="g5363">
    <path
       d="m-415.86 426.05 9.58-17.17m-21.19 17.17 9.58-17.17m-21.2 17.17 9.59-17.17m-21.2 17.17 9.59-17.17m-11.61 0v0m11.61 0v0m11.61 0v0m11.61 0v0m11.61 0v0m-56.03 17.17 9.59-17.17m58.05 0h-69.66m54 0-19.17-34.35-19.17 34.35z"
       fill="#fff"
       stroke="#483737"
       stroke-linecap="round"
       stroke-linejoin="round"
       stroke-width="1.5"
       id="path5361" />
  </g>
</svg>
