<?xml version="1.0" encoding="utf-8"?>
<!-- Generator: Adobe Illustrator 19.0.0, SVG Export Plug-In . SVG Version: 6.00 Build 0)  -->
<svg version="1.1" xmlns="http://www.w3.org/2000/svg" xmlns:xlink="http://www.w3.org/1999/xlink" x="0px" y="0px"
	 viewBox="0 0 1900.71 1047.21" style="enable-background:new 0 0 1900.71 1047.21;" xml:space="preserve">
<style type="text/css">
	.st0{fill:none;stroke:#808080;stroke-width:0.4252;stroke-linecap:round;stroke-linejoin:round;stroke-miterlimit:10;}
	.st1{fill:none;stroke:#000000;stroke-width:0.7087;stroke-linecap:round;stroke-linejoin:round;stroke-miterlimit:10;}
	.st2{fill:none;stroke:#0000FF;stroke-width:0.7087;stroke-linecap:round;stroke-linejoin:round;stroke-miterlimit:10;}
	.st3{fill:none;stroke:#0000FF;stroke-width:0;stroke-linecap:round;stroke-linejoin:round;stroke-miterlimit:10;}
	.st4{fill:none;stroke:#FF0000;stroke-width:0.7087;stroke-linecap:round;stroke-linejoin:round;stroke-miterlimit:10;}
	
		.st5{fill:none;stroke:#FF00FF;stroke-width:0.7087;stroke-linecap:round;stroke-linejoin:round;stroke-miterlimit:10;stroke-dasharray:48,12;}
	.st6{fill:#0000FF;}
	.st7{font-family:'ArialMT';}
	.st8{font-size:28.6315px;}
	.st9{font-size:54.1176px;}
	.st10{fill:none;stroke:#808080;stroke-width:0.7087;stroke-linecap:round;stroke-linejoin:round;stroke-miterlimit:10;}
</style>
<g id="rail">
	<g id="LWPOLYLINE">
		<polyline class="st0" points="97.32,331.15 150.25,331.15 180.09,330.26 185.14,330.1 220.14,329.05 255.14,328 270.09,327.56 
			290.14,326.95 325.14,325.9 360.14,324.85 390.09,323.96 430.14,322.75 465.14,321.7 500.14,320.65 510.09,320.36 535.14,319.6 
			542.59,319.38 550.14,319.15 557.6,318.94 565.15,318.71 600.17,317.75 630.23,317 635.18,316.88 670.2,316.09 705.22,315.4 
			740.24,314.81 750.2,314.66 775.26,314.3 810.28,313.89 845.3,313.57 870.26,313.4 880.31,313.34 915.33,313.2 950.35,313.15 
			985.37,313.2 1020.39,313.34 1030.35,313.4 1055.41,313.57 1090.42,313.89 1125.44,314.3 1150.41,314.66 1160.46,314.81 
			1195.48,315.4 1230.5,316.09 1270.57,317 1300.54,317.75 1335.55,318.71 1343.01,318.93 1350.56,319.15 1358.02,319.38 
			1365.57,319.6 1390.52,320.35 1400.57,320.65 1435.57,321.7 1470.57,322.75 1510.52,323.95 1540.57,324.85 1575.57,325.9 
			1610.57,326.95 1630.52,327.55 1645.57,328 1680.57,329.05 1715.57,330.1 1720.52,330.25 1750.46,331.15 1803.36,331.15 		"/>
	</g>
	<g id="LWPOLYLINE_1_">
		<polyline class="st0" points="97.32,327.15 150.19,327.15 179.97,326.26 185.02,326.11 220.02,325.06 255.02,324.01 
			269.97,323.56 290.02,322.96 325.02,321.91 360.02,320.86 389.97,319.96 430.02,318.76 465.02,317.71 500.02,316.66 
			509.97,316.36 535.02,315.61 542.47,315.38 550.02,315.16 557.48,314.94 565.04,314.72 600.06,313.75 630.13,313 635.09,312.88 
			670.12,312.1 705.15,311.41 740.18,310.81 750.14,310.66 775.21,310.3 810.24,309.89 845.26,309.57 870.23,309.4 880.29,309.34 
			915.32,309.2 950.35,309.15 985.38,309.2 1020.41,309.34 1030.38,309.4 1055.44,309.57 1090.47,309.89 1125.5,310.3 
			1150.46,310.66 1160.53,310.81 1195.55,311.41 1230.58,312.1 1270.67,313 1300.64,313.75 1335.67,314.72 1343.13,314.93 
			1350.68,315.16 1358.14,315.38 1365.69,315.61 1390.64,316.35 1400.69,316.66 1435.69,317.71 1470.69,318.76 1510.64,319.95 
			1540.69,320.86 1575.69,321.91 1610.69,322.96 1630.64,323.55 1645.69,324.01 1680.69,325.06 1715.69,326.11 1720.64,326.25 
			1750.52,327.15 1803.36,327.15 		"/>
	</g>
	<g id="LWPOLYLINE_2_">
		<polyline class="st0" points="97.32,323.15 150.13,323.15 179.85,322.26 184.9,322.11 219.9,321.06 254.9,320.01 269.85,319.56 
			289.9,318.96 324.9,317.91 359.9,316.86 389.85,315.96 429.9,314.76 464.9,313.71 499.9,312.66 509.85,312.36 534.9,311.61 
			542.35,311.38 549.9,311.16 557.36,310.94 564.92,310.72 599.96,309.75 630.03,309 635,308.88 670.04,308.1 705.07,307.41 
			740.11,306.81 750.09,306.66 775.15,306.3 810.19,305.89 845.23,305.57 870.21,305.4 880.27,305.34 915.31,305.2 950.35,305.15 
			985.39,305.2 1020.43,305.34 1030.4,305.4 1055.47,305.57 1090.51,305.89 1125.55,306.3 1150.52,306.66 1160.59,306.81 
			1195.63,307.41 1230.67,308.1 1270.76,309 1300.75,309.75 1335.78,310.72 1343.25,310.94 1350.8,311.16 1358.26,311.38 
			1365.81,311.61 1390.76,312.36 1400.81,312.66 1435.81,313.71 1470.81,314.76 1510.76,315.96 1540.81,316.86 1575.81,317.91 
			1610.81,318.96 1630.76,319.56 1645.81,320.01 1680.81,321.06 1715.81,322.11 1720.76,322.26 1750.58,323.15 1803.36,323.15 		"/>
	</g>
	<g id="LINE_15_">
		<line class="st0" x1="99.71" y1="321.78" x2="99.71" y2="335.7"/>
	</g>
	<g id="LINE_16_">
		<line class="st0" x1="127.59" y1="321.78" x2="127.59" y2="335.7"/>
	</g>
	<g id="LINE_17_">
		<line class="st0" x1="155.85" y1="321.39" x2="156.27" y2="335.52"/>
	</g>
	<g id="LINE_18_">
		<line class="st0" x1="211.33" y1="319.94" x2="211.74" y2="333.85"/>
	</g>
	<g id="LINE_19_">
		<line class="st0" x1="248.31" y1="318.83" x2="248.73" y2="332.74"/>
	</g>
	<g id="LINE_20_">
		<line class="st0" x1="285.29" y1="317.72" x2="285.71" y2="331.63"/>
	</g>
	<g id="LINE_21_">
		<line class="st0" x1="322.28" y1="316.61" x2="322.69" y2="330.52"/>
	</g>
	<g id="LINE_22_">
		<line class="st0" x1="359.26" y1="315.5" x2="359.68" y2="329.42"/>
	</g>
	<g id="LINE_23_">
		<line class="st0" x1="396.24" y1="314.39" x2="396.66" y2="328.31"/>
	</g>
	<g id="LINE_24_">
		<line class="st0" x1="433.23" y1="313.28" x2="433.64" y2="327.2"/>
	</g>
	<g id="LINE_25_">
		<line class="st0" x1="470.21" y1="312.17" x2="470.63" y2="326.09"/>
	</g>
	<g id="LINE_26_">
		<line class="st0" x1="507.19" y1="311.06" x2="507.61" y2="324.98"/>
	</g>
	<g id="LINE_27_">
		<line class="st0" x1="544.18" y1="309.95" x2="544.59" y2="323.87"/>
	</g>
	<g id="LINE_28_">
		<line class="st0" x1="581.16" y1="308.89" x2="581.55" y2="322.81"/>
	</g>
	<g id="LINE_29_">
		<line class="st0" x1="618.15" y1="307.92" x2="618.5" y2="321.84"/>
	</g>
	<g id="LINE_30_">
		<line class="st0" x1="655.14" y1="307.05" x2="655.45" y2="320.97"/>
	</g>
	<g id="LINE_31_">
		<line class="st0" x1="692.13" y1="306.29" x2="692.4" y2="320.2"/>
	</g>
	<g id="LINE_32_">
		<line class="st0" x1="729.12" y1="305.62" x2="729.36" y2="319.54"/>
	</g>
	<g id="LINE_33_">
		<line class="st0" x1="766.12" y1="305.06" x2="766.32" y2="318.98"/>
	</g>
	<g id="LINE_34_">
		<line class="st0" x1="803.12" y1="304.6" x2="803.28" y2="318.52"/>
	</g>
	<g id="LINE_35_">
		<line class="st0" x1="840.12" y1="304.24" x2="840.24" y2="318.16"/>
	</g>
	<g id="LINE_36_">
		<line class="st0" x1="877.11" y1="303.98" x2="877.21" y2="317.9"/>
	</g>
	<g id="LINE_37_">
		<line class="st0" x1="914.11" y1="303.83" x2="914.17" y2="317.75"/>
	</g>
	<g id="LINE_38_">
		<line class="st0" x1="950.35" y1="303.83" x2="950.35" y2="317.7"/>
	</g>
	<g id="LINE_39_">
		<line class="st0" x1="1801" y1="321.78" x2="1801" y2="335.7"/>
	</g>
	<g id="LINE_40_">
		<line class="st0" x1="1773.12" y1="321.78" x2="1773.12" y2="335.7"/>
	</g>
	<g id="LINE_41_">
		<line class="st0" x1="1689.38" y1="319.94" x2="1688.96" y2="333.85"/>
	</g>
	<g id="LINE_42_">
		<line class="st0" x1="1652.4" y1="318.83" x2="1651.98" y2="332.74"/>
	</g>
	<g id="LINE_43_">
		<line class="st0" x1="1615.42" y1="317.72" x2="1615" y2="331.63"/>
	</g>
	<g id="LINE_44_">
		<line class="st0" x1="1578.43" y1="316.61" x2="1578.01" y2="330.52"/>
	</g>
	<g id="LINE_45_">
		<line class="st0" x1="1541.45" y1="315.5" x2="1541.03" y2="329.42"/>
	</g>
	<g id="LINE_46_">
		<line class="st0" x1="1504.47" y1="314.39" x2="1504.05" y2="328.31"/>
	</g>
	<g id="LINE_47_">
		<line class="st0" x1="1467.48" y1="313.28" x2="1467.06" y2="327.2"/>
	</g>
	<g id="LINE_48_">
		<line class="st0" x1="1430.5" y1="312.17" x2="1430.08" y2="326.09"/>
	</g>
	<g id="LINE_49_">
		<line class="st0" x1="1393.52" y1="311.06" x2="1393.1" y2="324.98"/>
	</g>
	<g id="LINE_50_">
		<line class="st0" x1="1356.53" y1="309.95" x2="1356.11" y2="323.87"/>
	</g>
	<g id="LINE_51_">
		<line class="st0" x1="1319.55" y1="308.89" x2="1319.16" y2="322.81"/>
	</g>
	<g id="LINE_52_">
		<line class="st0" x1="1282.56" y1="307.92" x2="1282.21" y2="321.84"/>
	</g>
	<g id="LINE_53_">
		<line class="st0" x1="1245.57" y1="307.05" x2="1245.26" y2="320.97"/>
	</g>
	<g id="LINE_54_">
		<line class="st0" x1="1208.58" y1="306.29" x2="1208.3" y2="320.2"/>
	</g>
	<g id="LINE_55_">
		<line class="st0" x1="1171.58" y1="305.62" x2="1171.35" y2="319.54"/>
	</g>
	<g id="LINE_56_">
		<line class="st0" x1="1245.57" y1="307.05" x2="1245.26" y2="320.97"/>
	</g>
	<g id="LINE_57_">
		<line class="st0" x1="1208.58" y1="306.29" x2="1208.3" y2="320.2"/>
	</g>
	<g id="LINE_58_">
		<line class="st0" x1="1171.58" y1="305.62" x2="1171.35" y2="319.54"/>
	</g>
	<g id="LINE_59_">
		<line class="st0" x1="1134.59" y1="305.06" x2="1134.39" y2="318.98"/>
	</g>
	<g id="LINE_60_">
		<line class="st0" x1="1060.59" y1="304.24" x2="1060.47" y2="318.16"/>
	</g>
	<g id="LINE_61_">
		<line class="st0" x1="1023.59" y1="303.98" x2="1023.5" y2="317.9"/>
	</g>
	<g id="LINE_62_">
		<line class="st0" x1="986.59" y1="303.83" x2="986.54" y2="317.75"/>
	</g>
	<g id="LWPOLYLINE_20_">
		<line class="st0" x1="97.32" y1="924.67" x2="146.16" y2="924.67"/>
	</g>
	<g id="LWPOLYLINE_21_">
		<line class="st0" x1="97.32" y1="920.67" x2="147.65" y2="920.67"/>
	</g>
	<g id="LWPOLYLINE_22_">
		<line class="st0" x1="97.32" y1="916.67" x2="149.14" y2="916.67"/>
	</g>
	<g id="LINE_104_">
		<line class="st0" x1="99.71" y1="915.29" x2="99.71" y2="929.21"/>
	</g>
	<g id="LINE_105_">
		<line class="st0" x1="127.59" y1="915.29" x2="127.59" y2="929.21"/>
	</g>
</g>
<g id="tumpuan_x5F_A2">
	<g id="LINE">
		<line class="st1" x1="1363.6" y1="367.63" x2="1337.1" y2="367.63"/>
	</g>
	<g id="LWPOLYLINE_18_">
		<polygon class="st2" points="81.18,634.7 119.53,634.7 100.35,600.35 		"/>
	</g>
	<g id="LINE_95_">
		<line class="st2" x1="135.19" y1="634.7" x2="65.52" y2="634.7"/>
	</g>
	<g id="LINE_96_">
		<line class="st2" x1="67.55" y1="651.88" x2="77.13" y2="634.7"/>
	</g>
	<g id="POINT_15_">
		<line class="st3" x1="123.58" y1="634.7" x2="123.58" y2="634.7"/>
	</g>
	<g id="POINT_16_">
		<line class="st3" x1="111.97" y1="634.7" x2="111.97" y2="634.7"/>
	</g>
	<g id="POINT_17_">
		<line class="st3" x1="100.35" y1="634.7" x2="100.35" y2="634.7"/>
	</g>
	<g id="POINT_18_">
		<line class="st3" x1="88.74" y1="634.7" x2="88.74" y2="634.7"/>
	</g>
	<g id="POINT_19_">
		<line class="st3" x1="77.13" y1="634.7" x2="77.13" y2="634.7"/>
	</g>
	<g id="LINE_97_">
		<line class="st2" x1="79.16" y1="651.88" x2="88.74" y2="634.7"/>
	</g>
	<g id="LINE_98_">
		<line class="st2" x1="90.77" y1="651.88" x2="100.35" y2="634.7"/>
	</g>
	<g id="LINE_99_">
		<line class="st2" x1="102.38" y1="651.88" x2="111.97" y2="634.7"/>
	</g>
	<g id="LINE_100_">
		<line class="st2" x1="113.99" y1="651.88" x2="123.58" y2="634.7"/>
	</g>
	<g id="LWPOLYLINE_19_">
		<polygon class="st2" points="126.85,993.35 126.85,1000.35 73.85,1000.35 73.85,993.35 95.35,988.35 95.35,965.35 89.65,960.35 
			89.65,929.22 95.15,929.22 95.15,955.35 110.35,955.35 110.35,960.35 105.35,965.35 105.35,988.35 		"/>
	</g>
	<g id="LWPOLYLINE_23_">
		<rect x="95.15" y="950.35" class="st2" width="10.3" height="5"/>
	</g>
	<g id="LWPOLYLINE_24_">
		<rect x="98.6" y="949.21" class="st2" width="3.5" height="1.14"/>
	</g>
</g>
<g id="girder">
	<g id="LINE_1_">
		<line class="st4" x1="180.35" y1="334.8" x2="180.35" y2="355.76"/>
	</g>
	<g id="LINE_2_">
		<line class="st4" x1="270.35" y1="332.1" x2="270.35" y2="356.67"/>
	</g>
	<g id="LINE_3_">
		<line class="st4" x1="390.35" y1="328.5" x2="390.35" y2="359.61"/>
	</g>
	<g id="LINE_4_">
		<line class="st4" x1="510.35" y1="324.9" x2="510.35" y2="364.52"/>
	</g>
	<g id="LINE_5_">
		<line class="st4" x1="630.35" y1="321.54" x2="630.35" y2="356.61"/>
	</g>
	<g id="LINE_6_">
		<line class="st4" x1="750.35" y1="319.21" x2="750.35" y2="345.06"/>
	</g>
	<g id="LINE_7_">
		<line class="st4" x1="870.35" y1="317.95" x2="870.35" y2="338.86"/>
	</g>
	<g id="LINE_8_">
		<line class="st4" x1="1030.35" y1="317.95" x2="1030.35" y2="338.85"/>
	</g>
	<g id="LINE_9_">
		<line class="st4" x1="1150.35" y1="319.21" x2="1150.35" y2="345.05"/>
	</g>
	<g id="LINE_10_">
		<line class="st4" x1="1270.35" y1="321.54" x2="1270.35" y2="356.59"/>
	</g>
	<g id="LINE_11_">
		<line class="st4" x1="1390.35" y1="324.9" x2="1390.35" y2="364.53"/>
	</g>
	<g id="LINE_12_">
		<line class="st4" x1="1510.35" y1="328.5" x2="1510.35" y2="359.62"/>
	</g>
	<g id="LINE_13_">
		<line class="st4" x1="1630.35" y1="332.1" x2="1630.35" y2="356.67"/>
	</g>
	<g id="LINE_14_">
		<line class="st4" x1="1720.35" y1="334.8" x2="1720.35" y2="355.76"/>
	</g>
	<g id="LWPOLYLINE_3_">
		<path class="st4" d="M1804.41,335.7h-54.02l-30.01-0.9l-4.95-0.15l-35-1.05l-35-1.05l-15.05-0.45l-19.95-0.6l-35-1.05l-35-1.05
			l-30.05-0.9l-39.95-1.2l-35-1.05l-35-1.05l-10.05-0.3l-24.95-0.75l-7.55-0.23l-7.45-0.22l-7.55-0.22l-7.45-0.22l-35.01-0.97
			l-29.95-0.75l-40.06-0.91l-35.01-0.69l-35.01-0.6l-10.05-0.15l-24.96-0.36l-35.01-0.41l-35.01-0.32l-25.05-0.16l-9.96-0.07
			l-35.01-0.14l-35.01-0.05l-35.01,0.05l-35.01,0.14l-10.05,0.07l-24.96,0.16l-35.01,0.32l-35.01,0.41l-25.05,0.36l-9.96,0.14
			l-35.01,0.6l-35.01,0.69l-35.01,0.78l-4.95,0.12l-30.06,0.75l-35,0.97l-7.55,0.22l-7.45,0.22l-7.55,0.23l-7.45,0.22l-25.05,0.75
			l-9.95,0.3l-35,1.05l-35,1.05l-40.05,1.2l-29.95,0.9l-35,1.05l-35,1.05l-20.05,0.6l-14.95,0.45l-35,1.05l-35,1.05l-5.05,0.15
			l-29.91,0.9H96.26v20h54.09c10,0,20,0.02,30,0.06c30,0.12,60,0.43,90,0.92c40.01,0.66,80.01,1.64,120,2.94
			c40.01,1.31,80.01,2.95,120,4.91c10.83,0.53,21.67,1.09,32.5,1.67c0,0,15,0,15,0c24.12-3.53,48.29-6.73,72.5-9.59
			c39.91-4.74,79.92-8.6,120-11.55c39.95-2.95,79.96-5.02,120-6.2c26.66-0.79,53.33-1.18,80-1.18c26.67,0,53.34,0.39,80,1.18
			c40.04,1.18,80.05,3.25,120,6.19c40.08,2.97,80.09,6.82,120,11.54c24.21,2.88,48.38,6.08,72.5,9.6h15
			c10.83-0.59,21.67-1.14,32.5-1.66c39.99-1.97,79.99-3.61,120-4.91c39.99-1.31,79.99-2.29,120-2.94c30-0.49,60-0.8,90-0.92
			c10-0.04,20-0.06,30-0.06h54.06V335.7z"/>
	</g>
	<g id="LINE_101_">
		<line class="st4" x1="144.47" y1="929.21" x2="96.26" y2="929.21"/>
	</g>
	<g id="LINE_102_">
		<line class="st4" x1="96.26" y1="929.21" x2="96.26" y2="949.21"/>
	</g>
	<g id="LINE_103_">
		<line class="st4" x1="96.26" y1="949.21" x2="146.55" y2="949.21"/>
	</g>
</g>
<g id="pondasi_x5F_A2">
	<g id="LWPOLYLINE_4_">
		<polygon class="st4" points="126.85,399.84 126.85,406.84 73.85,406.84 73.85,399.84 95.35,394.84 95.35,371.84 89.65,366.84 
			89.65,335.71 95.15,335.71 95.15,361.84 110.35,361.84 110.35,366.84 105.35,371.84 105.35,394.84 		"/>
	</g>
	<g id="LWPOLYLINE_5_">
		<rect x="95.15" y="356.84" class="st4" width="10.3" height="5"/>
	</g>
	<g id="LWPOLYLINE_12_">
		<rect x="98.6" y="355.7" class="st4" width="3.5" height="1.14"/>
	</g>
</g>
<g id="pondasi_x5F_A1">
	<g id="LWPOLYLINE_6_">
		<rect x="1798.6" y="355.7" class="st4" width="3.5" height="1.14"/>
	</g>
	<g id="LWPOLYLINE_7_">
		<polygon class="st4" points="1773.85,399.84 1773.85,406.84 1826.85,406.84 1826.85,399.84 1805.35,394.84 1805.35,371.84 
			1811.05,366.84 1811.05,335.71 1805.55,335.71 1805.55,361.84 1790.35,361.84 1790.35,366.84 1795.35,371.84 1795.35,394.84 		"/>
	</g>
	<g id="LWPOLYLINE_8_">
		<rect x="1795.25" y="356.84" class="st4" width="10.3" height="5"/>
	</g>
	<g id="LWPOLYLINE_11_">
		<rect x="1347.35" y="366.19" class="st4" width="6" height="1.44"/>
	</g>
</g>
<g id="pondasi_x5F_P2">
	<g id="LWPOLYLINE_9_">
		<polygon class="st4" points="592.35,418.63 508.35,418.63 508.35,402.63 539.85,397.63 539.85,380.63 534.35,380.63 
			534.35,367.63 550.35,367.63 566.35,367.63 566.35,380.63 560.85,380.63 560.85,397.63 592.35,402.63 		"/>
	</g>
	<g id="LWPOLYLINE_13_">
		<rect x="547.35" y="366.19" class="st4" width="6" height="1.44"/>
	</g>
</g>
<g id="pondasi_x5F_P1">
	<g id="LWPOLYLINE_10_">
		<polygon class="st4" points="1366.35,367.63 1350.35,367.63 1334.35,367.63 1334.35,380.63 1339.85,380.63 1339.85,397.63 
			1308.35,402.63 1308.35,418.63 1392.35,418.63 1392.35,402.63 1360.85,397.63 1360.85,380.63 1366.35,380.63 		"/>
	</g>
</g>
<g id="construction_x5F_line">
	<g id="LINE_63_">
		<line class="st5" x1="550.35" y1="206.18" x2="550.35" y2="1000.35"/>
	</g>
	<g id="LINE_64_">
		<line class="st5" x1="1350.35" y1="206.18" x2="1350.35" y2="1000.35"/>
	</g>
	<g id="LINE_65_">
		<line class="st5" x1="1800.35" y1="206.18" x2="1800.35" y2="1000.35"/>
	</g>
	<g id="LINE_66_">
		<line class="st5" x1="100.35" y1="206.18" x2="100.35" y2="1000.35"/>
	</g>
	<g id="LINE_67_">
		<line class="st5" x1="100.35" y1="600.35" x2="1800.35" y2="600.35"/>
	</g>
	<g id="LINE_68_">
		<line class="st5" x1="325.35" y1="206.18" x2="325.35" y2="1000.35"/>
	</g>
	<g id="LINE_69_">
		<line class="st5" x1="950.35" y1="206.18" x2="950.35" y2="1000.35"/>
	</g>
	<g id="LINE_70_">
		<line class="st5" x1="1575.35" y1="206.18" x2="1575.35" y2="1000.35"/>
	</g>
	<g id="LINE_75_">
		<line class="st5" x1="100.35" y1="800.35" x2="1800.35" y2="800.35"/>
	</g>
	<g id="LINE_76_">
		<line class="st5" x1="100.35" y1="1000.35" x2="1800.35" y2="1000.35"/>
	</g>
</g>
<g id="annotation">
	<g id="CIRCLE">
		<path class="st2" d="M72.44,178.27c0-15.42,12.5-27.91,27.91-27.91s27.91,12.5,27.91,27.91s-12.5,27.91-27.91,27.91
			S72.44,193.68,72.44,178.27L72.44,178.27z"/>
	</g>
	<g id="TEXT">
		<text transform="matrix(1 0 0 1 83.0561 188.4445)" class="st6 st7 st8">A2</text>
	</g>
	<g id="CIRCLE_1_">
		<path class="st2" d="M522.44,178.27c0-15.42,12.5-27.91,27.91-27.91c15.42,0,27.91,12.5,27.91,27.91s-12.5,27.91-27.91,27.91
			C534.94,206.18,522.44,193.68,522.44,178.27L522.44,178.27z"/>
	</g>
	<g id="TEXT_1_">
		<text transform="matrix(1 0 0 1 533.0354 188.4445)" class="st6 st7 st8">P2</text>
	</g>
	<g id="CIRCLE_2_">
		<path class="st2" d="M1322.44,178.27c0-15.42,12.5-27.91,27.91-27.91s27.91,12.5,27.91,27.91s-12.5,27.91-27.91,27.91
			S1322.44,193.68,1322.44,178.27L1322.44,178.27z"/>
	</g>
	<g id="TEXT_2_">
		<text transform="matrix(1 0 0 1 1333.0354 188.4445)" class="st6 st7 st8">P1</text>
	</g>
	<g id="CIRCLE_3_">
		<path class="st2" d="M1772.44,178.27c0-15.42,12.5-27.91,27.91-27.91s27.91,12.5,27.91,27.91s-12.5,27.91-27.91,27.91
			S1772.44,193.68,1772.44,178.27L1772.44,178.27z"/>
	</g>
	<g id="TEXT_3_">
		<text transform="matrix(1 0 0 1 1783.0562 188.4445)" class="st6 st7 st8">A1</text>
	</g>
	<g id="TEXT_4_">
		<text transform="matrix(1 0 0 1 231.6702 69.5119)" class="st6 st7 st9">KUDUS</text>
	</g>
	<g id="TEXT_5_">
		<text transform="matrix(1 0 0 1 1480.1804 69.5119)" class="st6 st7 st9">DEMAK</text>
	</g>
</g>
<g id="marker">
	<g id="LINE_71_">
		<line class="st10" x1="0.35" y1="600.35" x2="13.6" y2="600.35"/>
	</g>
	<g id="LINE_72_">
		<line class="st10" x1="0.35" y1="587.11" x2="0.35" y2="613.6"/>
	</g>
	<g id="LWPOLYLINE_14_">
		<polyline class="st10" points="0.35,13.6 0.35,0.35 13.6,0.35 		"/>
	</g>
	<g id="LINE_73_">
		<line class="st10" x1="0.35" y1="800.35" x2="13.6" y2="800.35"/>
	</g>
	<g id="LINE_74_">
		<line class="st10" x1="0.35" y1="787.11" x2="0.35" y2="813.6"/>
	</g>
	<g id="LINE_106_">
		<line class="st10" x1="150.38" y1="913.36" x2="140.85" y2="938.94"/>
	</g>
	<g id="LINE_107_">
		<line class="st10" x1="140.85" y1="938.94" x2="150.38" y2="938.94"/>
	</g>
	<g id="LINE_108_">
		<line class="st10" x1="150.38" y1="938.94" x2="140.85" y2="964.52"/>
	</g>
	<g id="LWPOLYLINE_25_">
		<polyline class="st10" points="0.35,1033.61 0.35,1046.85 13.6,1046.85 		"/>
	</g>
	<g id="LINE_109_">
		<line class="st10" x1="1900.35" y1="600.35" x2="1887.11" y2="600.35"/>
	</g>
	<g id="LINE_110_">
		<line class="st10" x1="1900.35" y1="587.11" x2="1900.35" y2="613.6"/>
	</g>
	<g id="LWPOLYLINE_26_">
		<polyline class="st10" points="1900.35,13.6 1900.35,0.35 1887.11,0.35 		"/>
	</g>
	<g id="LINE_111_">
		<line class="st10" x1="1900.35" y1="800.35" x2="1887.11" y2="800.35"/>
	</g>
	<g id="LINE_112_">
		<line class="st10" x1="1900.35" y1="787.11" x2="1900.35" y2="813.6"/>
	</g>
	<g id="LWPOLYLINE_27_">
		<polyline class="st10" points="1900.35,1033.61 1900.35,1046.85 1887.11,1046.85 		"/>
	</g>
</g>
<g id="tumpuan_x5F_P2">
	<g id="LWPOLYLINE_15_">
		<polygon class="st2" points="531.18,609.7 569.53,609.7 550.35,575.35 		"/>
	</g>
	<g id="LINE_77_">
		<line class="st2" x1="585.19" y1="609.7" x2="515.52" y2="609.7"/>
	</g>
	<g id="LINE_78_">
		<line class="st2" x1="517.55" y1="626.88" x2="527.13" y2="609.7"/>
	</g>
	<g id="POINT">
		<line class="st3" x1="573.58" y1="609.7" x2="573.58" y2="609.7"/>
	</g>
	<g id="POINT_1_">
		<line class="st3" x1="561.97" y1="609.7" x2="561.97" y2="609.7"/>
	</g>
	<g id="POINT_2_">
		<line class="st3" x1="550.35" y1="609.7" x2="550.35" y2="609.7"/>
	</g>
	<g id="POINT_3_">
		<line class="st3" x1="538.74" y1="609.7" x2="538.74" y2="609.7"/>
	</g>
	<g id="POINT_4_">
		<line class="st3" x1="527.13" y1="609.7" x2="527.13" y2="609.7"/>
	</g>
	<g id="LINE_79_">
		<line class="st2" x1="529.16" y1="626.88" x2="538.74" y2="609.7"/>
	</g>
	<g id="LINE_80_">
		<line class="st2" x1="540.77" y1="626.88" x2="550.35" y2="609.7"/>
	</g>
	<g id="LINE_81_">
		<line class="st2" x1="552.38" y1="626.88" x2="561.97" y2="609.7"/>
	</g>
	<g id="LINE_82_">
		<line class="st2" x1="563.99" y1="626.88" x2="573.58" y2="609.7"/>
	</g>
</g>
<g id="tumpuan_x5F_P1">
	<g id="LWPOLYLINE_16_">
		<polygon class="st2" points="1331.18,609.7 1369.53,609.7 1350.35,575.35 		"/>
	</g>
	<g id="LINE_83_">
		<line class="st2" x1="1385.19" y1="609.7" x2="1315.52" y2="609.7"/>
	</g>
	<g id="LINE_84_">
		<line class="st2" x1="1317.55" y1="626.88" x2="1327.13" y2="609.7"/>
	</g>
	<g id="POINT_5_">
		<line class="st3" x1="1373.58" y1="609.7" x2="1373.58" y2="609.7"/>
	</g>
	<g id="POINT_6_">
		<line class="st3" x1="1361.97" y1="609.7" x2="1361.97" y2="609.7"/>
	</g>
	<g id="POINT_7_">
		<line class="st3" x1="1350.35" y1="609.7" x2="1350.35" y2="609.7"/>
	</g>
	<g id="POINT_8_">
		<line class="st3" x1="1338.74" y1="609.7" x2="1338.74" y2="609.7"/>
	</g>
	<g id="POINT_9_">
		<line class="st3" x1="1327.13" y1="609.7" x2="1327.13" y2="609.7"/>
	</g>
	<g id="LINE_85_">
		<line class="st2" x1="1329.16" y1="626.88" x2="1338.74" y2="609.7"/>
	</g>
	<g id="LINE_86_">
		<line class="st2" x1="1340.77" y1="626.88" x2="1350.35" y2="609.7"/>
	</g>
	<g id="LINE_87_">
		<line class="st2" x1="1352.38" y1="626.88" x2="1361.97" y2="609.7"/>
	</g>
	<g id="LINE_88_">
		<line class="st2" x1="1363.99" y1="626.88" x2="1373.58" y2="609.7"/>
	</g>
</g>
<g id="tumpuan_x5F_A1">
	<g id="LWPOLYLINE_17_">
		<polygon class="st2" points="1781.18,634.7 1819.53,634.7 1800.35,600.35 		"/>
	</g>
	<g id="LINE_89_">
		<line class="st2" x1="1835.19" y1="634.7" x2="1765.52" y2="634.7"/>
	</g>
	<g id="LINE_90_">
		<line class="st2" x1="1767.55" y1="651.88" x2="1777.13" y2="634.7"/>
	</g>
	<g id="POINT_10_">
		<line class="st3" x1="1823.58" y1="634.7" x2="1823.58" y2="634.7"/>
	</g>
	<g id="POINT_11_">
		<line class="st3" x1="1811.97" y1="634.7" x2="1811.97" y2="634.7"/>
	</g>
	<g id="POINT_12_">
		<line class="st3" x1="1800.35" y1="634.7" x2="1800.35" y2="634.7"/>
	</g>
	<g id="POINT_13_">
		<line class="st3" x1="1788.74" y1="634.7" x2="1788.74" y2="634.7"/>
	</g>
	<g id="POINT_14_">
		<line class="st3" x1="1777.13" y1="634.7" x2="1777.13" y2="634.7"/>
	</g>
	<g id="LINE_91_">
		<line class="st2" x1="1779.16" y1="651.88" x2="1788.74" y2="634.7"/>
	</g>
	<g id="LINE_92_">
		<line class="st2" x1="1790.77" y1="651.88" x2="1800.35" y2="634.7"/>
	</g>
	<g id="LINE_93_">
		<line class="st2" x1="1802.38" y1="651.88" x2="1811.97" y2="634.7"/>
	</g>
	<g id="LINE_94_">
		<line class="st2" x1="1813.99" y1="651.88" x2="1823.58" y2="634.7"/>
	</g>
</g>
<g id="curve_x5F_ori">
	<g id="SPLINE">
		<path class="st4" d="M100.35,600.35c149.94-9.47,299.88-18.94,450-25c266.47-10.75,533.53-10.75,800,0
			c150.12,6.06,300.06,15.53,450,25"/>
	</g>
</g>
<g id="dot_x5F_0">
	<g id="CIRCLE_4_">
		<path class="st2" d="M314.62,586.57c0-5.93,4.8-10.73,10.73-10.73c5.93,0,10.73,4.8,10.73,10.73c0,5.93-4.8,10.73-10.73,10.73
			C319.43,597.3,314.62,592.5,314.62,586.57L314.62,586.57z"/>
	</g>
</g>
<g id="dot_x5F_1">
	<g id="CIRCLE_5_">
		<path class="st2" d="M939.62,567.29c0-5.93,4.8-10.73,10.73-10.73c5.93,0,10.73,4.8,10.73,10.73s-4.8,10.73-10.73,10.73
			C944.43,578.02,939.62,573.22,939.62,567.29L939.62,567.29z"/>
	</g>
</g>
<g id="dot_x5F_2">
	<g id="CIRCLE_6_">
		<path class="st2" d="M1564.62,586.57c0-5.93,4.8-10.73,10.73-10.73c5.93,0,10.73,4.8,10.73,10.73c0,5.93-4.8,10.73-10.73,10.73
			C1569.43,597.3,1564.62,592.5,1564.62,586.57L1564.62,586.57z"/>
	</g>
</g>
<g id="curve_x5F_dyn">
	<g id="SPLINE_1_">
		<path class="st2" d="M100.35,833.42c149.94-9.47,299.88-18.94,450-25c266.47-10.75,533.53-10.75,800,0
			c150.12,6.06,300.06,15.53,450,25"/>
	</g>
</g>
</svg>
