<?xml version="1.0" encoding="utf-8"?>
<!-- Generator: Adobe Illustrator 19.0.0, SVG Export Plug-In . SVG Version: 6.00 Build 0)  -->
<svg version="1.1" id="Layer_1" xmlns="http://www.w3.org/2000/svg" xmlns:xlink="http://www.w3.org/1999/xlink" x="0px" y="0px"
	 viewBox="-0.3 455.4 612.5 337.7" style="enable-background:new -0.3 455.4 612.5 337.7;" xml:space="preserve">
<style type="text/css">
	.st0{fill:none;stroke:#808080;stroke-width:0.4252;stroke-linecap:round;stroke-linejoin:round;stroke-miterlimit:10;}
	.st1{fill:none;stroke:#000000;stroke-width:0.7087;stroke-linecap:round;stroke-linejoin:round;stroke-miterlimit:10;}
	.st2{fill:none;stroke:#0000FF;stroke-width:0.7087;stroke-linecap:round;stroke-linejoin:round;stroke-miterlimit:10;}
	.st3{fill:none;stroke:#FF0000;stroke-width:0.7087;stroke-linecap:round;stroke-linejoin:round;stroke-miterlimit:10;}
	
		.st4{fill:none;stroke:#FF00FF;stroke-width:0.7087;stroke-linecap:round;stroke-linejoin:round;stroke-miterlimit:10;stroke-dasharray:15.4551,3.8638;}
	.st5{fill:#0000FF;}
	.st6{font-family:'ArialMT';}
	.st7{font-size:9.2188px;}
	.st8{font-size:17.4248px;}
	.st9{fill:none;stroke:#808080;stroke-width:0.7087;stroke-linecap:round;stroke-linejoin:round;stroke-miterlimit:10;}
</style>
<g id="rail">
	<g id="LWPOLYLINE">
		<polyline class="st0" points="31.3,562.3 48.4,562.3 58,562 59.6,562 70.9,561.7 82.2,561.3 87,561.2 93.4,561 104.7,560.6 
			116,560.3 125.6,560 138.5,559.6 149.8,559.3 161,559 164.2,558.9 172.3,558.6 174.7,558.5 177.1,558.5 179.5,558.4 182,558.3 
			193.2,558 202.9,557.8 204.5,557.7 215.8,557.5 227.1,557.3 238.3,557.1 241.6,557 249.6,556.9 260.9,556.8 272.2,556.7 
			280.2,556.6 283.4,556.6 294.7,556.6 306,556.5 317.3,556.6 328.5,556.6 331.8,556.6 339.8,556.7 351.1,556.8 362.4,556.9 
			370.4,557 373.7,557.1 384.9,557.3 396.2,557.5 409.1,557.8 418.8,558 430,558.3 432.4,558.4 434.9,558.5 437.3,558.5 
			439.7,558.6 447.7,558.9 451,559 462.2,559.3 473.5,559.6 486.4,560 496,560.3 507.3,560.6 518.6,561 525,561.2 529.8,561.3 
			541.1,561.7 552.4,562 554,562 563.6,562.3 580.7,562.3 		"/>
	</g>
	<g id="LWPOLYLINE_1_">
		<polyline class="st0" points="31.3,561 48.4,561 58,560.8 59.6,560.7 70.8,560.4 82.1,560 86.9,559.9 93.4,559.7 104.7,559.4 
			115.9,559 125.6,558.7 138.5,558.3 149.7,558 161,557.7 164.2,557.6 172.3,557.3 174.7,557.3 177.1,557.2 179.5,557.1 181.9,557 
			193.2,556.7 202.9,556.5 204.5,556.4 215.8,556.2 227,556 238.3,555.8 241.5,555.7 249.6,555.6 260.9,555.5 272.2,555.4 
			280.2,555.3 283.4,555.3 294.7,555.3 306,555.3 317.3,555.3 328.6,555.3 331.8,555.3 339.8,555.4 351.1,555.5 362.4,555.6 
			370.4,555.7 373.7,555.8 384.9,556 396.2,556.2 409.1,556.5 418.8,556.7 430.1,557 432.5,557.1 434.9,557.2 437.3,557.3 
			439.7,557.3 447.8,557.6 451,557.7 462.3,558 473.5,558.3 486.4,558.7 496.1,559 507.3,559.4 518.6,559.7 525,559.9 529.9,560 
			541.2,560.4 552.4,560.7 554,560.8 563.6,561 580.7,561 		"/>
	</g>
	<g id="LWPOLYLINE_2_">
		<polyline class="st0" points="31.3,559.8 48.3,559.8 57.9,559.5 59.5,559.4 70.8,559.1 82.1,558.7 86.9,558.6 93.3,558.4 
			104.6,558.1 115.9,557.7 125.5,557.4 138.4,557.1 149.7,556.7 161,556.4 164.2,556.3 172.2,556 174.6,556 177.1,555.9 
			179.5,555.8 181.9,555.8 193.2,555.4 202.9,555.2 204.5,555.2 215.7,554.9 227,554.7 238.3,554.5 241.5,554.4 249.6,554.3 
			260.9,554.2 272.2,554.1 280.2,554 283.4,554 294.7,554 306,554 317.3,554 328.6,554 331.8,554 339.8,554.1 351.1,554.2 
			362.4,554.3 370.5,554.4 373.7,554.5 385,554.7 396.3,554.9 409.2,555.2 418.8,555.4 430.1,555.8 432.5,555.8 434.9,555.9 
			437.3,556 439.8,556 447.8,556.3 451,556.4 462.3,556.7 473.6,557.1 486.4,557.4 496.1,557.7 507.4,558.1 518.7,558.4 
			525.1,558.6 529.9,558.7 541.2,559.1 552.5,559.4 554.1,559.5 563.7,559.8 580.7,559.8 		"/>
	</g>
	<g id="LINE_15_">
		<line class="st0" x1="32.1" y1="559.3" x2="32.1" y2="563.8"/>
	</g>
	<g id="LINE_16_">
		<line class="st0" x1="41.1" y1="559.3" x2="41.1" y2="563.8"/>
	</g>
	<g id="LINE_17_">
		<line class="st0" x1="50.2" y1="559.2" x2="50.3" y2="563.7"/>
	</g>
	<g id="LINE_18_">
		<line class="st0" x1="68" y1="558.7" x2="68.2" y2="563.2"/>
	</g>
	<g id="LINE_19_">
		<line class="st0" x1="80" y1="558.4" x2="80.1" y2="562.8"/>
	</g>
	<g id="LINE_20_">
		<line class="st0" x1="91.9" y1="558" x2="92" y2="562.5"/>
	</g>
	<g id="LINE_21_">
		<line class="st0" x1="103.8" y1="557.7" x2="103.9" y2="562.1"/>
	</g>
	<g id="LINE_22_">
		<line class="st0" x1="115.7" y1="557.3" x2="115.8" y2="561.8"/>
	</g>
	<g id="LINE_23_">
		<line class="st0" x1="127.6" y1="556.9" x2="127.7" y2="561.4"/>
	</g>
	<g id="LINE_24_">
		<line class="st0" x1="139.5" y1="556.6" x2="139.6" y2="561.1"/>
	</g>
	<g id="LINE_25_">
		<line class="st0" x1="151.4" y1="556.2" x2="151.5" y2="560.7"/>
	</g>
	<g id="LINE_26_">
		<line class="st0" x1="163.3" y1="555.9" x2="163.4" y2="560.3"/>
	</g>
	<g id="LINE_27_">
		<line class="st0" x1="175.2" y1="555.5" x2="175.4" y2="560"/>
	</g>
	<g id="LINE_28_">
		<line class="st0" x1="187.1" y1="555.2" x2="187.3" y2="559.6"/>
	</g>
	<g id="LINE_29_">
		<line class="st0" x1="199" y1="554.9" x2="199.1" y2="559.3"/>
	</g>
	<g id="LINE_30_">
		<line class="st0" x1="210.9" y1="554.6" x2="211" y2="559.1"/>
	</g>
	<g id="LINE_31_">
		<line class="st0" x1="222.9" y1="554.3" x2="222.9" y2="558.8"/>
	</g>
	<g id="LINE_32_">
		<line class="st0" x1="234.8" y1="554.1" x2="234.8" y2="558.6"/>
	</g>
	<g id="LINE_33_">
		<line class="st0" x1="246.7" y1="553.9" x2="246.7" y2="558.4"/>
	</g>
	<g id="LINE_34_">
		<line class="st0" x1="258.6" y1="553.8" x2="258.6" y2="558.3"/>
	</g>
	<g id="LINE_35_">
		<line class="st0" x1="270.5" y1="553.7" x2="270.5" y2="558.2"/>
	</g>
	<g id="LINE_36_">
		<line class="st0" x1="282.4" y1="553.6" x2="282.4" y2="558.1"/>
	</g>
	<g id="LINE_37_">
		<line class="st0" x1="294.3" y1="553.5" x2="294.3" y2="558"/>
	</g>
	<g id="LINE_38_">
		<line class="st0" x1="306" y1="553.5" x2="306" y2="558"/>
	</g>
	<g id="LINE_39_">
		<line class="st0" x1="579.9" y1="559.3" x2="579.9" y2="563.8"/>
	</g>
	<g id="LINE_40_">
		<line class="st0" x1="570.9" y1="559.3" x2="570.9" y2="563.8"/>
	</g>
	<g id="LINE_41_">
		<line class="st0" x1="544" y1="558.7" x2="543.8" y2="563.2"/>
	</g>
	<g id="LINE_42_">
		<line class="st0" x1="532" y1="558.4" x2="531.9" y2="562.8"/>
	</g>
	<g id="LINE_43_">
		<line class="st0" x1="520.1" y1="558" x2="520" y2="562.5"/>
	</g>
	<g id="LINE_44_">
		<line class="st0" x1="508.2" y1="557.7" x2="508.1" y2="562.1"/>
	</g>
	<g id="LINE_45_">
		<line class="st0" x1="496.3" y1="557.3" x2="496.2" y2="561.8"/>
	</g>
	<g id="LINE_46_">
		<line class="st0" x1="484.4" y1="556.9" x2="484.3" y2="561.4"/>
	</g>
	<g id="LINE_47_">
		<line class="st0" x1="472.5" y1="556.6" x2="472.4" y2="561.1"/>
	</g>
	<g id="LINE_48_">
		<line class="st0" x1="460.6" y1="556.2" x2="460.5" y2="560.7"/>
	</g>
	<g id="LINE_49_">
		<line class="st0" x1="448.7" y1="555.9" x2="448.6" y2="560.3"/>
	</g>
	<g id="LINE_50_">
		<line class="st0" x1="436.8" y1="555.5" x2="436.6" y2="560"/>
	</g>
	<g id="LINE_51_">
		<line class="st0" x1="424.9" y1="555.2" x2="424.7" y2="559.6"/>
	</g>
	<g id="LINE_52_">
		<line class="st0" x1="413" y1="554.9" x2="412.9" y2="559.3"/>
	</g>
	<g id="LINE_53_">
		<line class="st0" x1="401.1" y1="554.6" x2="401" y2="559.1"/>
	</g>
	<g id="LINE_54_">
		<line class="st0" x1="389.1" y1="554.3" x2="389.1" y2="558.8"/>
	</g>
	<g id="LINE_55_">
		<line class="st0" x1="377.2" y1="554.1" x2="377.2" y2="558.6"/>
	</g>
	<g id="LINE_56_">
		<line class="st0" x1="401.1" y1="554.6" x2="401" y2="559.1"/>
	</g>
	<g id="LINE_57_">
		<line class="st0" x1="389.1" y1="554.3" x2="389.1" y2="558.8"/>
	</g>
	<g id="LINE_58_">
		<line class="st0" x1="377.2" y1="554.1" x2="377.2" y2="558.6"/>
	</g>
	<g id="LINE_59_">
		<line class="st0" x1="365.3" y1="553.9" x2="365.3" y2="558.4"/>
	</g>
	<g id="LINE_60_">
		<line class="st0" x1="341.5" y1="553.7" x2="341.5" y2="558.2"/>
	</g>
	<g id="LINE_61_">
		<line class="st0" x1="329.6" y1="553.6" x2="329.6" y2="558.1"/>
	</g>
	<g id="LINE_62_">
		<line class="st0" x1="317.7" y1="553.5" x2="317.7" y2="558"/>
	</g>
	<g id="LWPOLYLINE_20_">
		<line class="st0" x1="31.3" y1="753.4" x2="47.1" y2="753.4"/>
	</g>
	<g id="LWPOLYLINE_21_">
		<line class="st0" x1="31.3" y1="752.1" x2="47.5" y2="752.1"/>
	</g>
	<g id="LWPOLYLINE_22_">
		<line class="st0" x1="31.3" y1="750.9" x2="48" y2="750.9"/>
	</g>
	<g id="LINE_104_">
		<line class="st0" x1="32.1" y1="750.4" x2="32.1" y2="754.9"/>
	</g>
	<g id="LINE_105_">
		<line class="st0" x1="41.1" y1="750.4" x2="41.1" y2="754.9"/>
	</g>
</g>
<g id="tumpuan_x5F_A2">
	<g id="LINE">
		<line class="st1" x1="439.1" y1="574.1" x2="430.5" y2="574.1"/>
	</g>
	<g id="LWPOLYLINE_18_">
		<polygon class="st2" points="26.1,660.1 38.5,660.1 32.3,649 		"/>
	</g>
	<g id="LINE_95_">
		<line class="st2" x1="43.5" y1="660.1" x2="21.1" y2="660.1"/>
	</g>
	<g id="LINE_96_">
		<line class="st2" x1="21.8" y1="665.6" x2="24.8" y2="660.1"/>
	</g>
	<g id="LINE_97_">
		<line class="st2" x1="25.5" y1="665.6" x2="28.6" y2="660.1"/>
	</g>
	<g id="LINE_98_">
		<line class="st2" x1="29.2" y1="665.6" x2="32.3" y2="660.1"/>
	</g>
	<g id="LINE_99_">
		<line class="st2" x1="33" y1="665.6" x2="36.1" y2="660.1"/>
	</g>
	<g id="LINE_100_">
		<line class="st2" x1="36.7" y1="665.6" x2="39.8" y2="660.1"/>
	</g>
	<g id="LWPOLYLINE_19_">
		<polygon class="st2" points="40.8,775.6 40.8,777.8 23.8,777.8 23.8,775.6 30.7,773.9 30.7,766.5 28.9,764.9 28.9,754.9 
			30.6,754.9 30.6,763.3 35.5,763.3 35.5,764.9 33.9,766.5 33.9,773.9 		"/>
	</g>
	<g id="LWPOLYLINE_23_">
		<rect x="30.6" y="761.7" class="st2" width="3.3" height="1.6"/>
	</g>
	<g id="LWPOLYLINE_24_">
		<rect x="31.8" y="761.3" class="st2" width="1.1" height="0.4"/>
	</g>
</g>
<g id="girder">
	<g id="LINE_1_">
		<line class="st3" x1="58.1" y1="563.5" x2="58.1" y2="570.3"/>
	</g>
	<g id="LINE_2_">
		<line class="st3" x1="87.1" y1="562.6" x2="87.1" y2="570.6"/>
	</g>
	<g id="LINE_3_">
		<line class="st3" x1="125.7" y1="561.5" x2="125.7" y2="571.5"/>
	</g>
	<g id="LINE_4_">
		<line class="st3" x1="164.3" y1="560.3" x2="164.3" y2="573.1"/>
	</g>
	<g id="LINE_5_">
		<line class="st3" x1="203" y1="559.2" x2="203" y2="570.5"/>
	</g>
	<g id="LINE_6_">
		<line class="st3" x1="241.6" y1="558.5" x2="241.6" y2="566.8"/>
	</g>
	<g id="LINE_7_">
		<line class="st3" x1="280.2" y1="558.1" x2="280.2" y2="564.8"/>
	</g>
	<g id="LINE_8_">
		<line class="st3" x1="331.8" y1="558.1" x2="331.8" y2="564.8"/>
	</g>
	<g id="LINE_9_">
		<line class="st3" x1="370.4" y1="558.5" x2="370.4" y2="566.8"/>
	</g>
	<g id="LINE_10_">
		<line class="st3" x1="409" y1="559.2" x2="409" y2="570.5"/>
	</g>
	<g id="LINE_11_">
		<line class="st3" x1="447.7" y1="560.3" x2="447.7" y2="573.1"/>
	</g>
	<g id="LINE_12_">
		<line class="st3" x1="486.3" y1="561.5" x2="486.3" y2="571.5"/>
	</g>
	<g id="LINE_13_">
		<line class="st3" x1="524.9" y1="562.6" x2="524.9" y2="570.6"/>
	</g>
	<g id="LINE_14_">
		<line class="st3" x1="553.9" y1="563.5" x2="553.9" y2="570.3"/>
	</g>
	<g id="LWPOLYLINE_3_">
		<path class="st3" d="M581,563.8h-17.4l-9.7-0.3h-1.6l-11.3-0.3l-11.3-0.3l-4.8-0.1l-6.4-0.2l-11.3-0.3l-11.3-0.3l-9.7-0.3
			l-12.9-0.4L462,561l-11.3-0.3l-3.2-0.1l-8-0.2l-2.4-0.1l-2.4-0.1l-2.4-0.1l-2.4-0.1l-11.3-0.3l-9.6-0.2l-12.9-0.3l-11.3-0.2
			l-11.3-0.2h-3.2l-8-0.1l-11.3-0.1l-11.3-0.1l-8.1-0.1h-3.2h-11.3h-11.3h-11.3h-11.3H280l-8,0.1l-11.3,0.1l-11.3,0.1l-8.1,0.1h-3.2
			l-11.3,0.2l-11.3,0.2l-11.3,0.3h-1.6l-9.7,0.2l-11.3,0.3l-2.4,0.1l-2.4,0.1l-2.4,0.1l-2.4,0.1l-8.1,0.2l-3.2,0.1l-11.3,0.3
			l-11.3,0.3l-12.9,0.4l-9.6,0.3l-11.3,0.3L93,562.6l-6.5,0.2l-4.8,0.1l-11.3,0.3l-11.3,0.3h-1.6l-9.6,0.3H31v6.4h17.4
			c3.2,0,6.4,0,9.7,0c9.7,0,19.3,0.1,29,0.3c12.9,0.2,25.8,0.5,38.6,0.9c12.9,0.4,25.8,0.9,38.6,1.6c3.5,0.2,7,0.4,10.5,0.5h4.8
			c7.8-1.1,15.5-2.2,23.3-3.1c12.8-1.5,25.7-2.8,38.6-3.7c12.9-1,25.7-1.6,38.6-2c8.6-0.3,17.2-0.4,25.8-0.4
			c8.6,0,17.2,0.1,25.8,0.4c12.9,0.4,25.8,1,38.6,2c12.9,1,25.8,2.2,38.6,3.7c7.8,0.9,15.6,2,23.3,3.1h4.8c3.5-0.2,7-0.4,10.5-0.5
			c12.9-0.6,25.8-1.2,38.6-1.6c12.9-0.4,25.8-0.7,38.6-0.9c9.7-0.2,19.3-0.3,29-0.3c3.2,0,6.4,0,9.7,0h17.4v-6.4L581,563.8
			L581,563.8z"/>
	</g>
	<g id="LINE_101_">
		<line class="st3" x1="46.5" y1="754.9" x2="31" y2="754.9"/>
	</g>
	<g id="LINE_102_">
		<line class="st3" x1="31" y1="754.9" x2="31" y2="761.3"/>
	</g>
	<g id="LINE_103_">
		<line class="st3" x1="31" y1="761.3" x2="47.2" y2="761.3"/>
	</g>
</g>
<g id="pondasi_x5F_A2">
	<g id="LWPOLYLINE_4_">
		<polygon class="st3" points="40.8,584.4 40.8,586.7 23.8,586.7 23.8,584.4 30.7,582.8 30.7,575.4 28.9,573.8 28.9,563.8 
			30.6,563.8 30.6,572.2 35.5,572.2 35.5,573.8 33.9,575.4 33.9,582.8 		"/>
	</g>
	<g id="LWPOLYLINE_5_">
		<rect x="30.6" y="570.6" class="st3" width="3.3" height="1.6"/>
	</g>
	<g id="LWPOLYLINE_12_">
		<rect x="31.8" y="570.2" class="st3" width="1.1" height="0.4"/>
	</g>
</g>
<g id="pondasi_x5F_A1">
	<g id="LWPOLYLINE_6_">
		<rect x="579.1" y="570.2" class="st3" width="1.1" height="0.4"/>
	</g>
	<g id="LWPOLYLINE_7_">
		<polygon class="st3" points="571.2,584.4 571.2,586.7 588.2,586.7 588.2,584.4 581.3,582.8 581.3,575.4 583.1,573.8 583.1,563.8 
			581.4,563.8 581.4,572.2 576.5,572.2 576.5,573.8 578.1,575.4 578.1,582.8 		"/>
	</g>
	<g id="LWPOLYLINE_8_">
		<rect x="578" y="570.6" class="st3" width="3.3" height="1.6"/>
	</g>
	<g id="LWPOLYLINE_11_">
		<rect x="433.8" y="573.6" class="st3" width="1.9" height="0.5"/>
	</g>
</g>
<g id="pondasi_x5F_P2">
	<g id="LWPOLYLINE_9_">
		<polygon class="st3" points="190.7,590.5 163.7,590.5 163.7,585.3 173.8,583.7 173.8,578.3 172.1,578.3 172.1,574.1 177.2,574.1 
			182.4,574.1 182.4,578.3 180.6,578.3 180.6,583.7 190.7,585.3 		"/>
	</g>
	<g id="LWPOLYLINE_13_">
		<rect x="176.2" y="573.6" class="st3" width="1.9" height="0.5"/>
	</g>
</g>
<g id="pondasi_x5F_P1">
	<g id="LWPOLYLINE_10_">
		<polygon class="st3" points="439.9,574.1 434.8,574.1 429.6,574.1 429.6,578.3 431.4,578.3 431.4,583.7 421.3,585.3 421.3,590.5 
			448.3,590.5 448.3,585.3 438.2,583.7 438.2,578.3 439.9,578.3 		"/>
	</g>
</g>
<g id="construction_x5F_line">
	<g id="LINE_63_">
		<line class="st4" x1="177.2" y1="522.1" x2="177.2" y2="777.8"/>
	</g>
	<g id="LINE_64_">
		<line class="st4" x1="434.8" y1="522.1" x2="434.8" y2="777.8"/>
	</g>
	<g id="LINE_65_">
		<line class="st4" x1="579.7" y1="522.1" x2="579.7" y2="777.8"/>
	</g>
	<g id="LINE_66_">
		<line class="st4" x1="32.3" y1="522.1" x2="32.3" y2="777.8"/>
	</g>
	<g id="LINE_67_">
		<line class="st4" x1="32.3" y1="649" x2="579.7" y2="649"/>
	</g>
	<g id="LINE_68_">
		<line class="st4" x1="104.8" y1="522.1" x2="104.8" y2="777.8"/>
	</g>
	<g id="LINE_69_">
		<line class="st4" x1="306" y1="522.1" x2="306" y2="777.8"/>
	</g>
	<g id="LINE_70_">
		<line class="st4" x1="507.2" y1="522.1" x2="507.2" y2="777.8"/>
	</g>
	<g id="LINE_75_">
		<line class="st4" x1="32.3" y1="713.4" x2="579.7" y2="713.4"/>
	</g>
	<g id="LINE_76_">
		<line class="st4" x1="32.3" y1="777.8" x2="579.7" y2="777.8"/>
	</g>
</g>
<g id="annotation">
	<g id="CIRCLE">
		<path class="st2" d="M23.3,513.1c0-5,4-9,9-9s9,4,9,9c0,5-4,9-9,9S23.3,518.1,23.3,513.1L23.3,513.1z"/>
	</g>
	<g id="TEXT">
		<text transform="matrix(1 0 0 1 26.7461 516.3848)" class="st5 st6 st7">A2</text>
	</g>
	<g id="CIRCLE_1_">
		<path class="st2" d="M168.2,513.1c0-5,4-9,9-9s9,4,9,9c0,5-4,9-9,9S168.2,518.1,168.2,513.1L168.2,513.1z"/>
	</g>
	<g id="TEXT_1_">
		<text transform="matrix(1 0 0 1 171.6311 516.3848)" class="st5 st6 st7">P2</text>
	</g>
	<g id="CIRCLE_2_">
		<path class="st2" d="M425.8,513.1c0-5,4-9,9-9s9,4,9,9c0,5-4,9-9,9S425.8,518.1,425.8,513.1L425.8,513.1z"/>
	</g>
	<g id="TEXT_2_">
		<text transform="matrix(1 0 0 1 429.2162 516.3848)" class="st5 st6 st7">P1</text>
	</g>
	<g id="CIRCLE_3_">
		<path class="st2" d="M570.7,513.1c0-5,4-9,9-9s9,4,9,9c0,5-4,9-9,9S570.7,518.1,570.7,513.1L570.7,513.1z"/>
	</g>
	<g id="TEXT_3_">
		<text transform="matrix(1 0 0 1 574.1145 516.3848)" class="st5 st6 st7">A1</text>
	</g>
	<g id="TEXT_4_">
		<text transform="matrix(1 0 0 1 74.5971 478.0906)" class="st5 st6 st8">KUDUS</text>
	</g>
	<g id="TEXT_5_">
		<text transform="matrix(1 0 0 1 476.5942 478.0906)" class="st5 st6 st8">DEMAK</text>
	</g>
</g>
<g id="marker">
	<g id="LINE_71_">
		<line class="st9" x1="0.1" y1="649" x2="4.4" y2="649"/>
	</g>
	<g id="LINE_72_">
		<line class="st9" x1="0.1" y1="644.7" x2="0.1" y2="653.3"/>
	</g>
	<g id="LWPOLYLINE_14_">
		<polyline class="st9" points="0.1,460.1 0.1,455.8 4.4,455.8 		"/>
	</g>
	<g id="LINE_73_">
		<line class="st9" x1="0.1" y1="713.4" x2="4.4" y2="713.4"/>
	</g>
	<g id="LINE_74_">
		<line class="st9" x1="0.1" y1="709.1" x2="0.1" y2="717.7"/>
	</g>
	<g id="LINE_106_">
		<line class="st9" x1="48.4" y1="749.8" x2="45.4" y2="758"/>
	</g>
	<g id="LINE_107_">
		<line class="st9" x1="45.4" y1="758" x2="48.4" y2="758"/>
	</g>
	<g id="LINE_108_">
		<line class="st9" x1="48.4" y1="758" x2="45.4" y2="766.3"/>
	</g>
	<g id="LWPOLYLINE_25_">
		<polyline class="st9" points="0.1,788.5 0.1,792.8 4.4,792.8 		"/>
	</g>
	<g id="LINE_109_">
		<line class="st9" x1="611.9" y1="649" x2="607.6" y2="649"/>
	</g>
	<g id="LINE_110_">
		<line class="st9" x1="611.9" y1="644.7" x2="611.9" y2="653.3"/>
	</g>
	<g id="LWPOLYLINE_26_">
		<polyline class="st9" points="611.9,460.1 611.9,455.8 607.6,455.8 		"/>
	</g>
	<g id="LINE_111_">
		<line class="st9" x1="611.9" y1="713.4" x2="607.6" y2="713.4"/>
	</g>
	<g id="LINE_112_">
		<line class="st9" x1="611.9" y1="709.1" x2="611.9" y2="717.7"/>
	</g>
	<g id="LWPOLYLINE_27_">
		<polyline class="st9" points="611.9,788.5 611.9,792.8 607.6,792.8 		"/>
	</g>
</g>
<g id="tumpuan_x5F_P2">
	<g id="LWPOLYLINE_15_">
		<polygon class="st2" points="171,652 183.4,652 177.2,641 		"/>
	</g>
	<g id="LINE_77_">
		<line class="st2" x1="188.4" y1="652" x2="166" y2="652"/>
	</g>
	<g id="LINE_78_">
		<line class="st2" x1="166.6" y1="657.6" x2="169.7" y2="652"/>
	</g>
	<g id="LINE_79_">
		<line class="st2" x1="170.4" y1="657.6" x2="173.5" y2="652"/>
	</g>
	<g id="LINE_80_">
		<line class="st2" x1="174.1" y1="657.6" x2="177.2" y2="652"/>
	</g>
	<g id="LINE_81_">
		<line class="st2" x1="177.9" y1="657.6" x2="180.9" y2="652"/>
	</g>
	<g id="LINE_82_">
		<line class="st2" x1="181.6" y1="657.6" x2="184.7" y2="652"/>
	</g>
</g>
<g id="tumpuan_x5F_P1">
	<g id="LWPOLYLINE_16_">
		<polygon class="st2" points="428.6,652 441,652 434.8,641 		"/>
	</g>
	<g id="LINE_83_">
		<line class="st2" x1="446" y1="652" x2="423.6" y2="652"/>
	</g>
	<g id="LINE_84_">
		<line class="st2" x1="424.2" y1="657.6" x2="427.3" y2="652"/>
	</g>
	<g id="LINE_85_">
		<line class="st2" x1="428" y1="657.6" x2="431.1" y2="652"/>
	</g>
	<g id="LINE_86_">
		<line class="st2" x1="431.7" y1="657.6" x2="434.8" y2="652"/>
	</g>
	<g id="LINE_87_">
		<line class="st2" x1="435.4" y1="657.6" x2="438.5" y2="652"/>
	</g>
	<g id="LINE_88_">
		<line class="st2" x1="439.2" y1="657.6" x2="442.3" y2="652"/>
	</g>
</g>
<g id="tumpuan_x5F_A1">
	<g id="LWPOLYLINE_17_">
		<polygon class="st2" points="573.5,660.1 585.9,660.1 579.7,649 		"/>
	</g>
	<g id="LINE_89_">
		<line class="st2" x1="590.9" y1="660.1" x2="568.5" y2="660.1"/>
	</g>
	<g id="LINE_90_">
		<line class="st2" x1="569.1" y1="665.6" x2="572.2" y2="660.1"/>
	</g>
	<g id="LINE_91_">
		<line class="st2" x1="572.9" y1="665.6" x2="575.9" y2="660.1"/>
	</g>
	<g id="LINE_92_">
		<line class="st2" x1="576.6" y1="665.6" x2="579.7" y2="660.1"/>
	</g>
	<g id="LINE_93_">
		<line class="st2" x1="580.3" y1="665.6" x2="583.4" y2="660.1"/>
	</g>
	<g id="LINE_94_">
		<line class="st2" x1="584.1" y1="665.6" x2="587.2" y2="660.1"/>
	</g>
</g>
<g id="curve_x5F_ori">
	<g id="SPLINE">
		<path class="st3" d="M32.3,649c48.3-3,96.6-6.1,144.9-8c85.8-3.5,171.8-3.5,257.6,0c48.3,2,96.6,5,144.9,8"/>
	</g>
</g>
<path class="st2" d="M101.3,644.6c0-1.9,1.5-3.5,3.5-3.5c1.9,0,3.5,1.5,3.5,3.5c0,1.9-1.5,3.5-3.5,3.5
	C102.9,648,101.3,646.5,101.3,644.6L101.3,644.6z"/>
<g id="dot_x5F_1">
	<g id="CIRCLE_5_">
		<path class="st2" d="M302.5,638.4c0-1.9,1.5-3.5,3.5-3.5s3.5,1.5,3.5,3.5c0,1.9-1.5,3.5-3.5,3.5S302.5,640.3,302.5,638.4
			L302.5,638.4z"/>
	</g>
</g>
<g id="dot_x5F_2">
	<g id="CIRCLE_6_">
		<path class="st2" d="M503.8,644.6c0-1.9,1.5-3.5,3.5-3.5c1.9,0,3.5,1.5,3.5,3.5c0,1.9-1.5,3.5-3.5,3.5
			C505.3,648,503.8,646.5,503.8,644.6L503.8,644.6z"/>
	</g>
</g>
<g id="curve_x5F_dyn">
	<g id="SPLINE_1_">
		<path class="st2" d="M32.3,724.1c48.3-3,96.6-6.1,144.9-8c85.8-3.5,171.8-3.5,257.6,0c48.3,2,96.6,5,144.9,8"/>
	</g>
</g>
</svg>
