<?xml version="1.0" encoding="UTF-8" standalone="no"?>
<!-- Generator: Adobe Illustrator 19.0.0, SVG Export Plug-In . SVG Version: 6.00 Build 0)  -->

<svg
   xmlns:osb="http://www.openswatchbook.org/uri/2009/osb"
   xmlns:dc="http://purl.org/dc/elements/1.1/"
   xmlns:cc="http://creativecommons.org/ns#"
   xmlns:rdf="http://www.w3.org/1999/02/22-rdf-syntax-ns#"
   xmlns:svg="http://www.w3.org/2000/svg"
   xmlns="http://www.w3.org/2000/svg"
   xmlns:xlink="http://www.w3.org/1999/xlink"
   xmlns:sodipodi="http://sodipodi.sourceforge.net/DTD/sodipodi-0.dtd"
   xmlns:inkscape="http://www.inkscape.org/namespaces/inkscape"
   version="1.1"
   x="0px"
   y="0px"
   viewBox="0 0 184.20101 100.00099"
   enable-background="new 0 0 841.9 595.3"
   xml:space="preserve"
   id="svg20643"
   sodipodi:docname="kudus Inkscape.svg"
   inkscape:version="0.92.4 (5da689c313, 2019-01-14)"
><metadata
   id="metadata20649"><rdf:RDF><cc:Work
       rdf:about=""><dc:format>image/svg+xml</dc:format><dc:type
         rdf:resource="http://purl.org/dc/dcmitype/StillImage" /><dc:title></dc:title></cc:Work></rdf:RDF></metadata><defs
   id="defs20647"><linearGradient
   id="linearGradient22680"
   osb:paint="solid"><stop
     style="stop-color:#000000;stop-opacity:1;"
     offset="0"
     id="stop22678" /></linearGradient>
	
	
<linearGradient
   inkscape:collect="always"
   xlink:href="#linearGradient22680"
   id="linearGradient22682"
   x1="333.8"
   y1="284.45"
   x2="509.2"
   y2="284.45"
   gradientUnits="userSpaceOnUse" /></defs><sodipodi:namedview
   pagecolor="#ffffff"
   bordercolor="#666666"
   borderopacity="1"
   objecttolerance="10"
   gridtolerance="10"
   guidetolerance="10"
   inkscape:pageopacity="0"
   inkscape:pageshadow="2"
   inkscape:window-width="1920"
   inkscape:window-height="1137"
   id="namedview20645"
   showgrid="false"
   inkscape:zoom="5.6568543"
   inkscape:cx="115.82944"
   inkscape:cy="42.271535"
   inkscape:window-x="-8"
   inkscape:window-y="-8"
   inkscape:window-maximized="1"
   inkscape:current-layer="girder" />
<g
   id="rail"
   transform="translate(-329.39949,-246.7995)"
   style="stroke-width:0.2;stroke-miterlimit:4;stroke-dasharray:none">
	<g
   id="LWPOLYLINE"
   style="stroke-width:0.2;stroke-miterlimit:4;stroke-dasharray:none">
		
			<polyline
   stroke-miterlimit="10"
   points="    336.2,279.9 341.5,279.9 344.5,279.8 345,279.8 348.5,279.7 352,279.5 353.5,279.5 355.5,279.4 359,279.3 362.5,279.2     365.5,279.1 369.5,279 373,278.9 376.5,278.8 377.5,278.8 380,278.7 380.7,278.7 381.5,278.7 382.2,278.6 383,278.6 386.5,278.5     389.5,278.4 390,278.4 393.5,278.4 397,278.3 400.5,278.2 401.5,278.2 404,278.2 407.5,278.1 411,278.1 413.5,278.1 414.5,278.1     418,278.1 421.5,278.1 425,278.1 428.5,278.1 429.5,278.1 432,278.1 435.5,278.1 439,278.2 441.5,278.2 442.5,278.2 446,278.3     449.5,278.4 453.5,278.4 456.5,278.5 460,278.6 460.8,278.6 461.5,278.7 462.3,278.7 463,278.7 465.5,278.8 466.5,278.8     470,278.9 473.5,279 477.5,279.1 480.5,279.2 484,279.3 487.5,279.4 489.5,279.5 491,279.5 494.5,279.7 498,279.8 498.5,279.8     501.5,279.9 506.8,279.9   "
   id="polyline20316"
   style="fill:none;stroke:#808080;stroke-width:0.2;stroke-linecap:round;stroke-linejoin:round;stroke-miterlimit:4;stroke-dasharray:none" />
	</g>
	<g
   id="LWPOLYLINE_1_"
   style="stroke-width:0.2;stroke-miterlimit:4;stroke-dasharray:none">
		
			<polyline
   stroke-miterlimit="10"
   points="    336.2,279.5 341.5,279.5 344.5,279.4 345,279.4 348.5,279.3 352,279.1 353.5,279.1 355.5,279 359,278.9 362.5,278.8 365.5,278.7     369.5,278.6 373,278.5 376.5,278.4 377.5,278.4 380,278.3 380.7,278.3 381.5,278.3 382.2,278.2 383,278.2 386.5,278.1 389.5,278     390,278 393.5,278 397,277.9 400.5,277.8 401.5,277.8 404,277.8 407.5,277.7 411,277.7 413.5,277.7 414.5,277.7 418,277.7     421.5,277.7 425,277.7 428.5,277.7 429.5,277.7 432,277.7 435.5,277.7 439,277.8 441.5,277.8 442.5,277.8 446,277.9 449.5,278     453.5,278 456.5,278.1 460,278.2 460.8,278.2 461.5,278.3 462.3,278.3 463,278.3 465.5,278.4 466.5,278.4 470,278.5 473.5,278.6     477.5,278.7 480.5,278.8 484,278.9 487.5,279 489.5,279.1 491,279.1 494.5,279.3 498,279.4 498.5,279.4 501.5,279.5 506.8,279.5       "
   id="polyline20319"
   style="fill:none;stroke:#808080;stroke-width:0.2;stroke-linecap:round;stroke-linejoin:round;stroke-miterlimit:4;stroke-dasharray:none" />
	</g>
	<g
   id="LWPOLYLINE_2_"
   style="stroke-width:0.2;stroke-miterlimit:4;stroke-dasharray:none">
		
			<polyline
   stroke-miterlimit="10"
   points="    336.2,279.1 341.5,279.1 344.4,279 345,279 348.5,278.9 352,278.7 353.4,278.7 355.5,278.6 359,278.5 362.5,278.4 365.4,278.3     369.5,278.2 373,278.1 376.5,278 377.4,278 380,277.9 380.7,277.9 381.5,277.9 382.2,277.8 383,277.8 386.5,277.7 389.5,277.6     390,277.6 393.5,277.6 397,277.5 400.5,277.4 401.5,277.4 404,277.4 407.5,277.3 411,277.3 413.5,277.3 414.5,277.3 418,277.3     421.5,277.3 425,277.3 428.5,277.3 429.5,277.3 432,277.3 435.5,277.3 439,277.4 441.5,277.4 442.5,277.4 446,277.5 449.5,277.6     453.5,277.6 456.5,277.7 460,277.8 460.8,277.8 461.5,277.9 462.3,277.9 463,277.9 465.5,278 466.5,278 470,278.1 473.5,278.2     477.5,278.3 480.5,278.4 484,278.5 487.5,278.6 489.5,278.7 491,278.7 494.5,278.9 498,279 498.5,279 501.5,279.1 506.8,279.1       "
   id="polyline20322"
   style="fill:none;stroke:#808080;stroke-width:0.2;stroke-linecap:round;stroke-linejoin:round;stroke-miterlimit:4;stroke-dasharray:none" />
	</g>
	<g
   id="LINE_15_"
   style="stroke-width:0.2;stroke-miterlimit:4;stroke-dasharray:none">
		
			<line
   stroke-miterlimit="10"
   x1="336.39999"
   y1="278.89999"
   x2="336.39999"
   y2="280.29999"
   id="line20325"
   style="fill:none;stroke:#808080;stroke-width:0.2;stroke-linecap:round;stroke-linejoin:round;stroke-miterlimit:4;stroke-dasharray:none" />
	</g>
	<g
   id="LINE_16_"
   style="stroke-width:0.2;stroke-miterlimit:4;stroke-dasharray:none">
		
			<line
   stroke-miterlimit="10"
   x1="339.20001"
   y1="278.89999"
   x2="339.20001"
   y2="280.29999"
   id="line20328"
   style="fill:none;stroke:#808080;stroke-width:0.2;stroke-linecap:round;stroke-linejoin:round;stroke-miterlimit:4;stroke-dasharray:none" />
	</g>
	<g
   id="LINE_17_"
   style="stroke-width:0.2;stroke-miterlimit:4;stroke-dasharray:none">
		
			<line
   stroke-miterlimit="10"
   x1="342"
   y1="278.89999"
   x2="342.10001"
   y2="280.29999"
   id="line20331"
   style="fill:none;stroke:#808080;stroke-width:0.2;stroke-linecap:round;stroke-linejoin:round;stroke-miterlimit:4;stroke-dasharray:none" />
	</g>
	<g
   id="LINE_18_"
   style="stroke-width:0.2;stroke-miterlimit:4;stroke-dasharray:none">
		
			<line
   stroke-miterlimit="10"
   x1="347.60001"
   y1="278.70001"
   x2="347.60001"
   y2="280.10001"
   id="line20334"
   style="fill:none;stroke:#808080;stroke-width:0.2;stroke-linecap:round;stroke-linejoin:round;stroke-miterlimit:4;stroke-dasharray:none" />
	</g>
	<g
   id="LINE_19_"
   style="stroke-width:0.2;stroke-miterlimit:4;stroke-dasharray:none">
		
			<line
   stroke-miterlimit="10"
   x1="351.29999"
   y1="278.60001"
   x2="351.29999"
   y2="280"
   id="line20337"
   style="fill:none;stroke:#808080;stroke-width:0.2;stroke-linecap:round;stroke-linejoin:round;stroke-miterlimit:4;stroke-dasharray:none" />
	</g>
	<g
   id="LINE_20_"
   style="stroke-width:0.2;stroke-miterlimit:4;stroke-dasharray:none">
		
			<line
   stroke-miterlimit="10"
   x1="355"
   y1="278.5"
   x2="355"
   y2="279.89999"
   id="line20340"
   style="fill:none;stroke:#808080;stroke-width:0.2;stroke-linecap:round;stroke-linejoin:round;stroke-miterlimit:4;stroke-dasharray:none" />
	</g>
	<g
   id="LINE_21_"
   style="stroke-width:0.2;stroke-miterlimit:4;stroke-dasharray:none">
		
			<line
   stroke-miterlimit="10"
   x1="358.70001"
   y1="278.39999"
   x2="358.70001"
   y2="279.79999"
   id="line20343"
   style="fill:none;stroke:#808080;stroke-width:0.2;stroke-linecap:round;stroke-linejoin:round;stroke-miterlimit:4;stroke-dasharray:none" />
	</g>
	<g
   id="LINE_22_"
   style="stroke-width:0.2;stroke-miterlimit:4;stroke-dasharray:none">
		
			<line
   stroke-miterlimit="10"
   x1="362.39999"
   y1="278.29999"
   x2="362.39999"
   y2="279.70001"
   id="line20346"
   style="fill:none;stroke:#808080;stroke-width:0.2;stroke-linecap:round;stroke-linejoin:round;stroke-miterlimit:4;stroke-dasharray:none" />
	</g>
	<g
   id="LINE_23_"
   style="stroke-width:0.2;stroke-miterlimit:4;stroke-dasharray:none">
		
			<line
   stroke-miterlimit="10"
   x1="366.10001"
   y1="278.20001"
   x2="366.10001"
   y2="279.60001"
   id="line20349"
   style="fill:none;stroke:#808080;stroke-width:0.2;stroke-linecap:round;stroke-linejoin:round;stroke-miterlimit:4;stroke-dasharray:none" />
	</g>
	<g
   id="LINE_24_"
   style="stroke-width:0.2;stroke-miterlimit:4;stroke-dasharray:none">
		
			<line
   stroke-miterlimit="10"
   x1="369.79999"
   y1="278.10001"
   x2="369.79999"
   y2="279.5"
   id="line20352"
   style="fill:none;stroke:#808080;stroke-width:0.2;stroke-linecap:round;stroke-linejoin:round;stroke-miterlimit:4;stroke-dasharray:none" />
	</g>
	<g
   id="LINE_25_"
   style="stroke-width:0.2;stroke-miterlimit:4;stroke-dasharray:none">
		
			<line
   stroke-miterlimit="10"
   x1="373.5"
   y1="278"
   x2="373.5"
   y2="279.39999"
   id="line20355"
   style="fill:none;stroke:#808080;stroke-width:0.2;stroke-linecap:round;stroke-linejoin:round;stroke-miterlimit:4;stroke-dasharray:none" />
	</g>
	<g
   id="LINE_26_"
   style="stroke-width:0.2;stroke-miterlimit:4;stroke-dasharray:none">
		
			<line
   stroke-miterlimit="10"
   x1="377.20001"
   y1="277.89999"
   x2="377.20001"
   y2="279.20001"
   id="line20358"
   style="fill:none;stroke:#808080;stroke-width:0.2;stroke-linecap:round;stroke-linejoin:round;stroke-miterlimit:4;stroke-dasharray:none" />
	</g>
	<g
   id="LINE_27_"
   style="stroke-width:0.2;stroke-miterlimit:4;stroke-dasharray:none">
		
			<line
   stroke-miterlimit="10"
   x1="380.89999"
   y1="277.70001"
   x2="380.89999"
   y2="279.10001"
   id="line20361"
   style="fill:none;stroke:#808080;stroke-width:0.2;stroke-linecap:round;stroke-linejoin:round;stroke-miterlimit:4;stroke-dasharray:none" />
	</g>
	<g
   id="LINE_28_"
   style="stroke-width:0.2;stroke-miterlimit:4;stroke-dasharray:none">
		
			<line
   stroke-miterlimit="10"
   x1="384.60001"
   y1="277.60001"
   x2="384.60001"
   y2="279"
   id="line20364"
   style="fill:none;stroke:#808080;stroke-width:0.2;stroke-linecap:round;stroke-linejoin:round;stroke-miterlimit:4;stroke-dasharray:none" />
	</g>
	<g
   id="LINE_29_"
   style="stroke-width:0.2;stroke-miterlimit:4;stroke-dasharray:none">
		
			<line
   stroke-miterlimit="10"
   x1="388.29999"
   y1="277.5"
   x2="388.29999"
   y2="278.89999"
   id="line20367"
   style="fill:none;stroke:#808080;stroke-width:0.2;stroke-linecap:round;stroke-linejoin:round;stroke-miterlimit:4;stroke-dasharray:none" />
	</g>
	<g
   id="LINE_30_"
   style="stroke-width:0.2;stroke-miterlimit:4;stroke-dasharray:none">
		
			<line
   stroke-miterlimit="10"
   x1="392"
   y1="277.39999"
   x2="392"
   y2="278.79999"
   id="line20370"
   style="fill:none;stroke:#808080;stroke-width:0.2;stroke-linecap:round;stroke-linejoin:round;stroke-miterlimit:4;stroke-dasharray:none" />
	</g>
	<g
   id="LINE_31_"
   style="stroke-width:0.2;stroke-miterlimit:4;stroke-dasharray:none">
		
			<line
   stroke-miterlimit="10"
   x1="395.70001"
   y1="277.39999"
   x2="395.70001"
   y2="278.79999"
   id="line20373"
   style="fill:none;stroke:#808080;stroke-width:0.2;stroke-linecap:round;stroke-linejoin:round;stroke-miterlimit:4;stroke-dasharray:none" />
	</g>
	<g
   id="LINE_32_"
   style="stroke-width:0.2;stroke-miterlimit:4;stroke-dasharray:none">
		
			<line
   stroke-miterlimit="10"
   x1="399.39999"
   y1="277.29999"
   x2="399.39999"
   y2="278.70001"
   id="line20376"
   style="fill:none;stroke:#808080;stroke-width:0.2;stroke-linecap:round;stroke-linejoin:round;stroke-miterlimit:4;stroke-dasharray:none" />
	</g>
	<g
   id="LINE_33_"
   style="stroke-width:0.2;stroke-miterlimit:4;stroke-dasharray:none">
		
			<line
   stroke-miterlimit="10"
   x1="403.10001"
   y1="277.29999"
   x2="403.10001"
   y2="278.60001"
   id="line20379"
   style="fill:none;stroke:#808080;stroke-width:0.2;stroke-linecap:round;stroke-linejoin:round;stroke-miterlimit:4;stroke-dasharray:none" />
	</g>
	<g
   id="LINE_34_"
   style="stroke-width:0.2;stroke-miterlimit:4;stroke-dasharray:none">
		
			<line
   stroke-miterlimit="10"
   x1="406.79999"
   y1="277.20001"
   x2="406.79999"
   y2="278.60001"
   id="line20382"
   style="fill:none;stroke:#808080;stroke-width:0.2;stroke-linecap:round;stroke-linejoin:round;stroke-miterlimit:4;stroke-dasharray:none" />
	</g>
	<g
   id="LINE_35_"
   style="stroke-width:0.2;stroke-miterlimit:4;stroke-dasharray:none">
		
			<line
   stroke-miterlimit="10"
   x1="410.5"
   y1="277.20001"
   x2="410.5"
   y2="278.60001"
   id="line20385"
   style="fill:none;stroke:#808080;stroke-width:0.2;stroke-linecap:round;stroke-linejoin:round;stroke-miterlimit:4;stroke-dasharray:none" />
	</g>
	<g
   id="LINE_36_"
   style="stroke-width:0.2;stroke-miterlimit:4;stroke-dasharray:none">
		
			<line
   stroke-miterlimit="10"
   x1="414.20001"
   y1="277.10001"
   x2="414.20001"
   y2="278.5"
   id="line20388"
   style="fill:none;stroke:#808080;stroke-width:0.2;stroke-linecap:round;stroke-linejoin:round;stroke-miterlimit:4;stroke-dasharray:none" />
	</g>
	<g
   id="LINE_37_"
   style="stroke-width:0.2;stroke-miterlimit:4;stroke-dasharray:none">
		
			<line
   stroke-miterlimit="10"
   x1="417.89999"
   y1="277.10001"
   x2="417.89999"
   y2="278.5"
   id="line20391"
   style="fill:none;stroke:#808080;stroke-width:0.2;stroke-linecap:round;stroke-linejoin:round;stroke-miterlimit:4;stroke-dasharray:none" />
	</g>
	<g
   id="LINE_38_"
   style="stroke-width:0.2;stroke-miterlimit:4;stroke-dasharray:none">
		
			<line
   stroke-miterlimit="10"
   x1="421.5"
   y1="277.10001"
   x2="421.5"
   y2="278.5"
   id="line20394"
   style="fill:none;stroke:#808080;stroke-width:0.2;stroke-linecap:round;stroke-linejoin:round;stroke-miterlimit:4;stroke-dasharray:none" />
	</g>
	<g
   id="LINE_39_"
   style="stroke-width:0.2;stroke-miterlimit:4;stroke-dasharray:none">
		
			<line
   stroke-miterlimit="10"
   x1="506.60001"
   y1="278.89999"
   x2="506.60001"
   y2="280.29999"
   id="line20397"
   style="fill:none;stroke:#808080;stroke-width:0.2;stroke-linecap:round;stroke-linejoin:round;stroke-miterlimit:4;stroke-dasharray:none" />
	</g>
	<g
   id="LINE_40_"
   style="stroke-width:0.2;stroke-miterlimit:4;stroke-dasharray:none">
		
			<line
   stroke-miterlimit="10"
   x1="503.79999"
   y1="278.89999"
   x2="503.79999"
   y2="280.29999"
   id="line20400"
   style="fill:none;stroke:#808080;stroke-width:0.2;stroke-linecap:round;stroke-linejoin:round;stroke-miterlimit:4;stroke-dasharray:none" />
	</g>
	<g
   id="LINE_41_"
   style="stroke-width:0.2;stroke-miterlimit:4;stroke-dasharray:none">
		
			<line
   stroke-miterlimit="10"
   x1="495.39999"
   y1="278.70001"
   x2="495.39999"
   y2="280.10001"
   id="line20403"
   style="fill:none;stroke:#808080;stroke-width:0.2;stroke-linecap:round;stroke-linejoin:round;stroke-miterlimit:4;stroke-dasharray:none" />
	</g>
	<g
   id="LINE_42_"
   style="stroke-width:0.2;stroke-miterlimit:4;stroke-dasharray:none">
		
			<line
   stroke-miterlimit="10"
   x1="491.70001"
   y1="278.60001"
   x2="491.70001"
   y2="280"
   id="line20406"
   style="fill:none;stroke:#808080;stroke-width:0.2;stroke-linecap:round;stroke-linejoin:round;stroke-miterlimit:4;stroke-dasharray:none" />
	</g>
	<g
   id="LINE_43_"
   style="stroke-width:0.2;stroke-miterlimit:4;stroke-dasharray:none">
		
			<line
   stroke-miterlimit="10"
   x1="488"
   y1="278.5"
   x2="488"
   y2="279.89999"
   id="line20409"
   style="fill:none;stroke:#808080;stroke-width:0.2;stroke-linecap:round;stroke-linejoin:round;stroke-miterlimit:4;stroke-dasharray:none" />
	</g>
	<g
   id="LINE_44_"
   style="stroke-width:0.2;stroke-miterlimit:4;stroke-dasharray:none">
		
			<line
   stroke-miterlimit="10"
   x1="484.29999"
   y1="278.39999"
   x2="484.29999"
   y2="279.79999"
   id="line20412"
   style="fill:none;stroke:#808080;stroke-width:0.2;stroke-linecap:round;stroke-linejoin:round;stroke-miterlimit:4;stroke-dasharray:none" />
	</g>
	<g
   id="LINE_45_"
   style="stroke-width:0.2;stroke-miterlimit:4;stroke-dasharray:none">
		
			<line
   stroke-miterlimit="10"
   x1="480.60001"
   y1="278.29999"
   x2="480.60001"
   y2="279.70001"
   id="line20415"
   style="fill:none;stroke:#808080;stroke-width:0.2;stroke-linecap:round;stroke-linejoin:round;stroke-miterlimit:4;stroke-dasharray:none" />
	</g>
	<g
   id="LINE_46_"
   style="stroke-width:0.2;stroke-miterlimit:4;stroke-dasharray:none">
		
			<line
   stroke-miterlimit="10"
   x1="476.89999"
   y1="278.20001"
   x2="476.89999"
   y2="279.60001"
   id="line20418"
   style="fill:none;stroke:#808080;stroke-width:0.2;stroke-linecap:round;stroke-linejoin:round;stroke-miterlimit:4;stroke-dasharray:none" />
	</g>
	<g
   id="LINE_47_"
   style="stroke-width:0.2;stroke-miterlimit:4;stroke-dasharray:none">
		
			<line
   stroke-miterlimit="10"
   x1="473.20001"
   y1="278.10001"
   x2="473.20001"
   y2="279.5"
   id="line20421"
   style="fill:none;stroke:#808080;stroke-width:0.2;stroke-linecap:round;stroke-linejoin:round;stroke-miterlimit:4;stroke-dasharray:none" />
	</g>
	<g
   id="LINE_48_"
   style="stroke-width:0.2;stroke-miterlimit:4;stroke-dasharray:none">
		
			<line
   stroke-miterlimit="10"
   x1="469.5"
   y1="278"
   x2="469.5"
   y2="279.39999"
   id="line20424"
   style="fill:none;stroke:#808080;stroke-width:0.2;stroke-linecap:round;stroke-linejoin:round;stroke-miterlimit:4;stroke-dasharray:none" />
	</g>
	<g
   id="LINE_49_"
   style="stroke-width:0.2;stroke-miterlimit:4;stroke-dasharray:none">
		
			<line
   stroke-miterlimit="10"
   x1="465.79999"
   y1="277.89999"
   x2="465.79999"
   y2="279.20001"
   id="line20427"
   style="fill:none;stroke:#808080;stroke-width:0.2;stroke-linecap:round;stroke-linejoin:round;stroke-miterlimit:4;stroke-dasharray:none" />
	</g>
	<g
   id="LINE_50_"
   style="stroke-width:0.2;stroke-miterlimit:4;stroke-dasharray:none">
		
			<line
   stroke-miterlimit="10"
   x1="462.10001"
   y1="277.70001"
   x2="462.10001"
   y2="279.10001"
   id="line20430"
   style="fill:none;stroke:#808080;stroke-width:0.2;stroke-linecap:round;stroke-linejoin:round;stroke-miterlimit:4;stroke-dasharray:none" />
	</g>
	<g
   id="LINE_51_"
   style="stroke-width:0.2;stroke-miterlimit:4;stroke-dasharray:none">
		
			<line
   stroke-miterlimit="10"
   x1="458.39999"
   y1="277.60001"
   x2="458.39999"
   y2="279"
   id="line20433"
   style="fill:none;stroke:#808080;stroke-width:0.2;stroke-linecap:round;stroke-linejoin:round;stroke-miterlimit:4;stroke-dasharray:none" />
	</g>
	<g
   id="LINE_52_"
   style="stroke-width:0.2;stroke-miterlimit:4;stroke-dasharray:none">
		
			<line
   stroke-miterlimit="10"
   x1="454.70001"
   y1="277.5"
   x2="454.70001"
   y2="278.89999"
   id="line20436"
   style="fill:none;stroke:#808080;stroke-width:0.2;stroke-linecap:round;stroke-linejoin:round;stroke-miterlimit:4;stroke-dasharray:none" />
	</g>
	<g
   id="LINE_53_"
   style="stroke-width:0.2;stroke-miterlimit:4;stroke-dasharray:none">
		
			<line
   stroke-miterlimit="10"
   x1="451"
   y1="277.39999"
   x2="451"
   y2="278.79999"
   id="line20439"
   style="fill:none;stroke:#808080;stroke-width:0.2;stroke-linecap:round;stroke-linejoin:round;stroke-miterlimit:4;stroke-dasharray:none" />
	</g>
	<g
   id="LINE_54_"
   style="stroke-width:0.2;stroke-miterlimit:4;stroke-dasharray:none">
		
			<line
   stroke-miterlimit="10"
   x1="447.29999"
   y1="277.39999"
   x2="447.29999"
   y2="278.79999"
   id="line20442"
   style="fill:none;stroke:#808080;stroke-width:0.2;stroke-linecap:round;stroke-linejoin:round;stroke-miterlimit:4;stroke-dasharray:none" />
	</g>
	<g
   id="LINE_55_"
   style="stroke-width:0.2;stroke-miterlimit:4;stroke-dasharray:none">
		
			<line
   stroke-miterlimit="10"
   x1="443.60001"
   y1="277.29999"
   x2="443.60001"
   y2="278.70001"
   id="line20445"
   style="fill:none;stroke:#808080;stroke-width:0.2;stroke-linecap:round;stroke-linejoin:round;stroke-miterlimit:4;stroke-dasharray:none" />
	</g>
	<g
   id="LINE_56_"
   style="stroke-width:0.2;stroke-miterlimit:4;stroke-dasharray:none">
		
			<line
   stroke-miterlimit="10"
   x1="451"
   y1="277.39999"
   x2="451"
   y2="278.79999"
   id="line20448"
   style="fill:none;stroke:#808080;stroke-width:0.2;stroke-linecap:round;stroke-linejoin:round;stroke-miterlimit:4;stroke-dasharray:none" />
	</g>
	<g
   id="LINE_57_"
   style="stroke-width:0.2;stroke-miterlimit:4;stroke-dasharray:none">
		
			<line
   stroke-miterlimit="10"
   x1="447.29999"
   y1="277.39999"
   x2="447.29999"
   y2="278.79999"
   id="line20451"
   style="fill:none;stroke:#808080;stroke-width:0.2;stroke-linecap:round;stroke-linejoin:round;stroke-miterlimit:4;stroke-dasharray:none" />
	</g>
	<g
   id="LINE_58_"
   style="stroke-width:0.2;stroke-miterlimit:4;stroke-dasharray:none">
		
			<line
   stroke-miterlimit="10"
   x1="443.60001"
   y1="277.29999"
   x2="443.60001"
   y2="278.70001"
   id="line20454"
   style="fill:none;stroke:#808080;stroke-width:0.2;stroke-linecap:round;stroke-linejoin:round;stroke-miterlimit:4;stroke-dasharray:none" />
	</g>
	<g
   id="LINE_59_"
   style="stroke-width:0.2;stroke-miterlimit:4;stroke-dasharray:none">
		
			<line
   stroke-miterlimit="10"
   x1="439.89999"
   y1="277.29999"
   x2="439.89999"
   y2="278.60001"
   id="line20457"
   style="fill:none;stroke:#808080;stroke-width:0.2;stroke-linecap:round;stroke-linejoin:round;stroke-miterlimit:4;stroke-dasharray:none" />
	</g>
	<g
   id="LINE_60_"
   style="stroke-width:0.2;stroke-miterlimit:4;stroke-dasharray:none">
		
			<line
   stroke-miterlimit="10"
   x1="432.5"
   y1="277.20001"
   x2="432.5"
   y2="278.60001"
   id="line20460"
   style="fill:none;stroke:#808080;stroke-width:0.2;stroke-linecap:round;stroke-linejoin:round;stroke-miterlimit:4;stroke-dasharray:none" />
	</g>
	<g
   id="LINE_61_"
   style="stroke-width:0.2;stroke-miterlimit:4;stroke-dasharray:none">
		
			<line
   stroke-miterlimit="10"
   x1="428.79999"
   y1="277.10001"
   x2="428.79999"
   y2="278.5"
   id="line20463"
   style="fill:none;stroke:#808080;stroke-width:0.2;stroke-linecap:round;stroke-linejoin:round;stroke-miterlimit:4;stroke-dasharray:none" />
	</g>
	<g
   id="LINE_62_"
   style="stroke-width:0.2;stroke-miterlimit:4;stroke-dasharray:none">
		
			<line
   stroke-miterlimit="10"
   x1="425.10001"
   y1="277.10001"
   x2="425.10001"
   y2="278.5"
   id="line20466"
   style="fill:none;stroke:#808080;stroke-width:0.2;stroke-linecap:round;stroke-linejoin:round;stroke-miterlimit:4;stroke-dasharray:none" />
	</g>
</g>
<g
   id="tumpuan"
   transform="translate(-329.39949,-246.7995)"
   style="fill:#916f6f;fill-opacity:0.68000001;stroke-width:0.2;stroke-miterlimit:4;stroke-dasharray:none;stroke:#6c5353">
	<g
   id="LINE"
   style="fill:#916f6f;fill-opacity:0.68000001;stroke-width:0.2;stroke-miterlimit:4;stroke-dasharray:none;stroke:#6c5353">
		
			<line
   stroke-miterlimit="10"
   x1="462.79999"
   y1="283.5"
   x2="460.20001"
   y2="283.5"
   id="line20470"
   style="fill:#916f6f;fill-opacity:0.68000001;stroke:#6c5353;stroke-width:0.2;stroke-linecap:round;stroke-linejoin:round;stroke-miterlimit:4;stroke-dasharray:none" />
	</g>
	<g
   id="LWPOLYLINE_4_"
   style="fill:#916f6f;fill-opacity:0.68000001;stroke-width:0.2;stroke-miterlimit:4;stroke-dasharray:none;stroke:#6c5353">
		
			<polygon
   stroke-miterlimit="10"
   points="335.4,283.4 335.4,280.3 336,280.3 336,282.9 337.5,282.9 337.5,283.4 337,283.9 337,286.2 339.1,286.7 339.1,287.4 333.9,287.4 333.9,286.7 336,286.2 336,283.9 "
   id="polygon20473"
   style="fill:#916f6f;fill-opacity:0.68000001;stroke:#6c5353;stroke-width:0.2;stroke-linecap:round;stroke-linejoin:round;stroke-miterlimit:4;stroke-dasharray:none" />
	</g>
	<g
   id="LWPOLYLINE_5_"
   style="fill:#916f6f;fill-opacity:0.68000001;stroke-width:0.2;stroke-miterlimit:4;stroke-dasharray:none;stroke:#6c5353">
		
			<rect
   x="336"
   y="282.39999"
   stroke-miterlimit="10"
   width="1"
   height="0.5"
   id="rect20476"
   style="fill:#916f6f;fill-opacity:0.68000001;stroke:#6c5353;stroke-width:0.2;stroke-linecap:round;stroke-linejoin:round;stroke-miterlimit:4;stroke-dasharray:none" />
	</g>
	<g
   id="LWPOLYLINE_6_"
   style="fill:#916f6f;fill-opacity:0.68000001;stroke-width:0.2;stroke-miterlimit:4;stroke-dasharray:none;stroke:#6c5353">
		
			<rect
   x="506.29999"
   y="282.29999"
   stroke-miterlimit="10"
   width="0.30000001"
   height="0.1"
   id="rect20479"
   style="fill:#916f6f;fill-opacity:0.68000001;stroke:#6c5353;stroke-width:0.2;stroke-linecap:round;stroke-linejoin:round;stroke-miterlimit:4;stroke-dasharray:none" />
	</g>
	<g
   id="LWPOLYLINE_7_"
   style="fill:#916f6f;fill-opacity:0.68000001;stroke-width:0.2;stroke-miterlimit:4;stroke-dasharray:none;stroke:#6c5353">
		
			<polygon
   stroke-miterlimit="10"
   points="507.6,283.4 507.6,280.3 507,280.3 507,282.9 505.5,282.9 505.5,283.4 506,283.9 506,286.2 503.9,286.7 503.9,287.4 509.1,287.4 509.1,286.7 507,286.2 507,283.9 "
   id="polygon20482"
   style="fill:#916f6f;fill-opacity:0.68000001;stroke:#6c5353;stroke-width:0.2;stroke-linecap:round;stroke-linejoin:round;stroke-miterlimit:4;stroke-dasharray:none" />
	</g>
	<g
   id="LWPOLYLINE_8_"
   style="fill:#916f6f;fill-opacity:0.68000001;stroke-width:0.2;stroke-miterlimit:4;stroke-dasharray:none;stroke:#6c5353">
		
			<rect
   x="506"
   y="282.39999"
   stroke-miterlimit="10"
   width="1"
   height="0.5"
   id="rect20485"
   style="fill:#916f6f;fill-opacity:0.68000001;stroke:#6c5353;stroke-width:0.2;stroke-linecap:round;stroke-linejoin:round;stroke-miterlimit:4;stroke-dasharray:none" />
	</g>
	<g
   id="LWPOLYLINE_9_"
   style="fill:#916f6f;fill-opacity:0.68000001;stroke-width:0.2;stroke-miterlimit:4;stroke-dasharray:none;stroke:#6c5353">
		
			<polygon
   stroke-miterlimit="10"
   points="383.1,283.5 383.1,284.8 382.5,284.8 382.5,286.5 385.7,287 385.7,288.6 377.3,288.6 377.3,287 380.5,286.5 380.5,284.8 379.9,284.8 379.9,283.5 381.5,283.5 "
   id="polygon20488"
   style="fill:#916f6f;fill-opacity:0.68000001;stroke:#6c5353;stroke-width:0.2;stroke-linecap:round;stroke-linejoin:round;stroke-miterlimit:4;stroke-dasharray:none" />
	</g>
	<g
   id="LWPOLYLINE_10_"
   style="fill:#916f6f;fill-opacity:0.68000001;stroke-width:0.2;stroke-miterlimit:4;stroke-dasharray:none;stroke:#6c5353">
		
			<polygon
   stroke-miterlimit="10"
   points="465.7,288.6 465.7,287 462.5,286.5 462.5,284.8 463.1,284.8 463.1,283.5 461.5,283.5 459.9,283.5 459.9,284.8 460.5,284.8 460.5,286.5 457.3,287 457.3,288.6 "
   id="polygon20491"
   style="fill:#916f6f;fill-opacity:0.68000001;stroke:#6c5353;stroke-width:0.2;stroke-linecap:round;stroke-linejoin:round;stroke-miterlimit:4;stroke-dasharray:none" />
	</g>
	<g
   id="LWPOLYLINE_11_"
   style="fill:#916f6f;fill-opacity:0.68000001;stroke-width:0.2;stroke-miterlimit:4;stroke-dasharray:none;stroke:#6c5353">
		
			<rect
   x="461.20001"
   y="283.39999"
   stroke-miterlimit="10"
   width="0.60000002"
   height="0.1"
   id="rect20494"
   style="fill:#916f6f;fill-opacity:0.68000001;stroke:#6c5353;stroke-width:0.2;stroke-linecap:round;stroke-linejoin:round;stroke-miterlimit:4;stroke-dasharray:none" />
	</g>
	<g
   id="LWPOLYLINE_12_"
   style="fill:#916f6f;fill-opacity:0.68000001;stroke-width:0.2;stroke-miterlimit:4;stroke-dasharray:none;stroke:#6c5353">
		
			<rect
   x="336.29999"
   y="282.29999"
   stroke-miterlimit="10"
   width="0.30000001"
   height="0.1"
   id="rect20497"
   style="fill:#916f6f;fill-opacity:0.68000001;stroke:#6c5353;stroke-width:0.2;stroke-linecap:round;stroke-linejoin:round;stroke-miterlimit:4;stroke-dasharray:none" />
	</g>
	<g
   id="LWPOLYLINE_13_"
   style="fill:#916f6f;fill-opacity:0.68000001;stroke-width:0.2;stroke-miterlimit:4;stroke-dasharray:none;stroke:#6c5353">
		
			<rect
   x="381.20001"
   y="283.39999"
   stroke-miterlimit="10"
   width="0.60000002"
   height="0.1"
   id="rect20500"
   style="fill:#916f6f;fill-opacity:0.68000001;stroke:#6c5353;stroke-width:0.2;stroke-linecap:round;stroke-linejoin:round;stroke-miterlimit:4;stroke-dasharray:none" />
	</g>
</g>
<g
   id="girder"
   transform="translate(-329.39949,-246.7995)"
   style="fill:#ff0000;fill-opacity:0.68000034;fill-rule:nonzero;stroke:#000000;stroke-width:0.2;stroke-miterlimit:4;stroke-dasharray:none;stroke-opacity:1"><path
   id="path20546"
   style="fill:#ff0000;fill-opacity:0.68000034;fill-rule:nonzero;stroke:#000000;stroke-width:0.2;stroke-linecap:round;stroke-linejoin:round;stroke-miterlimit:4;stroke-dasharray:none;stroke-opacity:1"
   d="m 506.9,280.3 h -5.4 l -3,-0.1 H 498 l -3.5,-0.1 -3.5,-0.1 h -1.5 l -2,-0.1 -3.5,-0.1 -3.5,-0.1 -3,-0.1 -4,-0.1 -3.5,-0.1 -3.5,-0.1 h -1 l -2.5,-0.1 h -0.8 -0.7 -0.8 -0.7 l -3.5,-0.1 -3,-0.1 -4,-0.1 -3.5,-0.1 -3.5,-0.1 h -1 -2.5 -3.5 -3.5 -2.5 -1 -3.5 -3.5 -3.5 -3.5 -1 -2.5 -3.5 -3.5 -2.5 -1 l -3.5,0.1 -3.5,0.1 -3.5,0.1 h -0.5 l -3,0.1 -3.5,0.1 h -0.8 -0.7 -0.8 -0.7 l -2.5,0.1 h -1 l -3.5,0.1 -3.5,0.1 -4,0.1 -3,0.1 -3.5,0.1 -3.5,0.1 -2,0.1 H 352 l -3.5,0.1 -3.5,0.1 h -0.5 l -3,0.1 h -5.4 v 2 h 5.4 c 1,0 2,0 3,0 3,0 6,0 9,0.1 4,0.1 8,0.2 12,0.3 4,0.1 8,0.3 12,0.5 1.1,0.1 2.2,0.1 3.3,0.2 h 1.5 c 2.4,-0.4 4.8,-0.7 7.3,-1 4,-0.5 8,-0.9 12,-1.2 4,-0.3 8,-0.5 12,-0.6 2.7,-0.1 5.3,-0.1 8,-0.1 2.7,0 5.3,0 8,0.1 4,0.1 8,0.3 12,0.6 4,0.3 8,0.7 12,1.2 2.4,0.3 4.8,0.6 7.3,1 h 1.5 c 1.1,-0.1 2.2,-0.1 3.3,-0.2 4,-0.2 8,-0.4 12,-0.5 4,-0.1 8,-0.2 12,-0.3 3,0 6,-0.1 9,-0.1 1,0 2,0 3,0 h 5.4 v -2 z m -8.4,-0.1 v 2.09998 M 489.5,280 v 2.39999 m -12,-2.79998 v 3.1 m -12,-3.5 v 4 m -12,-4.30002 v 3.5 m -12,-3.69998 v 2.5 M 429.5,278.5 v 2.10001 M 413.5,278.5 v 2.10001 m -12,-1.9 v 2.59998 m -12,-2.4 v 3.5 m -12,-3.19998 v 4 m -12,-3.6 v 3.1 M 353.5,280 v 2.39999 m -9,-2.19998 v 2.09998"
   inkscape:connector-curvature="0" />
	<g
   id="LINE_1_"
   style="fill:#ff0000;fill-opacity:0.68000034;fill-rule:nonzero;stroke:#000000;stroke-width:0.2;stroke-miterlimit:4;stroke-dasharray:none;stroke-opacity:1">
		
			
	</g>
	<g
   id="LINE_2_"
   style="fill:#ff0000;fill-opacity:0.68000034;fill-rule:nonzero;stroke:#000000;stroke-width:0.2;stroke-miterlimit:4;stroke-dasharray:none;stroke-opacity:1">
		
			
	</g>
	<g
   id="LINE_3_"
   style="fill:#ff0000;fill-opacity:0.68000034;fill-rule:nonzero;stroke:#000000;stroke-width:0.2;stroke-miterlimit:4;stroke-dasharray:none;stroke-opacity:1">
		
			
	</g>
	<g
   id="LINE_4_"
   style="fill:#ff0000;fill-opacity:0.68000034;fill-rule:nonzero;stroke:#000000;stroke-width:0.2;stroke-miterlimit:4;stroke-dasharray:none;stroke-opacity:1">
		
			
	</g>
	<g
   id="LINE_5_"
   style="fill:#ff0000;fill-opacity:0.68000034;fill-rule:nonzero;stroke:#000000;stroke-width:0.2;stroke-miterlimit:4;stroke-dasharray:none;stroke-opacity:1">
		
			
	</g>
	<g
   id="LINE_6_"
   style="fill:#ff0000;fill-opacity:0.68000034;fill-rule:nonzero;stroke:#000000;stroke-width:0.2;stroke-miterlimit:4;stroke-dasharray:none;stroke-opacity:1">
		
			
	</g>
	<g
   id="LINE_7_"
   style="fill:#ff0000;fill-opacity:0.68000034;fill-rule:nonzero;stroke:#000000;stroke-width:0.2;stroke-miterlimit:4;stroke-dasharray:none;stroke-opacity:1">
		
			
	</g>
	<g
   id="LINE_8_"
   style="fill:#ff0000;fill-opacity:0.68000034;fill-rule:nonzero;stroke:#000000;stroke-width:0.2;stroke-miterlimit:4;stroke-dasharray:none;stroke-opacity:1">
		
			
	</g>
	<g
   id="LINE_9_"
   style="fill:#ff0000;fill-opacity:0.68000034;fill-rule:nonzero;stroke:#000000;stroke-width:0.2;stroke-miterlimit:4;stroke-dasharray:none;stroke-opacity:1">
		
			
	</g>
	<g
   id="LINE_10_"
   style="fill:#ff0000;fill-opacity:0.68000034;fill-rule:nonzero;stroke:#000000;stroke-width:0.2;stroke-miterlimit:4;stroke-dasharray:none;stroke-opacity:1">
		
			
	</g>
	<g
   id="LINE_11_"
   style="fill:#ff0000;fill-opacity:0.68000034;fill-rule:nonzero;stroke:#000000;stroke-width:0.2;stroke-miterlimit:4;stroke-dasharray:none;stroke-opacity:1">
		
			
	</g>
	<g
   id="LINE_12_"
   style="fill:#ff0000;fill-opacity:0.68000034;fill-rule:nonzero;stroke:#000000;stroke-width:0.2;stroke-miterlimit:4;stroke-dasharray:none;stroke-opacity:1">
		
			
	</g>
	<g
   id="LINE_13_"
   style="fill:#ff0000;fill-opacity:0.68000034;fill-rule:nonzero;stroke:#000000;stroke-width:0.2;stroke-miterlimit:4;stroke-dasharray:none;stroke-opacity:1">
		
			
	</g>
	<g
   id="LINE_14_"
   style="fill:#ff0000;fill-opacity:0.68000034;fill-rule:nonzero;stroke:#000000;stroke-width:0.2;stroke-miterlimit:4;stroke-dasharray:none;stroke-opacity:1">
		
			
	</g>
	<g
   id="LWPOLYLINE_3_"
   style="fill:#ff0000;fill-opacity:0.68000034;fill-rule:nonzero;stroke:#000000;stroke-width:0.2;stroke-miterlimit:4;stroke-dasharray:none;stroke-opacity:1">
		
			
	</g>
</g>
<g
   style="stroke:#000000;stroke-width:0.2;stroke-miterlimit:4;stroke-dasharray:0.8, 1.6;stroke-dashoffset:0;stroke-opacity:1"
   id="LINE_63_"
   transform="translate(-329.39949,-246.7995)">
		
			<line
   style="fill:none;stroke:#000000;stroke-width:0.2;stroke-linecap:round;stroke-linejoin:round;stroke-miterlimit:4;stroke-dasharray:0.8, 1.6;stroke-dashoffset:0;stroke-opacity:1"
   id="line20550"
   y2="346.79999"
   x2="381.5"
   y1="267.39999"
   x1="381.5"
   stroke-miterlimit="10" />
	</g><g
   style="stroke-width:0.2;stroke-miterlimit:4;stroke-dasharray:0.8,1.6;stroke:#000000;stroke-opacity:1;stroke-dashoffset:0"
   id="LINE_64_"
   transform="translate(-329.39949,-246.7995)">
		
			<line
   style="fill:none;stroke:#000000;stroke-width:0.2;stroke-linecap:round;stroke-linejoin:round;stroke-miterlimit:4;stroke-dasharray:0.8,1.6;stroke-opacity:1;stroke-dashoffset:0"
   id="line20553"
   y2="346.79999"
   x2="461.5"
   y1="267.39999"
   x1="461.5"
   stroke-miterlimit="10" />
	</g><g
   style="stroke-width:0.2;stroke-miterlimit:4;stroke-dasharray:0.8,1.6;stroke:#000000;stroke-dashoffset:0"
   id="LINE_65_"
   transform="translate(-329.39949,-246.7995)">
		
			<line
   style="fill:none;stroke:#000000;stroke-width:0.2;stroke-linecap:round;stroke-linejoin:round;stroke-miterlimit:4;stroke-dasharray:0.8,1.6;stroke-dashoffset:0"
   id="line20556"
   y2="346.79999"
   x2="506.5"
   y1="267.39999"
   x1="506.5"
   stroke-miterlimit="10" />
	</g><g
   style="stroke-width:0.2;stroke-miterlimit:4;stroke-dasharray:0.80000001,1.60000002;stroke:#000000;stroke-dashoffset:0"
   id="LINE_66_"
   transform="translate(-329.39949,-246.7995)">
		
			<line
   style="fill:none;stroke:#000000;stroke-width:0.2;stroke-linecap:round;stroke-linejoin:round;stroke-miterlimit:4;stroke-dasharray:0.80000001,1.60000002;stroke-dashoffset:0"
   id="line20559"
   y2="346.79999"
   x2="336.5"
   y1="267.39999"
   x1="336.5"
   stroke-miterlimit="10" />
	</g><g
   style="stroke-width:0.2;stroke-miterlimit:4;stroke-dasharray:none"
   id="LINE_67_"
   transform="translate(-329.39949,-246.7995)">
		
			<line
   style="fill:none;stroke:#ff00ff;stroke-width:0.2;stroke-linecap:round;stroke-linejoin:round;stroke-miterlimit:4;stroke-dasharray:none"
   id="line20562"
   y2="306.79999"
   x2="506.5"
   y1="306.79999"
   x1="336.5"
   stroke-miterlimit="10" />
	</g><g
   style="stroke-width:0.2;stroke-miterlimit:4;stroke-dasharray:0.8,1.6;stroke:#000000;stroke-opacity:1;stroke-dashoffset:0"
   id="LINE_68_"
   transform="translate(-329.39949,-246.7995)">
		
			<line
   style="fill:none;stroke:#000000;stroke-width:0.2;stroke-linecap:round;stroke-linejoin:round;stroke-miterlimit:4;stroke-dasharray:0.8,1.6;stroke-opacity:1;stroke-dashoffset:0"
   id="line20565"
   y2="346.79999"
   x2="359"
   y1="267.39999"
   x1="359"
   stroke-miterlimit="10" />
	</g><g
   style="stroke-width:0.2;stroke-miterlimit:4;stroke-dasharray:0.8,1.6;stroke:#000000;stroke-opacity:1;stroke-dashoffset:0"
   id="LINE_69_"
   transform="translate(-329.39949,-246.7995)">
		
			<line
   style="fill:none;stroke:#000000;stroke-width:0.2;stroke-linecap:round;stroke-linejoin:round;stroke-miterlimit:4;stroke-dasharray:0.8,1.6;stroke-opacity:1;stroke-dashoffset:0"
   id="line20568"
   y2="346.79999"
   x2="421.5"
   y1="267.39999"
   x1="421.5"
   stroke-miterlimit="10" />
	</g><g
   style="stroke-width:0.2;stroke-miterlimit:4;stroke-dasharray:0.8,1.6;stroke:#000000;stroke-opacity:1;stroke-dashoffset:0"
   id="LINE_70_"
   transform="translate(-329.39949,-246.7995)">
		
			<line
   style="fill:none;stroke:#000000;stroke-width:0.2;stroke-linecap:round;stroke-linejoin:round;stroke-miterlimit:4;stroke-dasharray:0.8,1.6;stroke-opacity:1;stroke-dashoffset:0"
   id="line20571"
   y2="346.79999"
   x2="484"
   y1="267.39999"
   x1="484"
   stroke-miterlimit="10" />
	</g><g
   style="stroke-width:0.2;stroke-miterlimit:4;stroke-dasharray:none"
   id="LINE_75_"
   transform="translate(-329.39949,-246.7995)">
		
			<line
   style="fill:none;stroke:#ff00ff;stroke-width:0.2;stroke-linecap:round;stroke-linejoin:round;stroke-miterlimit:4;stroke-dasharray:none"
   id="line20574"
   y2="326.79999"
   x2="506.5"
   y1="326.79999"
   x1="336.5"
   stroke-miterlimit="10" />
	</g><g
   style="stroke-width:0.2;stroke-miterlimit:4;stroke-dasharray:none"
   id="LINE_80_"
   transform="translate(-329.39949,-246.7995)">
		
			<line
   style="fill:none;stroke:#ff00ff;stroke-width:0.2;stroke-linecap:round;stroke-linejoin:round;stroke-miterlimit:4;stroke-dasharray:none"
   id="line20577"
   y2="346.79999"
   x2="506.5"
   y1="346.79999"
   x1="336.5"
   stroke-miterlimit="10" />
	</g>
<g
   id="annotation"
   transform="translate(-329.39949,-246.7995)"
   style="stroke-width:0.2;stroke-miterlimit:4;stroke-dasharray:none">
	<g
   id="CIRCLE"
   style="stroke-width:0.2;stroke-miterlimit:4;stroke-dasharray:none">
		
			<path
   stroke-miterlimit="10"
   d="m 333.7,264.6 c 0,-1.5 1.2,-2.8 2.8,-2.8 1.6,0 2.8,1.2 2.8,2.8 0,1.6 -1.2,2.8 -2.8,2.8 -1.6,0 -2.8,-1.3 -2.8,-2.8 z"
   id="path20581"
   inkscape:connector-curvature="0"
   style="fill:none;stroke:#0000ff;stroke-width:0.2;stroke-linecap:round;stroke-linejoin:round;stroke-miterlimit:4;stroke-dasharray:none" />
	</g>
	<g
   id="TEXT"
   style="stroke-width:0.2;stroke-miterlimit:4;stroke-dasharray:none">
		<text
   transform="translate(334.7702,265.589)"
   font-size="2.8632px"
   id="text20584"
   style="font-size:2.86319995px;font-family:ArialMT;fill:#0000ff;stroke-width:0.2;stroke-miterlimit:4;stroke-dasharray:none">A2</text>

	</g>
	<g
   id="CIRCLE_1_"
   style="stroke-width:0.2;stroke-miterlimit:4;stroke-dasharray:none">
		
			<path
   stroke-miterlimit="10"
   d="m 378.7,264.6 c 0,-1.5 1.2,-2.8 2.8,-2.8 1.6,0 2.8,1.2 2.8,2.8 0,1.6 -1.2,2.8 -2.8,2.8 -1.6,0 -2.8,-1.3 -2.8,-2.8 z"
   id="path20587"
   inkscape:connector-curvature="0"
   style="fill:none;stroke:#0000ff;stroke-width:0.2;stroke-linecap:round;stroke-linejoin:round;stroke-miterlimit:4;stroke-dasharray:none" />
	</g>
	<g
   id="TEXT_1_"
   style="stroke-width:0.2;stroke-miterlimit:4;stroke-dasharray:none">
		<text
   transform="translate(379.7681,265.589)"
   font-size="2.8632px"
   id="text20590"
   style="font-size:2.86319995px;font-family:ArialMT;fill:#0000ff;stroke-width:0.2;stroke-miterlimit:4;stroke-dasharray:none">P2</text>

	</g>
	<g
   id="CIRCLE_2_"
   style="stroke-width:0.2;stroke-miterlimit:4;stroke-dasharray:none">
		
			<path
   stroke-miterlimit="10"
   d="m 458.7,264.6 c 0,-1.5 1.2,-2.8 2.8,-2.8 1.6,0 2.8,1.2 2.8,2.8 0,1.6 -1.2,2.8 -2.8,2.8 -1.6,0 -2.8,-1.3 -2.8,-2.8 z"
   id="path20593"
   inkscape:connector-curvature="0"
   style="fill:none;stroke:#0000ff;stroke-width:0.2;stroke-linecap:round;stroke-linejoin:round;stroke-miterlimit:4;stroke-dasharray:none" />
	</g>
	<g
   id="TEXT_2_"
   style="stroke-width:0.2;stroke-miterlimit:4;stroke-dasharray:none">
		<text
   transform="translate(459.7681,265.589)"
   font-size="2.8632px"
   id="text20596"
   style="font-size:2.86319995px;font-family:ArialMT;fill:#0000ff;stroke-width:0.2;stroke-miterlimit:4;stroke-dasharray:none">P1</text>

	</g>
	<g
   id="CIRCLE_3_"
   style="stroke-width:0.2;stroke-miterlimit:4;stroke-dasharray:none">
		
			<path
   stroke-miterlimit="10"
   d="m 503.7,264.6 c 0,-1.5 1.2,-2.8 2.8,-2.8 1.6,0 2.8,1.2 2.8,2.8 0,1.6 -1.2,2.8 -2.8,2.8 -1.6,0 -2.8,-1.3 -2.8,-2.8 z"
   id="path20599"
   inkscape:connector-curvature="0"
   style="fill:none;stroke:#0000ff;stroke-width:0.2;stroke-linecap:round;stroke-linejoin:round;stroke-miterlimit:4;stroke-dasharray:none" />
	</g>
	<g
   id="TEXT_3_"
   style="stroke-width:0.2;stroke-miterlimit:4;stroke-dasharray:none">
		<text
   transform="translate(504.7702,265.589)"
   font-size="2.8632px"
   id="text20602"
   style="font-size:2.86319995px;font-family:ArialMT;fill:#0000ff;stroke-width:0.2;stroke-miterlimit:4;stroke-dasharray:none">A1</text>

	</g>
	<g
   id="TEXT_4_"
   style="stroke-width:0.2;stroke-miterlimit:4;stroke-dasharray:none">
		<text
   transform="translate(349.6316,253.6958)"
   font-size="5.4118px"
   id="text20605"
   style="font-size:5.41179991px;font-family:ArialMT;fill:#0000ff;stroke-width:0.2;stroke-miterlimit:4;stroke-dasharray:none">KUDUS</text>

	</g>
	<g
   id="TEXT_5_"
   style="stroke-width:0.2;stroke-miterlimit:4;stroke-dasharray:none">
		<text
   transform="translate(474.4826,253.6958)"
   font-size="5.4118px"
   id="text20608"
   style="font-size:5.41179991px;font-family:ArialMT;fill:#0000ff;stroke-width:0.2;stroke-miterlimit:4;stroke-dasharray:none">DEMAK</text>

	</g>
</g>
<g
   id="marker"
   transform="translate(-329.39949,-246.7995)"
   style="stroke-width:0.2;stroke-miterlimit:4;stroke-dasharray:none">
	<g
   id="LINE_71_"
   style="stroke-width:0.2;stroke-miterlimit:4;stroke-dasharray:none">
		
			<line
   stroke-miterlimit="10"
   x1="329.39999"
   y1="306.79999"
   x2="330.70001"
   y2="306.79999"
   id="line20612"
   style="fill:none;stroke:#808080;stroke-width:0.2;stroke-linecap:round;stroke-linejoin:round;stroke-miterlimit:4;stroke-dasharray:none" />
	</g>
	<g
   id="LINE_72_"
   style="stroke-width:0.2;stroke-miterlimit:4;stroke-dasharray:none">
		
			<line
   stroke-miterlimit="10"
   x1="329.39999"
   y1="305.5"
   x2="329.39999"
   y2="308.10001"
   id="line20615"
   style="fill:none;stroke:#808080;stroke-width:0.2;stroke-linecap:round;stroke-linejoin:round;stroke-miterlimit:4;stroke-dasharray:none" />
	</g>
	<g
   id="LWPOLYLINE_14_"
   style="stroke-width:0.2;stroke-miterlimit:4;stroke-dasharray:none">
		
			<polyline
   stroke-miterlimit="10"
   points="    329.4,248.1 329.4,246.8 330.7,246.8   "
   id="polyline20618"
   style="fill:none;stroke:#808080;stroke-width:0.2;stroke-linecap:round;stroke-linejoin:round;stroke-miterlimit:4;stroke-dasharray:none" />
	</g>
	<g
   id="LINE_73_"
   style="stroke-width:0.2;stroke-miterlimit:4;stroke-dasharray:none">
		
			<line
   stroke-miterlimit="10"
   x1="329.39999"
   y1="326.79999"
   x2="330.70001"
   y2="326.79999"
   id="line20621"
   style="fill:none;stroke:#808080;stroke-width:0.2;stroke-linecap:round;stroke-linejoin:round;stroke-miterlimit:4;stroke-dasharray:none" />
	</g>
	<g
   id="LINE_74_"
   style="stroke-width:0.2;stroke-miterlimit:4;stroke-dasharray:none">
		
			<line
   stroke-miterlimit="10"
   x1="329.39999"
   y1="325.5"
   x2="329.39999"
   y2="328.10001"
   id="line20624"
   style="fill:none;stroke:#808080;stroke-width:0.2;stroke-linecap:round;stroke-linejoin:round;stroke-miterlimit:4;stroke-dasharray:none" />
	</g>
	<g
   id="LINE_76_"
   style="stroke-width:0.2;stroke-miterlimit:4;stroke-dasharray:none">
		
			<line
   stroke-miterlimit="10"
   x1="513.59998"
   y1="306.79999"
   x2="512.29999"
   y2="306.79999"
   id="line20627"
   style="fill:none;stroke:#808080;stroke-width:0.2;stroke-linecap:round;stroke-linejoin:round;stroke-miterlimit:4;stroke-dasharray:none" />
	</g>
	<g
   id="LINE_77_"
   style="stroke-width:0.2;stroke-miterlimit:4;stroke-dasharray:none">
		
			<line
   stroke-miterlimit="10"
   x1="513.59998"
   y1="305.5"
   x2="513.59998"
   y2="308.10001"
   id="line20630"
   style="fill:none;stroke:#808080;stroke-width:0.2;stroke-linecap:round;stroke-linejoin:round;stroke-miterlimit:4;stroke-dasharray:none" />
	</g>
	<g
   id="LWPOLYLINE_15_"
   style="stroke-width:0.2;stroke-miterlimit:4;stroke-dasharray:none">
		
			<polyline
   stroke-miterlimit="10"
   points="    513.6,248.1 513.6,246.8 512.3,246.8   "
   id="polyline20633"
   style="fill:none;stroke:#808080;stroke-width:0.2;stroke-linecap:round;stroke-linejoin:round;stroke-miterlimit:4;stroke-dasharray:none" />
	</g>
	<g
   id="LINE_78_"
   style="stroke-width:0.2;stroke-miterlimit:4;stroke-dasharray:none">
		
			<line
   stroke-miterlimit="10"
   x1="513.59998"
   y1="326.79999"
   x2="512.29999"
   y2="326.79999"
   id="line20636"
   style="fill:none;stroke:#808080;stroke-width:0.2;stroke-linecap:round;stroke-linejoin:round;stroke-miterlimit:4;stroke-dasharray:none" />
	</g>
	<g
   id="LINE_79_"
   style="stroke-width:0.2;stroke-miterlimit:4;stroke-dasharray:none">
		
			<line
   stroke-miterlimit="10"
   x1="513.59998"
   y1="325.5"
   x2="513.59998"
   y2="328.10001"
   id="line20639"
   style="fill:none;stroke:#808080;stroke-width:0.2;stroke-linecap:round;stroke-linejoin:round;stroke-miterlimit:4;stroke-dasharray:none" />
	</g>
</g>
	<path id="curve_dyn" d="M 7.13,60 C 11.63,61 20.63,65 29.63,65 C 38.629999999999995,65 39.63,63.400000000000006 52.13,60 C 64.63,56.6 76.13,48 92.13,48 C 108.13,48 119.63,56 132.13,60 C 144.63,64 145.63,68 154.63,68 C 163.63,68 172.63,61.6 177.13,60" fill="none" stroke="grey" />
<path id="dots" />
</svg>